<svg xmlns="http://www.w3.org/2000/svg" width="48" height="48" version="1">
 <rect style="opacity:0.2" width="41" height="41" x="-45" y="-45" rx="2.05" ry="2.05" transform="matrix(0,-1,-1,0,0,0)"/>
 <rect style="fill:#4c4f69" width="41" height="41" x="-44" y="-45" rx="2.05" ry="2.05" transform="matrix(0,-1,-1,0,0,0)"/>
 <path style="opacity:0.2" d="m 16,8 c -1.861662,1.862e-4 -3.411253,1.277812 -3.857422,3 H 37 V 8 Z m -4,5 v 3 h 8 17 v -3 z m 0,5 v 3 h 8 v -3 z m 0,5 v 3 h 8 v -3 z m 0,5 v 3 h 8 v -3 z m 0,5 v 3 H 37 V 33 H 20 Z m 0.142578,5 c 0.446169,1.722188 1.99576,2.999814 3.857422,3 h 21 v -3 z"/>
 <path style="fill:#40a02b" d="m 16,7 c -1.861662,1.862e-4 -3.411253,1.277812 -3.857422,3 H 37 V 7 Z"/>
 <path style="fill:#40a02b" d="m 12,12 v 3 h 8 17 v -3 z"/>
 <path style="fill:#40a02b" d="m 12,17 v 3 h 8 v -3 z"/>
 <path style="fill:#40a02b" d="m 12,22 v 3 h 8 v -3 z"/>
 <path style="fill:#179299" d="m 12,27 v 3 h 8 v -3 z"/>
 <path style="fill:#209fb5" d="m 12,32 v 3 H 37 V 32 H 20 Z"/>
 <path style="fill:#04a5e5" d="M 12.142578,37 C 12.588747,38.722188 14.138338,39.999814 16,40 H 37 V 37 Z"/>
 <path style="fill:#eff1f5;opacity:0.1" d="M 6.0507812 3 C 4.9150813 3 4 3.9150813 4 5.0507812 L 4 6.0507812 C 4 4.9150813 4.9150813 4 6.0507812 4 L 42.949219 4 C 44.084919 4 45 4.9150813 45 6.0507812 L 45 5.0507812 C 45 3.9150813 44.084919 3 42.949219 3 L 6.0507812 3 z"/>
</svg>
