<svg xmlns="http://www.w3.org/2000/svg" width="48" height="48" version="1">
 <rect style="fill:#7287fd" width="40" height="40" x="4" y="4" rx="2" ry="2"/>
 <path style="opacity:0.2;fill:none;stroke:#eff1f5;stroke-width:4;stroke-linecap:round;stroke-linejoin:round" d="m 10.0202,12.9998 7,7 7,-7"/>
 <path fill="#eff1f5" opacity=".2" d="m6 4c-1.108 0-2 0.892-2 2v1c0-1.108 0.892-2 2-2h36c1.108 0 2 0.892 2 2v-1c0-1.108-0.892-2-2-2h-36z"/>
 <path opacity=".2" d="m6 45c-1.108 0-2-0.892-2-2v-1c0 1.108 0.892 2 2 2h36c1.108 0 2-0.892 2-2v1c0 1.108-0.892 2-2 2h-36z"/>
 <path style="fill:none;stroke:#4c4f69;stroke-width:4;stroke-linecap:round;stroke-linejoin:round" d="m 10.0202,12 7,7 7,-7"/>
 <path style="opacity:0.2;fill:none;stroke:#eff1f5;stroke-width:4;stroke-linecap:round;stroke-linejoin:round" d="m 38.0202,19.9796 -7,-7 -7,7"/>
 <path style="fill:none;stroke:#4c4f69;stroke-width:4;stroke-linecap:round;stroke-linejoin:round" d="m 38.0202,18.9798 -7,-7 -7,7"/>
 <path style="opacity:0.2;fill:none;stroke:#eff1f5;stroke-width:4;stroke-linecap:round;stroke-linejoin:round" d="m 38.0202,36.9796 -7,-7 -7,7"/>
 <path style="fill:none;stroke:#4c4f69;stroke-width:4;stroke-linecap:round;stroke-linejoin:round" d="m 38.0202,35.9798 -7,-7 -7,7"/>
 <path style="opacity:0.2;fill:none;stroke:#eff1f5;stroke-width:4;stroke-linecap:round;stroke-linejoin:round" d="m 10,27.9998 0,9 9,0"/>
 <path style="fill:none;stroke:#4c4f69;stroke-width:4;stroke-linecap:round;stroke-linejoin:round" d="m 10,27 0,9 9,0"/>
</svg>
