<svg xmlns="http://www.w3.org/2000/svg" width="48" height="48" version="1">
 <path style="fill:#e64553" d="m24 4h-18c-1.108 0-2 0.892-2 2v18h20z"/>
 <path style="fill:#04a5e5" d="m24 4h18c1.108 0 2 0.892 2 2v18h-20z"/>
 <path style="fill:#df8e1d" d="m24 44h-18c-1.108 0-2-0.892-2-2v-18h20z"/>
 <path style="fill:#8839ef" d="m24 44h18c1.108 0 2-0.892 2-2v-18h-20z"/>
 <path fill="#eff1f5" opacity=".2" d="m6 4c-1.108 0-2 0.892-2 2v1c0-1.108 0.892-2 2-2h36c1.108 0 2 0.892 2 2v-1c0-1.108-0.892-2-2-2h-36z"/>
 <path opacity=".2" d="m6 45c-1.108 0-2-0.892-2-2v-1c0 1.108 0.892 2 2 2h36c1.108 0 2-0.892 2-2v1c0 1.108-0.892 2-2 2h-36z"/>
 <rect style="fill:#4c4f69" width="28" height="28" x="10" y="10"/>
 <path style="opacity:0.2;fill:none;stroke:#eff1f5;stroke-width:2;stroke-linecap:round" d="m 16,32.9999 h 8"/>
 <path style="fill:none;stroke:#eff1f5;stroke-width:2;stroke-linecap:round" d="m 16,32 h 8"/>
 <path style="opacity:0.2;fill:none;stroke:#eff1f5;stroke-width:1.99999988;stroke-linecap:round" d="m 15.999999,24.999902 h 3.999998 M 15.999999,16.9999 h 3.999998 M 18,24.999902 V 16.9999"/>
 <path style="fill:none;stroke:#eff1f5;stroke-width:1.99999988;stroke-linecap:round" d="m 15.999999,24.000002 h 3.999998 M 15.999999,16 h 3.999998 M 18,24.000002 V 16"/>
 <path style="opacity:0.2;fill:none;stroke:#eff1f5;stroke-width:1.99999988;stroke-linecap:round;stroke-linejoin:round" d="m 24.000001,23.999899 v 1.000003 H 25 c 3.915832,-0.115049 2.999191,-6.887989 3,-8.000002"/>
 <path style="fill:none;stroke:#eff1f5;stroke-width:1.99999988;stroke-linecap:round;stroke-linejoin:round" d="m 24.000001,22.999999 v 1.000003 H 25 C 28.915832,23.884953 27.999191,17.112013 28,16"/>
</svg>
