<svg xmlns="http://www.w3.org/2000/svg" width="48" height="48" version="1">
 <rect style="opacity:0.2" width="40" height="40" x="4" y="5" rx="4" ry="4"/>
 <rect style="fill:#4c4f69" width="36" height="40" x="4" y="4" rx="4" ry="4"/>
 <path style="fill:#dc8a78" d="M 36 35 L 36 44 L 40 44 C 42.216 44 44 42.216 44 40 L 44 35 L 36 35 z"/>
 <rect style="fill:#d20f39" width="8" height="9" x="36" y="27"/>
 <rect style="fill:#d20f39" width="8" height="9" x="36" y="19"/>
 <rect style="fill:#8839ef" width="8" height="9" x="36" y="11"/>
 <path style="fill:#1e66f5" d="M 36 4 L 36 12 L 44 12 L 44 8 C 44 5.784 42.216 4 40 4 L 36 4 z"/>
 <path style="opacity:0.2" d="m14 13 2 1.5v24.5l13-10.5-1-0.5v-14l-2-1zm9 4 1 0.5v9.5l-4 3v-13z"/>
 <path style="fill:#eff1f5" d="m14 12 2 1.5v24.5l13-10.5-1-0.5v-14l-2-1zm9 4 1 0.5v9.5l-4 3v-13z"/>
 <path style="opacity:0.1;fill:#eff1f5" d="M 8,4 C 5.784,4 4,5.784 4,8 V 9 C 4,6.784 5.784,5 8,5 H 40 C 42.216,5 44,6.784 44,9 V 8 C 44,5.784 42.216,4 40,4 Z"/>
</svg>
