<svg xmlns="http://www.w3.org/2000/svg" width="48" height="48" version="1">
 <rect style="opacity:0.2" width="40" height="40" x="4" y="5" rx="12" ry="12"/>
 <rect style="fill:#4c4f69" width="40" height="40" x="4" y="4" rx="12" ry="12"/>
 <path style="fill:#eff1f5;opacity:0.1" d="M 16 4 C 9.352 4 4 9.352 4 16 L 4 17 C 4 10.352 9.352 5 16 5 L 32 5 C 38.648 5 44 10.352 44 17 L 44 16 C 44 9.352 38.648 4 32 4 L 16 4 z"/>
 <path style="fill:#e64553" d="m 33,19 a 9,9 0 0 1 -9,9 9,9 0 0 1 -9,-9 9,9 0 0 1 9,-9 9,9 0 0 1 9,9 z"/>
 <path style="opacity:0.2" d="M 37.974609 29.359375 A 9 9 0 0 1 29 38 A 9 9 0 0 1 20.035156 29.5 A 9 9 0 0 0 20 30 A 9 9 0 0 0 29 39 A 9 9 0 0 0 38 30 A 9 9 0 0 0 37.974609 29.359375 z"/>
 <path style="fill:#40a02b" d="m 28,29 a 9,9 0 0 1 -9,9 9,9 0 0 1 -9,-9 9,9 0 0 1 9,-9 9,9 0 0 1 9,9 z"/>
 <path style="fill:#04a5e5" transform="scale(-1,1)" d="m -20,29 a 9,9 0 0 1 -9,9 9,9 0 0 1 -9,-9 9,9 0 0 1 9,-9 9,9 0 0 1 9,9 z"/>
 <path style="fill:#8839ef" d="M 29 20 C 24.66394 20 21.044918 23.065879 20.191406 27.148438 A 9 9 0 0 0 24 28 A 9 9 0 0 0 32.787109 20.833984 C 31.635903 20.299204 30.352935 20 29 20 z"/>
 <path style="fill:#df8e1d" d="M 19 20 A 9 9 0 0 0 15.212891 20.839844 A 9 9 0 0 0 24 28 A 9 9 0 0 0 27.804688 27.150391 A 9 9 0 0 0 19 20 z"/>
 <path style="fill:#179299" d="M 24 21.517578 C 21.588842 23.132232 20 25.880209 20 29 C 20 32.115717 21.584375 34.86106 23.990234 36.476562 A 9 9 0 0 0 28 29 A 9 9 0 0 0 24 21.517578 z"/>
 <path style="fill:#eff1f5" d="M 24 21.517578 C 22.079375 22.803742 20.681091 24.80896 20.191406 27.148438 A 9 9 0 0 0 24 28 A 9 9 0 0 0 27.794922 27.15625 A 9 9 0 0 0 24 21.517578 z"/>
 <path style="opacity:0.2" d="M 32.974609 19.359375 A 9 9 0 0 1 24 28 A 9 9 0 0 1 15.035156 19.5 A 9 9 0 0 0 15 20 A 9 9 0 0 0 24 29 A 9 9 0 0 0 33 20 A 9 9 0 0 0 32.974609 19.359375 z"/>
 <path style="opacity:0.2" d="M 27.974609 29.359375 A 9 9 0 0 1 19 38 A 9 9 0 0 1 10.035156 29.5 A 9 9 0 0 0 10 30 A 9 9 0 0 0 19 39 A 9 9 0 0 0 28 30 A 9 9 0 0 0 27.974609 29.359375 z"/>
 <path style="opacity:0.2;fill:#eff1f5" d="M 24 10 A 9 9 0 0 0 15 19 A 9 9 0 0 0 15.035156 19.5 A 9 9 0 0 1 24 11 A 9 9 0 0 1 32.974609 19.359375 A 9 9 0 0 0 33 19 A 9 9 0 0 0 24 10 z"/>
</svg>
