<svg xmlns="http://www.w3.org/2000/svg" width="48" height="48" version="1.1">
 <circle style="opacity:0.2" cx="24" cy="25" r="20"/>
 <circle style="fill:#df8e1d" cx="24" cy="24" r="20"/>
 <path style="opacity:0.2;fill:#eff1f5" d="M 24,4 A 20,20 0 0 0 4,24 20,20 0 0 0 4.0215,24.582 20,20 0 0 1 24,5 20,20 0 0 1 43.979,24.418 20,20 0 0 0 44,24 20,20 0 0 0 24,4 Z"/>
 <path d="M 12.404297 30 A 12 12 0 0 0 24 39 A 12 12 0 0 0 35.595703 30 L 12.404297 30 z"/>
 <ellipse style="opacity:0.2" cx="17.5" cy="19.5" rx="4.5" ry="5.5"/>
 <ellipse style="fill:#eff1f5" cx="17.5" cy="18.5" rx="4.5" ry="5.5"/>
 <ellipse style="opacity:0.2" cx="30.5" cy="19.5" rx="4.5" ry="5.5"/>
 <ellipse style="fill:#eff1f5" cx="30.5" cy="18.5" rx="4.5" ry="5.5"/>
 <circle cx="18" cy="19" r="2"/>
 <circle cx="30" cy="19" r="2"/>
 <rect style="fill:#eff1f5" width="16" height="2" x="16" y="30"/>
 <ellipse style="fill:#e64553" cx="24" cy="37.5" rx="4" ry="1.5"/>
</svg>
