<svg xmlns="http://www.w3.org/2000/svg" width="48" height="48" version="1">
 <circle style="opacity:0.2" cx="24" cy="25" r="20"/>
 <circle style="fill:#5c5f77" cx="24" cy="24" r="20"/>
 <circle style="fill:#4c4f69" cx="24" cy="24" r="16"/>
 <circle style="opacity:0.2" cx="24" cy="25" r="12"/>
 <circle style="fill:#df8e1d" cx="24" cy="24" r="12"/>
 <circle style="fill:#4c4f69" cx="24" cy="24" r="6"/>
 <path style="opacity:0.1;fill:#eff1f5" d="M 24,4 A 20,20 0 0 0 4,24 20,20 0 0 0 4.0196,24.586 20,20 0 0 1 24,5 20,20 0 0 1 43.98,24.414 20,20 0 0 0 44,24 20,20 0 0 0 24,4 Z"/>
 <path style="opacity:0.2;fill:#eff1f5" d="M 24,12 A 12,12 0 0 0 12,24 12,12 0 0 0 12.01954,24.429688 12,12 0 0 1 24,13 12,12 0 0 1 35.980468,24.570312 12,12 0 0 0 36,24 12,12 0 0 0 24,12 Z"/>
</svg>
