<svg xmlns="http://www.w3.org/2000/svg" width="48" height="48" version="1">
 <rect style="opacity:0.2" width="40" height="40" x="4" y="5" rx="3" ry="3"/>
 <rect style="fill:#d20f39" width="40" height="40" x="4" y="4" rx="3" ry="3"/>
 <path style="opacity:0.2" d="M 40,41 32.001039,33.008506 V 41 Z"/>
 <path style="fill:#40a02b" d="M 40,39.991494 32.001039,32 v 7.991494 z"/>
 <path style="opacity:0.2" d="m 32,25 8,-8 h -8 z"/>
 <path style="fill:#04a5e5" d="m 32,24 8,-8 h -8 z"/>
 <rect style="fill:#d20f39" width="8" height="18" x="16" y="15"/>
 <path style="opacity:0.1;fill:#eff1f5" d="M 7,4 C 5.338,4 4,5.338 4,7 V 8 C 4,6.338 5.338,5 7,5 h 34 c 1.662,0 3,1.338 3,3 V 7 C 44,5.338 42.662,4 41,4 Z"/>
 <path style="opacity:0.2" d="M 8.0000001,9 24,25 V 9 Z"/>
 <path style="fill:#df8e1d" d="M 8.0000001,8 24,24 V 8 Z"/>
 <path style="opacity:0.2" d="M 24.000047,25 8.0000473,41 H 24.000047 Z"/>
 <path style="fill:#df8e1d" d="M 24.000047,24 8.0000473,40 H 24.000047 Z"/>
 <path style="fill:#209fb5" d="m 40,32 -8,-8 v 8 z"/>
 <path style="opacity:0.2" d="M 32,33.00851 39.998959,41 v -7.99149 z"/>
 <path style="fill:#40a02b" d="M 32,32.00851 39.998959,40 v -7.99149 z"/>
 <path style="opacity:0.2" d="m 32,17 -8,8 h 8 z"/>
 <path style="fill:#40a02b" d="m 32,16 -8,8 h 8 z"/>
 <path style="opacity:0.2" d="m 40,9 -8,8 h 8 z"/>
 <path style="fill:#179299" d="m 40,8 -8,8 h 8 z"/>
 <path style="opacity:0.2;fill:#eff1f5" d="M 8 8 L 9 9 L 24 9 L 24 8 L 8 8 z M 40 8 L 32 16 L 33 16 L 40 9 L 40 8 z M 32 16 L 24 24 L 25 24 L 32 17 L 32 16 z M 23.5 24.5 L 8 40 L 9 40 L 24 25 L 23.5 24.5 z M 32 32.007812 L 33 33.007812 L 39.998047 33.007812 L 39.998047 32.007812 L 32 32.007812 z"/>
 <path style="opacity:0.1;fill:#eff1f5" d="M 32 24 L 32 25 L 39 32 L 40 32 L 32 24 z"/>
</svg>
