<svg xmlns="http://www.w3.org/2000/svg" width="48" height="48" version="1">
 <path fill="#dc8a78" d="m7 6c-1.662 0-3 1.338-3 3v25h40v-25c0-1.662-1.338-3-3-3z"/>
 <path fill="#eff1f5" opacity=".2" d="m7 6c-1.662 0-3 1.338-3 3v1c0-1.662 1.338-3 3-3h34c1.662 0 3 1.338 3 3v-1c0-1.662-1.338-3-3-3h-34z"/>
 <path style="fill:#eff1f5" d="m4 34v5c0 1.662 1.338 3 3 3h34c1.662 0 3-1.338 3-3v-5z"/>
 <rect fill="#eff1f5" width="13" height="2" x="28" y="37" rx="1" ry=".928"/>
 <rect fill="#dc8a78" width="21" height="2" x="7" y="37" rx="1" ry="1"/>
 <circle opacity=".2" cx="28" cy="39" r="2"/>
 <circle fill="#eff1f5" cx="28" cy="38" r="2"/>
 <rect fill="#eff1f5" style="opacity:.2" width="40" height="1" x="4" y="34"/>
 <path opacity=".2" d="m18.59 14c-0.54357-0.01-0.63707 0.6466-0.59214 1.1206 4e-3 4.4362-7e-3 8.873 5e-3 13.309 0.0478 0.5304 0.65436 0.74232 0.99922 0.41339 3.6857-2.2712 9.0468-4.5268 12.727-6.8078 0.40157-0.31396 0.24777-1.0451-0.20045-1.1971-3.6858-2.2622-9.0332-4.5368-12.722-6.7913-0.0689-0.0308-0.14295-0.0467-0.21704-0.0468z"/>
 <path fill="#eff1f5" d="m18.59 13c-0.54357-0.01-0.63707 0.6466-0.59214 1.1206 4e-3 4.4362-7e-3 8.873 5e-3 13.309 0.0478 0.5304 0.65436 0.74232 0.99922 0.41339 3.6857-2.2712 9.0468-4.5268 12.727-6.8078 0.40157-0.31396 0.24777-1.0451-0.20045-1.1971-3.6858-2.2622-9.0332-4.5368-12.722-6.7913-0.0689-0.0308-0.14295-0.0467-0.21704-0.0468z"/>
 <path opacity=".2" d="m4 39v1c0 1.662 1.338 3 3 3h34c1.662 0 3-1.338 3-3v-1c0 1.662-1.338 3-3 3h-34c-1.662 0-3-1.338-3-3z"/>
</svg>
