<svg xmlns="http://www.w3.org/2000/svg" width="48" height="48" version="1.1">
 <path style="opacity:0.2" d="M 14,5 H 28 L 40,17 V 39 C 40,42.32 37.32,45 34,45 H 14 C 10.68,45 8,42.32 8,39 V 11 C 8,7.68 10.68,5 14,5 Z"/>
 <path style="fill:#dc8a78" d="m 14,4 h 14 l 12,12 v 22 c 0,3.32 -2.68,6 -6,6 H 14 C 10.68,44 8,41.32 8,38 V 10 C 8,6.68 10.68,4 14,4 Z"/>
 <path style="fill:#dc8a78" d="M 30,4 H 40 V 14 Z"/>
 <g style="opacity:0.2" transform="translate(0,1)">
  <rect width="13" height="9" x="23" y="27" rx="1" ry="1"/>
  <rect width="24" height="2" x="12" y="18" rx="1" ry="1"/>
  <rect width="18" height="2" x="15" y="21" rx="1" ry="1"/>
  <rect width="7" height="2" x="14" y="27" rx="1" ry="1"/>
  <rect width="7" height="2" x="14" y="30" rx="1" ry="1"/>
  <rect width="7" height="2" x="14" y="33" rx="1" ry="1"/>
  <circle cx="12" cy="28" r="1"/>
  <circle cx="12" cy="31" r="1"/>
  <circle cx="12" cy="34" r="1"/>
 </g>
 <rect style="fill:#df8e1d" width="13" height="9" x="23" y="27" rx="1" ry="1"/>
 <path style="opacity:0.2;fill:#eff1f5" d="M 30,4 31,5 H 40 V 4 Z"/>
 <path style="fill:#eff1f5;opacity:0.2" d="M 14 4 C 10.68 4 8 6.68 8 10 L 8 11 C 8 7.68 10.68 5 14 5 L 28 5 L 40 17 L 40 16 L 28 4 L 14 4 z"/>
 <path style="fill:none;stroke:#dc8a78;stroke-width:2;stroke-linecap:round;stroke-linejoin:round" d="M 25,34 28,30 31,33 34,29"/>
 <rect style="fill:#eff1f5" width="24" height="2" x="12" y="18" rx="1" ry="1"/>
 <rect style="fill:#eff1f5" width="18" height="2" x="15" y="21" rx="1" ry="1"/>
 <rect style="fill:#eff1f5" width="7" height="2" x="14" y="27" rx="1" ry="1"/>
 <rect style="fill:#eff1f5" width="7" height="2" x="14" y="30" rx="1" ry="1"/>
 <rect style="fill:#eff1f5" width="7" height="2" x="14" y="33" rx="1" ry="1"/>
 <circle style="fill:#eff1f5" cx="12" cy="28" r="1"/>
 <circle style="fill:#eff1f5" cx="12" cy="31" r="1"/>
 <circle style="fill:#eff1f5" cx="12" cy="34" r="1"/>
</svg>
