<svg xmlns="http://www.w3.org/2000/svg" width="48" height="48" version="1.1">
 <path style="opacity:0.2" d="m 14,35 v 6 c 0,2 2,2 2,2 h 2 4 4 4 4 4 2 c 0,0 2,0 2,-2 v -6 h -4 -4 -4 -4 -4 -4 z"/>
 <path style="fill:#40a02b" d="m 42,34 h -4 v 8 h 2 c 0,0 2,0 2,-2 z"/>
 <rect style="fill:#40a02b" width="4" height="8" x="26" y="34"/>
 <rect style="fill:#40a02b" width="4" height="8" x="22" y="34"/>
 <rect style="fill:#40a02b" width="4" height="8" x="18" y="34"/>
 <path style="fill:#40a02b" d="m 14,34 h 4 v 8 h -2 c 0,0 -2,0 -2,-2 z"/>
 <rect style="fill:#40a02b" width="4" height="8" x="34" y="34"/>
 <rect style="fill:#40a02b" width="4" height="8" x="30" y="34"/>
 <rect style="opacity:0.2" width="32" height="40" x="-39" y="-46" rx="2" ry="2" transform="matrix(0,-1,-1,0,0,0)"/>
 <rect style="fill:#40a02b" width="32" height="40" x="-38" y="-46" rx="2" ry="2" transform="matrix(0,-1,-1,0,0,0)"/>
 <path style="opacity:0.1;fill:none;stroke:#4c4f69;stroke-width:4;stroke-linecap:round;stroke-linejoin:round" d="m 16.00797,13.9998 h 14 l -14,18 h 14"/>
 <path style="fill:none;stroke:#4c4f69;stroke-width:4;stroke-linecap:round;stroke-linejoin:round" d="m 16.00797,13 h 14 l -14,18 h 14"/>
 <path style="opacity:0.1;fill:none;stroke:#4c4f69;stroke-width:2;stroke-linecap:round;stroke-linejoin:round" d="m 35.008212,12.9999 h 6 l -6,8 h 6"/>
 <path style="fill:none;stroke:#4c4f69;stroke-width:2;stroke-linecap:round;stroke-linejoin:round" d="m 35.008212,12.0001 h 6 l -6,8 h 6"/>
 <path style="opacity:0.2;fill:#eff1f5" d="m 8.000485,6 c -1.108,0 -2,0.892 -2,2 v 1 c 0,-1.108 0.892,-2 2,-2 h 36 c 1.108,0 2,0.892 2,2 V 8 c 0,-1.108 -0.892,-2 -2,-2 z"/>
 <path style="opacity:0.2;fill:none;stroke:#eff1f5;stroke-width:4;stroke-linecap:round;stroke-linejoin:round" d="m 4.000485,6.999515 h 4 v 33 0 0"/>
 <path style="fill:none;stroke:#eff1f5;stroke-width:4;stroke-linecap:round;stroke-linejoin:round" d="m 4.000485,6 h 4 v 33 0 0"/>
</svg>
