<svg xmlns="http://www.w3.org/2000/svg" width="48" height="48" version="1">
 <path style="opacity:0.2" d="M 40,43 V 15 H 8 v 28 c 0,1.108 0.892,2 2,2 h 28 c 1.108,0 2,-0.892 2,-2 z"/>
 <path style="fill:#eff1f5" d="M 40,42 V 14 H 8 v 28 c 0,1.108 0.892,2 2,2 h 28 c 1.108,0 2,-0.892 2,-2 z"/>
 <path style="fill:#eff1f5" d="m 15,8 h 18 l 7,6 H 8 Z"/>
 <rect style="fill:#eff1f5" width="18" height="4" x="15" y="4"/>
 <path style="fill:#eff1f5" d="m 33,8 v 0 l 7,6 H 26 Z"/>
 <path style="fill:#eff1f5" d="M 26 14 L 26 44 L 38 44 C 39.108 44 40 43.108 40 42 L 40 14 L 26 14 z"/>
 <path style="opacity:0.2;fill:none;stroke:#eff1f5;stroke-width:2.99981093;stroke-linecap:round;stroke-linejoin:round" d="m 21.512216,35.478732 v -11.99949 m -8.999433,0 4.499717,5.999622 4.499716,-5.999622 m -8.999433,11.99949 v -11.99949"/>
 <path style="fill:none;stroke:#04a5e5;stroke-width:2.99981093;stroke-linecap:round;stroke-linejoin:round" d="m 21.512216,34.478732 v -11.99949 m -8.999433,0 4.499717,5.999622 4.499716,-5.999622 m -8.999433,11.99949 v -11.99949"/>
 <path style="opacity:0.2;fill:none;stroke:#eff1f5;stroke-width:2.99981093;stroke-linecap:round" d="m 30.521268,23.479242 h 5.999622 m -2.999811,11.99949 v -11.99949"/>
 <path style="fill:none;stroke:#04a5e5;stroke-width:2.99981093;stroke-linecap:round" d="m 30.521268,22.479242 h 5.999622 m -2.999811,11.99949 v -11.99949"/>
 <path style="opacity:0.1;fill:#eff1f5" d="M 15 4 L 15 5 L 33 5 L 33 4 L 15 4 z"/>
</svg>
