<svg xmlns="http://www.w3.org/2000/svg" width="48" height="48" version="1">
 <rect style="opacity:0.2" width="40" height="40" x="-45" y="-44" rx="3" ry="3" transform="matrix(0,-1,-1,0,0,0)"/>
 <rect style="fill:#40a02b" width="4" height="4" x="4" y="12" ry="0"/>
 <rect style="fill:#df8e1d" width="4" height="4" x="8" y="24" ry="0"/>
 <rect style="fill:#df8e1d" width="4" height="4" x="-24" y="24" ry="0" transform="scale(-1,1)"/>
 <rect style="fill:#df8e1d" width="4" height="4" x="-20" y="24" ry="0" transform="scale(-1,1)"/>
 <rect style="fill:#df8e1d" width="4" height="4" x="-24" y="20" ry="0" transform="scale(-1,1)"/>
 <rect style="fill:#df8e1d" width="4" height="4" x="16" y="20" ry="0"/>
 <rect style="fill:#df8e1d" width="4" height="4" x="-20" y="16" ry="0" transform="scale(-1,1)"/>
 <rect style="fill:#40a02b" width="4" height="4" x="40" y="8" ry="0"/>
 <path style="fill:#40a02b" d="M 4,7 C 4,4 7,4 7,4 H 8 V 8 H 4 Z"/>
 <rect style="fill:#df8e1d" width="4" height="4" x="20" y="32" ry="0"/>
 <rect style="fill:#df8e1d" width="4" height="4" x="12" y="32" ry="0"/>
 <rect style="fill:#df8e1d" width="4" height="4" x="-28" y="-32" ry="0" transform="scale(-1)"/>
 <rect style="fill:#df8e1d" width="4" height="4" x="12" y="24" ry="0"/>
 <rect style="fill:#df8e1d" width="4" height="4" x="12" y="20" ry="0"/>
 <rect style="fill:#5c5f77" width="4" height="4" x="-28" y="20" ry="0" transform="scale(-1,1)"/>
 <rect style="fill:#df8e1d" width="4" height="4" x="24" y="16" ry="0"/>
 <rect style="fill:#40a02b" width="4" height="4" x="-16" y="12" ry="0" transform="scale(-1,1)"/>
 <rect style="fill:#df8e1d" width="4" height="4" x="-8" y="-36" ry="0" transform="scale(-1)"/>
 <rect style="fill:#df8e1d" width="4" height="4" x="-28" y="-36" ry="0" transform="scale(-1)"/>
 <rect style="fill:#df8e1d" width="4" height="4" x="-12" y="-36" ry="0" transform="scale(-1)"/>
 <rect style="fill:#df8e1d" width="4" height="4" x="-32" y="24" ry="0" transform="scale(-1,1)"/>
 <rect style="fill:#40a02b" width="4" height="4" x="8" y="8" ry="0"/>
 <rect style="fill:#40a02b" width="4" height="4" x="20" y="12" ry="0"/>
 <rect style="fill:#40a02b" width="4" height="4" x="24" y="12" ry="0"/>
 <rect style="fill:#40a02b" width="4" height="4" x="28" y="12" ry="0"/>
 <rect style="fill:#40a02b" width="4" height="4" x="-32" y="16" ry="0" transform="scale(-1,1)"/>
 <rect style="fill:#df8e1d" width="4" height="4" x="-12" y="20" ry="0" transform="scale(-1,1)"/>
 <rect style="fill:#40a02b" width="4" height="4" x="-20" y="12" ry="0" transform="scale(-1,1)"/>
 <rect style="fill:#40a02b" width="4" height="4" x="-8" y="8" ry="0" transform="scale(-1,1)"/>
 <rect style="fill:#df8e1d" width="4" height="4" x="28" y="-36" ry="0" transform="scale(1,-1)"/>
 <rect style="fill:#df8e1d" width="4" height="4" x="-36" y="40" ry="0" transform="scale(-1,1)"/>
 <rect style="fill:#df8e1d" width="4" height="4" x="16" y="40" ry="0"/>
 <rect style="fill:#df8e1d" width="4" height="4" x="20" y="40" ry="0"/>
 <rect style="fill:#df8e1d" width="4" height="4" x="12" y="-44" ry="0" transform="scale(1,-1)"/>
 <rect style="fill:#df8e1d" width="4" height="4" x="-28" y="-44" ry="0" transform="scale(-1)"/>
 <rect style="fill:#df8e1d" width="4" height="4" x="12" y="36" ry="0"/>
 <rect style="fill:#5c5f77" width="4" height="4" x="16" y="36" ry="0"/>
 <rect style="fill:#df8e1d" width="4" height="4" x="24" y="36" ry="0"/>
 <rect style="fill:#df8e1d" width="4" height="4" x="20" y="36" ry="0"/>
 <rect style="fill:#df8e1d" width="4" height="4" x="32" y="36" ry="0"/>
 <rect style="fill:#5c5f77" width="4" height="4" x="-12" y="-40" ry="0" transform="scale(-1)"/>
 <rect style="fill:#df8e1d" width="4" height="4" x="8" y="-44" ry="0" transform="scale(1,-1)"/>
 <rect style="fill:#df8e1d" width="4" height="4" x="-36" y="24" ry="0" transform="scale(-1,1)"/>
 <rect style="fill:#df8e1d" width="4" height="4" x="-36" y="20" ry="0" transform="scale(-1,1)"/>
 <rect style="fill:#40a02b" width="4" height="4" x="32" y="4" ry="0"/>
 <rect style="fill:#df8e1d" width="4" height="4" x="32" y="-36" ry="0" transform="scale(1,-1)"/>
 <rect style="fill:#40a02b" width="4" height="4" x="32" y="12" ry="0"/>
 <rect style="fill:#df8e1d" width="4" height="4" x="-40" y="-36" ry="0" transform="scale(-1)"/>
 <rect style="fill:#40a02b" width="4" height="4" x="-32" y="4" ry="0" transform="scale(-1,1)"/>
 <rect style="fill:#40a02b" width="4" height="4" x="24" y="4" ry="0"/>
 <rect style="fill:#40a02b" width="4" height="4" x="8" y="4" ry="0"/>
 <rect style="fill:#40a02b" width="4" height="4" x="12" y="4" ry="0"/>
 <rect style="fill:#40a02b" width="4" height="4" x="20" y="4" ry="0"/>
 <rect style="fill:#40a02b" width="4" height="4" x="16" y="4" ry="0"/>
 <rect style="fill:#df8e1d" width="4" height="4" x="-8" y="-20" ry="0" transform="scale(-1)"/>
 <rect style="fill:#df8e1d" width="4" height="4" x="4" y="-40" ry="0" transform="scale(1,-1)"/>
 <rect style="fill:#df8e1d" width="4" height="4" x="-20" y="32" ry="0" transform="scale(-1,1)"/>
 <rect style="fill:#df8e1d" width="4" height="4" x="4" y="24" ry="0"/>
 <rect style="fill:#df8e1d" width="4" height="4" x="4" y="20" ry="0"/>
 <rect style="fill:#df8e1d" width="4" height="4" x="-16" y="16" ry="0" transform="scale(-1,1)"/>
 <rect style="fill:#40a02b" width="4" height="4" x="28" y="8" ry="0"/>
 <rect style="fill:#40a02b" width="4" height="4" x="32" y="8" ry="0"/>
 <rect style="fill:#40a02b" width="4" height="4" x="-24" y="8" ry="0" transform="scale(-1,1)"/>
 <rect style="fill:#40a02b" width="4" height="4" x="24" y="8" ry="0"/>
 <path style="fill:#40a02b" d="m 40,4 h 1 c 0,0 3,0 3,3 v 1 h -4 z"/>
 <rect style="fill:#40a02b" width="4" height="4" x="36" y="8" ry="0"/>
 <rect style="fill:#40a02b" width="4" height="4" x="36" y="4" ry="0"/>
 <rect style="fill:#40a02b" width="4" height="4" x="-16" y="8" ry="0" transform="scale(-1,1)"/>
 <rect style="fill:#40a02b" width="4" height="4" x="36" y="12" ry="0"/>
 <rect style="fill:#40a02b" width="4" height="4" x="40" y="16" ry="0"/>
 <rect style="fill:#40a02b" width="4" height="4" x="16" y="8" ry="0"/>
 <rect style="fill:#df8e1d" width="4" height="4" x="-16" y="28" ry="0" transform="scale(-1,1)"/>
 <rect style="fill:#df8e1d" width="4" height="4" x="8" y="-32" ry="0" transform="scale(1,-1)"/>
 <rect style="fill:#df8e1d" width="4" height="4" x="16" y="-32" ry="0" transform="scale(1,-1)"/>
 <rect style="fill:#df8e1d" width="4" height="4" x="20" y="-32" ry="0" transform="scale(1,-1)"/>
 <rect style="fill:#df8e1d" width="4" height="4" x="-40" y="16" ry="0" transform="scale(-1,1)"/>
 <rect style="fill:#df8e1d" width="4" height="4" x="28" y="-24" ry="0" transform="scale(1,-1)"/>
 <rect style="fill:#df8e1d" width="4" height="4" x="36" y="-24" ry="0" transform="scale(1,-1)"/>
 <rect style="fill:#df8e1d" width="4" height="4" x="40" y="-24" ry="0" transform="scale(1,-1)"/>
 <path style="fill:#df8e1d" d="m 4,41 c 0,3 3,3 3,3 H 8 V 40 H 4 Z"/>
 <rect style="fill:#5c5f77" width="4" height="4" x="-8" y="28" ry="0" transform="scale(-1,1)"/>
 <rect style="fill:#5c5f77" width="4" height="4" x="-28" y="20" ry="0" transform="scale(-1,1)"/>
 <rect style="fill:#5c5f77" width="4" height="4" x="-12" y="16" ry="0" transform="scale(-1,1)"/>
 <rect style="fill:#5c5f77" width="4" height="4" x="-36" y="-20" ry="0" transform="scale(-1)"/>
 <rect style="fill:#df8e1d" width="4" height="4" x="-44" y="12" ry="0" transform="scale(-1,1)"/>
 <rect style="fill:#df8e1d" width="4" height="4" x="28" y="40" ry="0"/>
 <rect style="fill:#df8e1d" width="4" height="4" x="-32" y="28" ry="0" transform="scale(-1,1)"/>
 <rect style="fill:#df8e1d" width="4" height="4" x="-40" y="28" ry="0" transform="scale(-1,1)"/>
 <rect style="fill:#df8e1d" width="4" height="4" x="-44" y="28" ry="0" transform="scale(-1,1)"/>
 <rect style="fill:#df8e1d" width="4" height="4" x="-12" y="-16" ry="0" transform="scale(-1)"/>
 <rect style="fill:#5c5f77" width="4" height="4" x="32" y="28" ry="0"/>
 <rect style="fill:#df8e1d" width="4" height="4" x="40" y="32" ry="0"/>
 <rect style="fill:#df8e1d" width="4" height="4" x="-40" y="24" ry="0" transform="scale(-1,1)"/>
 <rect style="fill:#df8e1d" width="4" height="4" x="-24" y="16" ry="0" transform="scale(-1,1)"/>
 <rect style="fill:#df8e1d" width="4" height="4" x="40" y="36" ry="0"/>
 <rect style="fill:#df8e1d" width="4" height="4" x="-40" y="40" ry="0" transform="scale(-1,1)"/>
 <path style="fill:#5c5f77" d="m 40,40 h 4 v 1 c 0,3 -3,3 -3,3 h -1 z"/>
 <rect style="fill:#df8e1d" width="4" height="4" x="-40" y="-40" ry="0" transform="scale(-1)"/>
 <rect style="fill:#df8e1d" width="4" height="4" x="24" y="24" ry="0"/>
 <rect style="fill:#df8e1d" width="4" height="4" x="40" y="-28" ry="0" transform="scale(1,-1)"/>
 <rect style="fill:#df8e1d" width="4" height="4" x="28" y="-40" ry="0" transform="scale(1,-1)"/>
 <path style="opacity:0.2;fill:#eff1f5" d="M 7,4 C 5.338,4 4,5.338 4,7 V 8 C 4,6.338 5.338,5 7,5 h 34 c 1.662,0 3,1.338 3,3 V 7 C 44,5.338 42.662,4 41,4 Z"/>
</svg>
