<svg xmlns="http://www.w3.org/2000/svg" width="48" height="48" version="1.1">
 <rect style="opacity:0.2" width="40" height="40" x="4" y="5" rx="4" ry="4"/>
 <rect style="fill:#df8e1d" width="40" height="40" x="4" y="4" rx="4" ry="4"/>
 <circle style="fill:none;stroke:#d20f39;stroke-width:2" cx="24" cy="24" r="10"/>
 <path style="fill:#d20f39" d="M 22,19 V 24 H 19 L 24,29 29,24 H 26 V 19 Z"/>
 <rect style="fill:#df8e1d" width="8" height="4" x="20" y="40"/>
 <rect style="fill:#df8e1d" width="8" height="4" x="20" y="4"/>
 <circle style="opacity:0.2" cx="36" cy="37" r="11"/>
 <circle style="fill:#40a02b" cx="36" cy="36" r="11"/>
 <path style="fill:#eff1f5" d="M 34,29 V 34 H 29 V 38 H 34 V 43 H 38 V 38 H 43 V 34 H 38 V 29 Z"/>
 <path style="fill:#eff1f5;opacity:0.2" d="M 8 4 C 5.784 4 4 5.784 4 8 L 4 9 C 4 6.784 5.784 5 8 5 L 40 5 C 42.216 5 44 6.784 44 9 L 44 8 C 44 5.784 42.216 4 40 4 L 8 4 z"/>
</svg>
