<svg width="48" height="48" version="1.1" xmlns="http://www.w3.org/2000/svg">
 <g transform="matrix(2,0,0,2,2,2)">
  <path d="m9 1.5v4h4v-4zm4 4v4h4v-4zm4 4v4h4v-4zm0 4h-4v4h4zm-4 4h-4v4h4zm-4 0v-4h-4v4zm-4-4v-4h-4v4zm0-4h4v-4h-4z" style="opacity:.2"/>
  <rect x="1" y="9" width="4" height="4" style="fill:#40a02b"/>
  <rect x="9" y="17" width="4" height="4" style="fill:#04a5e5"/>
  <rect x="1" y="9" width="4" height="4" style="fill:#40a02b"/>
  <rect x="13" y="13" width="4" height="4" style="fill:#8839ef"/>
  <rect transform="scale(-1,1)" x="-21" y="9" width="4" height="4" style="fill:#ea76cb"/>
  <rect x="5" y="13" width="4" height="4" style="fill:#40a02b"/>
  <rect x="5" y="5" width="4" height="4" style="fill:#df8e1d"/>
  <rect x="13" y="5" width="4" height="4" style="fill:#df8e1d"/>
  <rect x="9" y="1" width="4" height="4" style="fill:#e64553"/>
  <path d="m9 5.5v4h-4v4h4v4h4v-4h4v-4h-4v-4z" style="opacity:.2"/>
  <path d="m9 5v4h-4v4h4v4h4v-4h4v-4h-4v-4z" style="fill:#df8e1d"/>
  <path d="m9 1v0.5h4v-0.5zm-4 4v0.5h4v-0.5zm8 0v0.5h4v-0.5zm-12 4v0.5h4v-0.5zm16 0v0.5h4v-0.5z" style="fill:#eff1f5;opacity:.2"/>
 </g>
</svg>
