<svg xmlns="http://www.w3.org/2000/svg" width="48" height="48" version="1">
 <path fill="#4c4f69" d="m10 11c-1.108 0-2 0.892-2 2v24c0 1.108 0.892 2 2 2h18l4 4 4-4h6c1.108 0 2-0.892 2-2v-24c0-1.108-0.892-2-2-2z"/>
 <path fill="#eff1f5" opacity=".1" d="m10 11c-1.108 0-2 0.892-2 2v1c0-1.108 0.892-2 2-2h32c1.108 0 2 0.892 2 2v-1c0-1.108-0.892-2-2-2h-32z"/>
 <circle opacity=".2" cx="16" cy="18" r="12"/>
 <circle fill="#04a5e5" cx="16" cy="17" r="12"/>
 <path fill="#eff1f5" d="m15 10v10h2v-10h-2zm0 12v2h2v-2h-2z"/>
 <path opacity=".2" d="m8 37v1c0 1.108 0.892 2 2 2h18l4 4 4-4h6c1.108 0 2-0.892 2-2v-1c0 1.108-0.892 2-2 2h-6l-4 4-4-4h-18c-1.108 0-2-0.892-2-2z"/>
</svg>
