<svg xmlns="http://www.w3.org/2000/svg" width="48" height="48" version="1">
 <rect style="fill:#df8e1d" width="40" height="40" x="4" y="4" rx="2" ry="2"/>
 <path style="opacity:0.2;fill:none;stroke:#eff1f5;stroke-width:8;stroke-linecap:round;stroke-linejoin:round" d="m 14,22.999533 c 0,-9 6,-8 20,-8"/>
 <path fill="#eff1f5" opacity=".2" d="m4 7v-1c0-1.108 0.892-2 2-2h36c1.108 0 2 0.892 2 2v1c0-1.108-0.892-2-2-2h-36c-1.108 0-2 0.892-2 2z"/>
 <path opacity=".2" d="m4 42v1c0 1.108 0.892 2 2 2h36c1.108 0 2-0.892 2-2v-1c0 1.108-0.892 2-2 2h-36c-1.108 0-2-0.892-2-2z"/>
 <path style="fill:none;stroke:#4c4f69;stroke-width:8;stroke-linecap:round;stroke-linejoin:round" d="m 14,22 c 0,-9 6,-8 20,-8"/>
 <path style="opacity:0.2;fill:none;stroke:#eff1f5;stroke-width:8;stroke-linecap:round;stroke-linejoin:round" d="m 34.05657,26.999533 c 0,9 -6,8 -20,8"/>
 <path style="fill:none;stroke:#4c4f69;stroke-width:8;stroke-linecap:round;stroke-linejoin:round" d="m 34.05657,26 c 0,9 -6,8 -20,8"/>
</svg>
