<svg xmlns="http://www.w3.org/2000/svg" width="48" height="48" version="1.1">
 <rect style="opacity:0.2" width="40" height="40" x="4" y="5" rx="8" ry="8"/>
 <rect style="fill:#eff1f5" width="40" height="40" x="4" y="4" rx="8" ry="8"/>
 <path style="opacity:0.1" d="M 24.001953,21.25 17,25 23.998047,28.75 17,32.498047 V 40 L 24.001953,36.25 31,32.498047 V 25 Z"/>
 <path style="fill:#dc8a78" d="m 24.001127,20.250602 v 7.498883 h -0.0022 L 17,24.000029 Z"/>
 <path style="opacity:0.1" d="M 31,10 24.001953,13.75 17,17.501953 V 25 L 24.001953,21.25 31,17.501953 Z"/>
 <path style="fill:#df8e1d" d="m 31,9 v 7.501146 l -6.998902,-3.75169 z"/>
 <path style="fill:#dc8a78" d="m 31,16.501175 -6.998902,3.749427 v -7.501146 z"/>
 <path style="fill:#8839ef" d="m 24.001127,12.749456 v 7.501146 L 17,16.501175 Z"/>
 <path style="fill:#8839ef" d="M 24.001127,35.250601 17,39 v -7.501088 z"/>
 <path fill="#d20f39" d="M 31,24.000058 V 31.49894 L 24.001098,27.749485 Z"/>
 <path fill="#d20f39" d="m 31,31.49894 -6.998902,3.751691 v -7.501146 z"/>
 <path fill="#ea76cb" d="m 24.001127,27.749485 v 7.501146 L 17,31.49894 23.998882,27.749485 Z"/>
 <path fill="#d20f39" d="m 31,24.000029 -6.998902,3.749456 v -7.498883 z"/>
 <path style="fill:#e64553" d="M 24.001127,20.250573 17,24.000029 v -7.498883 z"/>
 <path style="opacity:0.2;fill:#eff1f5" d="M 12 4 C 7.568 4 4 7.568 4 12 L 4 13 C 4 8.568 7.568 5 12 5 L 36 5 C 40.432 5 44 8.568 44 13 L 44 12 C 44 7.568 40.432 4 36 4 L 12 4 z"/>
</svg>
