<svg xmlns="http://www.w3.org/2000/svg" width="48" height="48" version="1.1">
 <path style="opacity:0.2" d="M 12,15 A 10,10 0 0 0 2,25 10,10 0 0 0 12,35 10,10 0 0 0 19.128906,32 h 9.732422 A 10,10 0 0 0 36,35 10,10 0 0 0 46,25 10,10 0 0 0 36,15 Z"/>
 <rect style="fill:#df8e1d" width="24" height="17" x="12" y="14"/>
 <circle style="fill:#df8e1d" cx="12" cy="24" r="10"/>
 <circle style="fill:#df8e1d" cx="36" cy="24" r="10"/>
 <path style="opacity:0.2" d="m 11,19 c -0.554,0 -1,0.446 -1,1 v 3 H 7 c -0.554,0 -1,0.446 -1,1 v 2 c 0,0.554 0.446,1 1,1 h 3 v 3 c 0,0.554 0.446,1 1,1 h 2 c 0.554,0 1,-0.446 1,-1 v -3 h 3 c 0.554,0 1,-0.446 1,-1 v -2 c 0,-0.554 -0.446,-1 -1,-1 h -3 v -3 c 0,-0.554 -0.446,-1 -1,-1 z m 25,0 a 2,2 0 0 0 -2,2 2,2 0 0 0 2,2 2,2 0 0 0 2,-2 2,2 0 0 0 -2,-2 z m -4,4 a 2,2 0 0 0 -2,2 2,2 0 0 0 2,2 2,2 0 0 0 2,-2 2,2 0 0 0 -2,-2 z m 8,0 a 2,2 0 0 0 -2,2 2,2 0 0 0 2,2 2,2 0 0 0 2,-2 2,2 0 0 0 -2,-2 z m -4,4 a 2,2 0 0 0 -2,2 2,2 0 0 0 2,2 2,2 0 0 0 2,-2 2,2 0 0 0 -2,-2 z"/>
 <rect style="fill:#eff1f5" width="4" height="12" x="10" y="18" rx="1" ry="1"/>
 <rect style="fill:#eff1f5" width="4" height="12" x="22" y="-18" rx="1" ry="1" transform="rotate(90)"/>
 <circle style="fill:#eff1f5" cx="36" cy="20" r="2"/>
 <circle style="fill:#eff1f5" cx="36" cy="28" r="2"/>
 <circle style="fill:#eff1f5" cx="24" cy="-40" r="2" transform="rotate(90)"/>
 <circle style="fill:#eff1f5" cx="24" cy="-32" r="2" transform="rotate(90)"/>
 <path style="opacity:0.2;fill:#eff1f5" d="M 12 14 A 10 10 0 0 0 2 24 A 10 10 0 0 0 2.0214844 24.414062 A 10 10 0 0 1 12 15 L 36 15 A 10 10 0 0 1 45.978516 24.585938 A 10 10 0 0 0 46 24 A 10 10 0 0 0 36 14 L 12 14 z"/>
</svg>
