<svg xmlns="http://www.w3.org/2000/svg" width="48" height="48" version="1">
 <rect style="opacity:0.2" width="32" height="40" x="8" y="5" rx="2" ry="2"/>
 <rect style="fill:#8839ef" width="32" height="40" x="8" y="4" rx="2" ry="2"/>
 <circle opacity=".2" cx="36" cy="37" r="11"/>
 <path style="fill:#8839ef" d="M 8 36 L 8 42 C 8 43.108 8.892 44 10 44 L 38 44 C 39.108 44 40 43.108 40 42 L 40 36 L 8 36 z"/>
 <rect style="opacity:0.2" width="22" height="2" x="11" y="10"/>
 <rect style="fill:#eff1f5" width="22" height="2" x="11" y="9"/>
 <rect style="opacity:0.2" width="19" height="2" x="14" y="14"/>
 <rect style="fill:#1e66f5" width="19" height="2" x="14" y="13"/>
 <rect style="opacity:0.2" width="22" height="2" x="11" y="19"/>
 <rect style="fill:#eff1f5" width="22" height="2" x="11" y="18"/>
 <rect style="opacity:0.2" width="19" height="2" x="14" y="23"/>
 <rect style="fill:#1e66f5" width="19" height="2" x="14" y="22"/>
 <rect style="opacity:0.2" width="22" height="2" x="11" y="28"/>
 <rect style="fill:#eff1f5" width="22" height="2" x="11" y="27"/>
 <rect style="opacity:0.2" width="19" height="2" x="14" y="32"/>
 <rect style="fill:#1e66f5" width="19" height="2" x="14" y="31"/>
 <circle style="fill:#df8e1d" cx="36" cy="36" r="11"/>
 <path style="fill:#eff1f5" d="m30 32v2h12v-2zm0 6v2h12v-2z"/>
 <path style="opacity:0.1;fill:#eff1f5" d="M 10 4 C 8.892 4 8 4.892 8 6 L 8 7 C 8 5.892 8.892 5 10 5 L 38 5 C 39.108 5 40 5.892 40 7 L 40 6 C 40 4.892 39.108 4 38 4 L 10 4 z"/>
</svg>
