<svg xmlns="http://www.w3.org/2000/svg" width="48" height="48" version="1">
 <rect style="opacity:0.2" width="40" height="40" x="4" y="5" rx="2" ry="2"/>
 <rect style="fill:#7287fd" width="40" height="40" x="4" y="4" rx="2" ry="2"/>
 <path fill="#eff1f5" opacity=".2" d="m4 7v-1c0-1.108 0.892-2 2-2h36c1.108 0 2 0.892 2 2v1c0-1.108-0.892-2-2-2h-36c-1.108 0-2 0.892-2 2z"/>
 <path style="opacity:0.2;fill:none;stroke:#eff1f5;stroke-width:4;stroke-linecap:round;stroke-linejoin:round" d="m 12.0001,15.999802 v 17 c 0,0 0.5,2.5 3,0 l 9,-11 9,11 c 2.5,2.5 3,0 3,0 l -2.09e-4,-17"/>
 <path style="fill:none;stroke:#eff1f5;stroke-width:4;stroke-linecap:round;stroke-linejoin:round" d="m 12.0001,14.999802 v 17 c 0,0 0.5,2.5 3,0 l 9,-11 9,11 c 2.5,2.5 3,0 3,0 l -2.09e-4,-17"/>
</svg>
