<svg xmlns="http://www.w3.org/2000/svg" height="64" width="64" version="1.1">
 <circle cx="32" cy="33" r="28" style="opacity:.2"/>
 <circle cx="32" cy="32" r="28" style="fill:#df8e1d"/>
 <path d="m32 4a28 28 0 0 0 -28 28 28 28 0 0 0 0.0215 0.586 28 28 0 0 1 27.9785 -27.586 28 28 0 0 1 27.979 27.414 28 28 0 0 0 0.021 -0.414 28 28 0 0 0 -28 -28z" style="opacity:.2;fill:#eff1f5"/>
 <path style="opacity:.1" d="m17 24v3l12 3v-3zm30 0-12 3v3l12-3zm-24 6a6 6 0 0 0 -6 6 6 6 0 0 0 6 6 6 6 0 0 0 6 -6 6 6 0 0 0 -6 -6zm18 0a6 6 0 0 0 -6 6 6 6 0 0 0 6 6 6 6 0 0 0 6 -6 6 6 0 0 0 -6 -6z"/>
 <path style="fill:#4c4f69" d="m17 23v3l12 3v-3l-12-3zm30 0l-12 3v3l12-3v-3zm-24 6a6 6 0 0 0 -6 6 6 6 0 0 0 6 6 6 6 0 0 0 6 -6 6 6 0 0 0 -6 -6zm18 0a6 6 0 0 0 -6 6 6 6 0 0 0 6 6 6 6 0 0 0 6 -6 6 6 0 0 0 -6 -6z"/>
 <path style="opacity:.2" d="m14.689453 11a28 28 0 0 0 -8.4316405 11h2.7421875v34h5v-34h43.714843a28 28 0 0 0 -8.443359 -11z"/>
 <path style="fill:#e64553" d="m14.689453 10a28 28 0 0 0 -8.4316405 11h2.7421875v34h5v-34h43.714844a28 28 0 0 0 -8.44336 -11h-34.582031z"/>
 <path style="opacity:.2;fill:#eff1f5" d="m14.689453 10a28 28 0 0 0 -8.4316405 11h0.4882813a28 28 0 0 1 7.9433592 -10h34.582031a28 28 0 0 1 7.955078 10h0.488282a28 28 0 0 0 -8.44336 -11h-34.582031z"/>
</svg>
