<svg xmlns="http://www.w3.org/2000/svg" height="64" width="64" version="1.1">
 <rect style="opacity:.2" ry="4" height="14" width="47" y="32" x="8"/>
 <rect style="fill:#d20f39" ry="4" height="14" width="47" y="31" x="8"/>
 <path style="opacity:.1;fill:#eff1f5" d="m12 31c-2.216 0-4 1.784-4 4v1c0-2.216 1.784-4 4-4h39c2.216 0 4 1.784 4 4v-1c0-2.216-1.784-4-4-4h-39z"/>
 <path style="opacity:.2" d="m32 5c-20 0-20 9-20 9v36l20 11 19-11v-36s0-9-19-9z"/>
 <path style="fill:#e64553" d="m32 4c-20 0-20 9-20 9v36l20 11 19-11v-36s0-9-19-9z"/>
 <path style="opacity:.2" d="m26 15v17h-14v14h14v11.699219l6 3.300781 6-3.474609v-11.525391h13v-14h-13v-17l-6 7z"/>
 <path style="fill:#eff1f5" d="m26 14v17h-14v14h14v11.699219l6 3.300781 6-3.474609v-11.525391h13v-14h-13v-17l-6 7-6-7z"/>
 <path style="fill:#4c4f69" d="m18.078125 33.384766a5 5 0 0 0 -3.078125 4.615234 5 5 0 0 0 5 5 5 5 0 0 0 5 -5l-6.921875-4.615234zm27.269531 0.207031l-7.347656 4.408203a5 5 0 0 0 5 5 5 5 0 0 0 5 -5 5 5 0 0 0 -2.652344 -4.408203z"/>
 <path style="opacity:.2;fill:#eff1f5" d="m32 4c-20 0-20 9-20 9v1s0-9 20-9c19 0 19 9 19 9v-1s0-9-19-9z"/>
</svg>
