<svg xmlns="http://www.w3.org/2000/svg" width="64" height="64" version="1.1">
 <circle style="opacity:0.2" cx="32" cy="33" r="28"/>
 <circle style="fill:#40a02b" cx="32" cy="32" r="28"/>
 <path style="opacity:0.1;fill:#eff1f5" d="M 32 4 A 28 28 0 0 0 4 32 A 28 28 0 0 0 4.0332031 32.482422 A 28 28 0 0 1 32 5 A 28 28 0 0 1 59.982422 32.242188 A 28 28 0 0 0 60 32 A 28 28 0 0 0 32 4 z"/>
 <path style="fill:none;stroke:#eff1f5;stroke-width:6;stroke-linecap:round;stroke-linejoin:round;opacity:0.1" d="M 12,13 H 23 L 12,24 V 38 L 37.6,13 H 52 L 12,53 H 27 L 52,28 V 42 L 41,53 h 11"/>
 <path style="fill:none;stroke:#4c4f69;stroke-width:6;stroke-linecap:round;stroke-linejoin:round" d="M 12,12 H 23 L 12,23 V 37 L 37.6,12 H 52 L 12,52 H 27 L 52,27 V 41 L 41,52 h 11"/>
</svg>
