<svg xmlns="http://www.w3.org/2000/svg" width="64" height="64" version="1">
 <rect style="opacity:0.2" width="56" height="56" x="4" y="5" rx="2.8" ry="2.8"/>
 <rect style="fill:#eff1f5" width="56" height="56" x="4" y="4" rx="2.8" ry="2.8"/>
 <path style="opacity:0.1" d="M 37.199218,22.054156 26,29.054156 V 34.144 l 11.199218,7 3.179688,-5.089844 L 33.25,31.60103 40.378906,27.144 Z m 14,0 -11.199218,7 V 34.144 l 11.199218,7 3.179688,-5.089844 L 47.25,31.60103 54.378906,27.144 Z M 10,23.999 v 6 h 14 v -6 z m 0,9 v 6 h 14 v -6 z"/>
 <path style="fill:none;stroke:#ea76cb;stroke-width:6;stroke-linejoin:bevel" d="m 52.789996,23.6 -11.2,7 11.2,7"/>
 <path style="fill:none;stroke:#8839ef;stroke-width:6;stroke-linejoin:bevel" d="m 38.789996,23.6 -11.2,7 11.2,7"/>
 <rect style="fill:#04a5e5" width="14" height="6" x="10" y="23"/>
 <rect style="fill:#04a5e5" width="14" height="6" x="10" y="32"/>
 <path style="opacity:0.2;fill:#eff1f5" d="M 6.8007812 4 C 5.2495812 4 4 5.2495812 4 6.8007812 L 4 7.8007812 C 4 6.2495813 5.2495812 5 6.8007812 5 L 57.199219 5 C 58.750419 5 60 6.2495812 60 7.8007812 L 60 6.8007812 C 60 5.2495813 58.750419 4 57.199219 4 L 6.8007812 4 z"/>
</svg>
