<svg xmlns="http://www.w3.org/2000/svg" width="64" height="64" version="1.1">
 <rect style="opacity:0.2" width="51" height="57" x="7" y="4" rx="4.25" ry="4.275"/>
 <rect style="fill:#1e66f5" width="51" height="57" x="7" y="3" rx="4.25" ry="4.275"/>
 <circle style="opacity:0.2" cx="32.5" cy="32.5" r="18.5"/>
 <path style="fill:#40a02b" d="M 32.5,31.5 H 14 C 14,21.282732 22.282732,13 32.5,13 Z"/>
 <path style="fill:#7287fd" d="M 32.5,31.5 H 14 C 14,41.717268 22.282732,50 32.5,50 Z"/>
 <path style="fill:#e64553" d="M 32.5,31.5 H 50.999998 C 50.999998,41.717268 42.717267,50 32.5,50 Z"/>
 <path style="fill:#40a02b" d="M 32.5,31.5 H 50.999998 C 50.999998,21.282732 42.717267,13 32.5,13 Z"/>
 <circle style="fill:#04a5e5" cx="32.5" cy="31.5" r="15.5"/>
 <circle style="fill:#1e66f5" cx="32.5" cy="31.5" r="8.5"/>
 <path style="opacity:0.2;fill:#eff1f5" d="M 32.5 13 A 18.5 18.5 0 0 0 14 31.5 A 18.5 18.5 0 0 0 14.021484 32.082031 A 18.5 18.5 0 0 1 32.5 14 A 18.5 18.5 0 0 1 50.978516 31.917969 A 18.5 18.5 0 0 0 51 31.5 A 18.5 18.5 0 0 0 32.5 13 z"/>
 <path style="opacity:0.1;fill:#eff1f5" d="M 11.25 3 C 8.8955 3 7 4.9070406 7 7.2753906 L 7 8.2753906 C 7 5.9070406 8.8955 4 11.25 4 L 53.75 4 C 56.1045 4 58 5.9070406 58 8.2753906 L 58 7.2753906 C 58 4.9070406 56.1045 3 53.75 3 L 11.25 3 z"/>
</svg>
