<svg xmlns="http://www.w3.org/2000/svg" width="64" height="64" version="1">
 <rect style="opacity:0.2" width="56" height="59" x="-61" y="-62" rx="2.8" ry="2.95" transform="matrix(0,-1,-1,0,0,0)"/>
 <rect style="fill:#4c4f69" width="56" height="59" x="-60" y="-62" rx="2.8" ry="2.95" transform="matrix(0,-1,-1,0,0,0)"/>
 <path style="fill:#40a02b" d="M 57,15 H 47 v 6 h 10 z"/>
 <path style="fill:#179299" d="M 57,24 H 47 v 6 h 10 z"/>
 <path style="fill:#1e66f5" d="M 57,33 H 47 v 6 h 10 z"/>
 <path style="fill:#df8e1d" d="M 18,42 H 8 v 6 h 10 z"/>
 <path style="fill:#dc8a78" d="M 31,42 H 21 v 6 h 10 z"/>
 <path style="fill:#1e66f5" d="M 57,42 H 47 v 6 h 10 z"/>
 <path style="fill:#8839ef" d="M 44,39 H 34 v -6 h 10 z"/>
 <path style="fill:#e64553" d="M 44,48 H 34 v -6 h 10 z"/>
 <path style="fill:#dc8a78" d="M 31,33 H 21 v 6 h 10 z"/>
 <path style="fill:#df8e1d" d="M 31,24 H 21 v 6 h 10 z"/>
 <path style="opacity:0.2" d="M 47 21 L 47 22 L 57 22 L 57 21 L 47 21 z M 21 30 L 21 31 L 31 31 L 31 30 L 21 30 z M 47 30 L 47 31 L 57 31 L 57 30 L 47 30 z M 21 39 L 21 40 L 31 40 L 31 39 L 21 39 z M 34 39 L 34 40 L 44 40 L 44 39 L 34 39 z M 47 39 L 47 40 L 57 40 L 57 39 L 47 39 z M 8 48 L 8 49 L 18 49 L 18 48 L 8 48 z M 21 48 L 21 49 L 31 49 L 31 48 L 21 48 z M 34 48 L 34 49 L 44 49 L 44 48 L 34 48 z M 47 48 L 47 49 L 57 49 L 57 48 L 47 48 z"/>
 <path style="fill:#eff1f5;opacity:0.1" d="M 5.9492188 4 C 4.3149189 4 3 5.2495813 3 6.8007812 L 3 7.8007812 C 3 6.2495813 4.3149189 5 5.9492188 5 L 59.050781 5 C 60.685081 5 62 6.2495813 62 7.8007812 L 62 6.8007812 C 62 5.2495813 60.685081 4 59.050781 4 L 5.9492188 4 z"/>
</svg>
