<svg xmlns="http://www.w3.org/2000/svg" width="64" height="64" version="1.1">
 <circle style="opacity:0.2" cx="32" cy="33" r="28"/>
 <circle style="fill:#8839ef" cx="32" cy="32" r="28"/>
 <path style="opacity:0.1;fill:#eff1f5" d="M 32,4 A 28,28 0 0 0 4,32 28,28 0 0 0 4.0215,32.586 28,28 0 0 1 32,5 28,28 0 0 1 59.979,32.414 28,28 0 0 0 60,32 28,28 0 0 0 32,4 Z"/>
 <ellipse style="opacity:0.2" cx="15" cy="38.5" rx="9" ry="11.5"/>
 <ellipse style="fill:#eff1f5" cx="15" cy="37.5" rx="9" ry="11.5"/>
 <ellipse style="fill:#40a02b" cx="17" cy="37" rx="4" ry="5"/>
 <ellipse style="opacity:0.2" cx="31" cy="37" rx="11" ry="13"/>
 <ellipse style="fill:#eff1f5" cx="31" cy="36" rx="11" ry="13"/>
 <ellipse style="fill:#40a02b" cx="34" cy="34.5" rx="5" ry="5.5"/>
 <ellipse style="fill:#4c4f69" cx="34" cy="34.5" rx="2" ry="2.5"/>
 <ellipse style="fill:#4c4f69" cx="17.5" cy="37" rx="1.5" ry="2"/>
</svg>
