<svg xmlns="http://www.w3.org/2000/svg" width="64" height="64" version="1.1">
 <circle style="opacity:0.2" cx="32" cy="33" r="28"/>
 <circle style="fill:#df8e1d" cx="32" cy="32" r="28"/>
 <path style="opacity:0.2;fill:#eff1f5" d="M 32,4 A 28,28 0 0 0 4,32 28,28 0 0 0 4.0215,32.586 28,28 0 0 1 32,5 28,28 0 0 1 59.979,32.414 28,28 0 0 0 60,32 28,28 0 0 0 32,4 Z"/>
 <path d="M 16.537109 40 A 16 16 0 0 0 32 52 A 16 16 0 0 0 47.462891 40 L 16.537109 40 z"/>
 <ellipse style="opacity:0.2" cx="22" cy="24" rx="6" ry="7"/>
 <ellipse style="fill:#eff1f5" cx="22" cy="23" rx="6" ry="7"/>
 <ellipse style="opacity:0.2" cx="42" cy="24" rx="6" ry="7"/>
 <ellipse style="fill:#eff1f5" cx="42" cy="23" rx="6" ry="7"/>
 <circle cx="23" cy="25" r="3"/>
 <circle cx="41" cy="25" r="3"/>
 <rect style="fill:#eff1f5" width="24" height="2" x="20" y="40"/>
 <ellipse style="fill:#e64553" cx="32" cy="50.5" rx="5" ry="1.5"/>
</svg>
