<svg xmlns="http://www.w3.org/2000/svg" width="64" height="64" version="1">
 <rect style="opacity:0.2" width="56" height="56" x="4" y="5" rx="4.2" ry="4.2"/>
 <rect style="fill:#d20f39" width="56" height="56" x="4" y="4" rx="4.2" ry="4.2"/>
 <path style="opacity:0.2" d="M 54,54.988305 43.001429,44 v 10.988305 z"/>
 <path style="fill:#40a02b" d="M 54,53.988305 43.001429,43 v 10.988305 z"/>
 <path style="opacity:0.2" d="M 43,33 54,22 H 43 Z"/>
 <path style="fill:#04a5e5" d="M 43,32 54,21 H 43 Z"/>
 <rect style="fill:#d20f39" width="11" height="25.2" x="21" y="19.4"/>
 <path style="opacity:0.2" d="M 10,11 32,33 V 11 Z"/>
 <path style="fill:#df8e1d" d="M 10,10 32,32 V 10 Z"/>
 <path style="opacity:0.2" d="M 32,33 10,55 h 22 z"/>
 <path style="fill:#df8e1d" d="M 32,32 10,54 h 22 z"/>
 <path style="fill:#209fb5" d="M 54,43 43,32 v 11 z"/>
 <path style="opacity:0.2" d="M 43,44.011701 53.998569,55 V 44.011701 Z"/>
 <path style="fill:#40a02b" d="M 43,43.011701 53.998569,54 V 43.011701 Z"/>
 <path style="opacity:0.2" d="M 43,22 32,33 h 11 z"/>
 <path style="fill:#40a02b" d="M 43,21 32,32 h 11 z"/>
 <path style="opacity:0.2" d="M 54,11 43,22 h 11 z"/>
 <path style="fill:#179299" d="M 54,10 43,21 h 11 z"/>
 <path style="fill:#eff1f5;opacity:0.1" d="M 8.1992188 4 C 5.8724189 4 4 5.8724189 4 8.1992188 L 4 9.1992188 C 4 6.8724189 5.8724189 5 8.1992188 5 L 55.800781 5 C 58.127581 5 60 6.8724189 60 9.1992188 L 60 8.1992188 C 60 5.8724189 58.127581 4 55.800781 4 L 8.1992188 4 z"/>
 <path style="opacity:0.2;fill:#eff1f5" d="M 10 10 L 11 11 L 32 11 L 32 10 L 10 10 z M 54 10 L 43 21 L 44 21 L 54 11 L 54 10 z M 43 21 L 32 32 L 33 32 L 43 22 L 43 21 z M 31.5 32.5 L 10 54 L 11 54 L 32 33 L 31.5 32.5 z M 43 43.011719 L 44 44.011719 L 53.998047 44.011719 L 53.998047 43.011719 L 43 43.011719 z"/>
 <path style="opacity:0.1;fill:#eff1f5" d="M 43 32 L 43 33 L 53 43 L 54 43 L 43 32 z"/>
</svg>
