<svg width="64" height="64" version="1.1" xmlns="http://www.w3.org/2000/svg">
 <circle cx="32" cy="33" r="28" style="opacity:.2"/>
 <circle cx="32" cy="32" r="28" style="fill:#eff1f5"/>
 <path d="M 32,4 A 28,28 0 0 0 4,32 28,28 0 0 0 4.0215,32.586 28,28 0 0 1 32,5 28,28 0 0 1 59.979,32.414 28,28 0 0 0 60,32 28,28 0 0 0 32,4 Z" style="fill:#eff1f5;opacity:.2"/>
 <circle cx="25" cy="23" r="8" style="opacity:.1"/>
 <circle cx="25" cy="22" r="8" style="fill:#04a5e5"/>
 <circle cx="44" cy="35" r="8" style="opacity:.1"/>
 <circle cx="44" cy="34" r="8" style="fill:#40a02b"/>
 <circle cx="25" cy="44" r="8" style="opacity:.1"/>
 <circle cx="25" cy="43" r="8" style="fill:#e64553"/>
</svg>
