<svg xmlns="http://www.w3.org/2000/svg" width="64" height="64" version="1">
 <rect style="opacity:0.2" width="54" height="54" x="-60" y="-59" rx="6" ry="6" transform="matrix(0,-1,-1,0,0,0)"/>
 <rect style="fill:#40a02b" width="6" height="6" x="5" y="17" ry="0"/>
 <rect style="fill:#df8e1d" width="6" height="6" x="11" y="35" ry="0"/>
 <rect style="fill:#df8e1d" width="6" height="6" x="-35" y="35" ry="0" transform="scale(-1,1)"/>
 <rect style="fill:#df8e1d" width="6" height="6" x="-29" y="35" ry="0" transform="scale(-1,1)"/>
 <rect style="fill:#df8e1d" width="6" height="6" x="-35" y="29" ry="0" transform="scale(-1,1)"/>
 <rect style="fill:#df8e1d" width="6" height="6" x="23" y="29" ry="0"/>
 <rect style="fill:#df8e1d" width="6" height="6" x="-29" y="23" ry="0" transform="scale(-1,1)"/>
 <rect style="fill:#40a02b" width="6" height="6" x="53" y="11" ry="0"/>
 <path style="fill:#40a02b" d="m 11,5 v 6 H 5 C 5,5 11,5 11,5 Z"/>
 <rect style="fill:#df8e1d" width="6" height="6" x="-41" y="-47" ry="0" transform="scale(-1)"/>
 <rect style="fill:#df8e1d" width="6" height="6" x="17" y="35" ry="0"/>
 <rect style="fill:#df8e1d" width="6" height="6" x="17" y="29" ry="0"/>
 <rect style="fill:#5c5f77" width="6" height="6" x="-41" y="29" ry="0" transform="scale(-1,1)"/>
 <rect style="fill:#df8e1d" width="6" height="6" x="35" y="23" ry="0"/>
 <rect style="fill:#40a02b" width="6" height="6" x="-23" y="17" ry="0" transform="scale(-1,1)"/>
 <rect style="fill:#df8e1d" width="6" height="6" x="-47" y="35" ry="0" transform="scale(-1,1)"/>
 <rect style="fill:#40a02b" width="6" height="6" x="11" y="11" ry="0"/>
 <rect style="fill:#40a02b" width="6" height="6" x="29" y="17" ry="0"/>
 <rect style="fill:#40a02b" width="6" height="6" x="35" y="17" ry="0"/>
 <rect style="fill:#40a02b" width="6" height="6" x="41" y="17" ry="0"/>
 <rect style="fill:#40a02b" width="6" height="6" x="-47" y="23" ry="0" transform="scale(-1,1)"/>
 <rect style="fill:#df8e1d" width="6" height="6" x="-17" y="29" ry="0" transform="scale(-1,1)"/>
 <rect style="fill:#40a02b" width="6" height="6" x="-29" y="17" ry="0" transform="scale(-1,1)"/>
 <rect style="fill:#40a02b" width="6" height="6" x="-11" y="11" ry="0" transform="scale(-1,1)"/>
 <rect style="fill:#df8e1d" width="6" height="6" x="-53" y="53" ry="0" transform="scale(-1,1)"/>
 <rect style="fill:#df8e1d" width="6" height="6" x="23" y="53" ry="0"/>
 <rect style="fill:#df8e1d" width="6" height="6" x="29" y="53" ry="0"/>
 <rect style="fill:#df8e1d" width="6" height="6" x="17" y="-59" ry="0" transform="scale(1,-1)"/>
 <rect style="fill:#df8e1d" width="6" height="6" x="-41" y="-59" ry="0" transform="scale(-1)"/>
 <rect style="fill:#df8e1d" width="6" height="6" x="17" y="47" ry="0"/>
 <rect style="fill:#5c5f77" width="6" height="6" x="23" y="47" ry="0"/>
 <rect style="fill:#df8e1d" width="6" height="6" x="35" y="47" ry="0"/>
 <rect style="fill:#df8e1d" width="6" height="6" x="29" y="47" ry="0"/>
 <rect style="fill:#df8e1d" width="6" height="6" x="47" y="47" ry="0"/>
 <rect style="fill:#5c5f77" width="6" height="6" x="-17" y="-53" ry="0" transform="scale(-1)"/>
 <rect style="fill:#df8e1d" width="6" height="6" x="11" y="-59" ry="0" transform="scale(1,-1)"/>
 <rect style="fill:#df8e1d" width="6" height="6" x="-53" y="35" ry="0" transform="scale(-1,1)"/>
 <rect style="fill:#df8e1d" width="6" height="6" x="-53" y="29" ry="0" transform="scale(-1,1)"/>
 <rect style="fill:#40a02b" width="6" height="6" x="47" y="5" ry="0"/>
 <rect style="fill:#40a02b" width="6" height="6" x="47" y="17" ry="0"/>
 <rect style="fill:#40a02b" width="6" height="6" x="-47" y="5" ry="0" transform="scale(-1,1)"/>
 <rect style="fill:#40a02b" width="6" height="6" x="35" y="5" ry="0"/>
 <rect style="fill:#40a02b" width="6" height="6" x="11" y="5" ry="0"/>
 <rect style="fill:#40a02b" width="6" height="6" x="17" y="5" ry="0"/>
 <rect style="fill:#40a02b" width="6" height="6" x="29" y="5" ry="0"/>
 <rect style="fill:#40a02b" width="6" height="6" x="23" y="5" ry="0"/>
 <rect style="fill:#df8e1d" width="6" height="6" x="-11" y="-29" ry="0" transform="scale(-1)"/>
 <rect style="fill:#df8e1d" width="6" height="6" x="5" y="-53" ry="0" transform="scale(1,-1)"/>
 <rect style="fill:#df8e1d" width="6" height="6" x="5" y="35" ry="0"/>
 <rect style="fill:#df8e1d" width="6" height="6" x="5" y="29" ry="0"/>
 <rect style="fill:#df8e1d" width="6" height="6" x="-23" y="23" ry="0" transform="scale(-1,1)"/>
 <rect style="fill:#40a02b" width="6" height="6" x="41" y="11" ry="0"/>
 <rect style="fill:#40a02b" width="6" height="6" x="47" y="11" ry="0"/>
 <rect style="fill:#40a02b" width="6" height="6" x="-35" y="11" ry="0" transform="scale(-1,1)"/>
 <rect style="fill:#40a02b" width="6" height="6" x="35" y="11" ry="0"/>
 <path style="fill:#40a02b" d="m 53,5 c 0,0 6,0 6,6 h -6 z"/>
 <rect style="fill:#40a02b" width="6" height="6" x="-23" y="11" ry="0" transform="scale(-1,1)"/>
 <rect style="fill:#40a02b" width="6" height="6" x="53" y="23" ry="0"/>
 <rect style="fill:#40a02b" width="6" height="6" x="23" y="11" ry="0"/>
 <rect style="fill:#df8e1d" width="6" height="6" x="-23" y="41" ry="0" transform="scale(-1,1)"/>
 <rect style="fill:#df8e1d" width="6" height="6" x="11" y="-47" ry="0" transform="scale(1,-1)"/>
 <rect style="fill:#df8e1d" width="6" height="6" x="23" y="-47" ry="0" transform="scale(1,-1)"/>
 <rect style="fill:#df8e1d" width="6" height="6" x="29" y="-47" ry="0" transform="scale(1,-1)"/>
 <rect style="fill:#df8e1d" width="6" height="6" x="41" y="-35" ry="0" transform="scale(1,-1)"/>
 <rect style="fill:#df8e1d" width="6" height="6" x="53" y="-35" ry="0" transform="scale(1,-1)"/>
 <path style="fill:#df8e1d" d="M 11,59 V 53 H 5 c 0,0 0,6 6,6 z"/>
 <rect style="fill:#5c5f77" width="6" height="6" x="-11" y="41" ry="0" transform="scale(-1,1)"/>
 <rect style="fill:#5c5f77" width="6" height="6" x="-41" y="29" ry="0" transform="scale(-1,1)"/>
 <rect style="fill:#5c5f77" width="6" height="6" x="-17" y="23" ry="0" transform="scale(-1,1)"/>
 <rect style="fill:#5c5f77" width="6" height="6" x="-53" y="-29" ry="0" transform="scale(-1)"/>
 <rect style="fill:#df8e1d" width="6" height="6" x="-59" y="17" ry="0" transform="scale(-1,1)"/>
 <rect style="fill:#df8e1d" width="6" height="6" x="41" y="53" ry="0"/>
 <rect style="fill:#df8e1d" width="6" height="6" x="-47" y="41" ry="0" transform="scale(-1,1)"/>
 <rect style="fill:#df8e1d" width="6" height="6" x="-59" y="41" ry="0" transform="scale(-1,1)"/>
 <rect style="fill:#df8e1d" width="6" height="6" x="-17" y="-23" ry="0" transform="scale(-1)"/>
 <rect style="fill:#5c5f77" width="6" height="6" x="47" y="41" ry="0"/>
 <rect style="fill:#df8e1d" width="6" height="6" x="-35" y="23" ry="0" transform="scale(-1,1)"/>
 <rect style="fill:#df8e1d" width="6" height="6" x="53" y="47" ry="0"/>
 <path style="fill:#5c5f77" d="m 53,53 h 6 c 0,6 -6,6 -6,6 z"/>
 <rect style="fill:#df8e1d" width="6" height="6" x="35" y="35" ry="0"/>
 <rect style="fill:#df8e1d" width="6" height="6" x="53" y="-41" ry="0" transform="scale(1,-1)"/>
 <rect style="fill:#df8e1d" width="6" height="6" x="41" y="-53" ry="0" transform="scale(1,-1)"/>
 <path style="opacity:0.2;fill:#eff1f5" d="M 11 5 C 7.676 5 5 7.676 5 11 L 5 12 C 5 8.676 7.676 6 11 6 L 53 6 C 56.324 6 59 8.676 59 12 L 59 11 C 59 7.676 56.324 5 53 5 L 11 5 z"/>
</svg>
