<svg xmlns="http://www.w3.org/2000/svg" width="64" height="64" version="1">
 <circle style="opacity:0.2" cx="32" cy="33" r="28"/>
 <circle style="fill:#eff1f5" cx="32" cy="32" r="28"/>
 <g style="opacity:0.1" transform="translate(0,1.000148)">
  <path d="m 24,36.5 3e-6,-9 L 32.000001,23 40,27.5 l -3e-6,9 -7.999998,4.5 z"/>
  <path d="m 33.085432,12.713148 v 7.911743 l 8.265793,4.486947 6.888162,-4.132897 z"/>
  <path d="m 30.330167,12.713148 v 7.911743 l -8.265794,4.486947 -6.888161,-4.132897 z"/>
  <path d="m 49.5812,23.009572 -6.852342,3.955183 0.247973,9.402339 L 50,40.265793 Z"/>
  <path d="m 14.418497,23.009572 6.852067,3.95601 -0.247396,9.40165 -7.023167,3.898699 z"/>
  <path d="M 33.085432,51.286852 V 43.37511 l 8.265793,-4.486948 6.888162,4.132897 z"/>
  <path d="M 30.330167,51.286852 V 43.37511 l -8.265794,-4.486948 -6.888161,4.132897 z"/>
 </g>
 <g>
  <path style="fill:#df8e1d" d="m 24,36.5 3e-6,-9 L 32.000001,23 40,27.5 l -3e-6,9 -7.999998,4.5 z"/>
  <path style="fill:#40a02b" d="m 33.085432,12.713148 v 7.911743 l 8.265793,4.486947 6.888162,-4.132897 z"/>
  <path style="fill:#04a5e5" d="m 30.330167,12.713148 v 7.911743 l -8.265794,4.486947 -6.888161,-4.132897 z"/>
  <path style="fill:#df8e1d" d="m 49.5812,23.009572 -6.852342,3.955183 0.247973,9.402339 L 50,40.265793 Z"/>
  <path style="fill:#8839ef" d="m 14.418497,23.009572 6.852067,3.95601 -0.247396,9.40165 -7.023167,3.898699 z"/>
  <path style="fill:#d20f39" d="M 33.085432,51.286852 V 43.37511 l 8.265793,-4.486948 6.888162,4.132897 z"/>
  <path style="fill:#ea76cb" d="M 30.330167,51.286852 V 43.37511 l -8.265794,-4.486948 -6.888161,4.132897 z"/>
 </g>
 <path style="opacity:0.2;fill:#eff1f5" d="M 32 4 A 28 28 0 0 0 4 32 A 28 28 0 0 0 4.0214844 32.585938 A 28 28 0 0 1 32 5 A 28 28 0 0 1 59.978516 32.414062 A 28 28 0 0 0 60 32 A 28 28 0 0 0 32 4 z"/>
</svg>
