<svg xmlns="http://www.w3.org/2000/svg" width="64" height="64" version="1.1">
 <circle style="opacity:0.2" cx="32" cy="33" r="28"/>
 <circle style="fill:#dc8a78" cx="32" cy="32" r="27.3"/>
 <path style="fill:#df8e1d" d="m 12.334375,51.832422 a 28,28 0 0 0 9.748047,6.278126 v -6.278126 z"/>
 <path style="fill:#df8e1d" d="m 22.082422,51.832422 v 6.278126 A 28,28 0 0 0 32,60 v -8.167578 z"/>
 <path style="fill:#df8e1d" d="M 32,51.832422 V 60 a 28,28 0 0 0 9.917578,-1.889452 v -6.278126 z"/>
 <path style="fill:#df8e1d" d="m 41.917578,51.832422 v 6.278126 a 28,28 0 0 0 9.748046,-6.278126 z"/>
 <path style="fill:#df8e1d" d="m 51.832422,41.917578 v 9.748046 a 28,28 0 0 0 6.278126,-9.748046 z"/>
 <path style="fill:#df8e1d" d="m 41.923048,41.91211 v 9.914842 h 9.748046 a 28,28 0 0 0 0.1668,-0.1668 v -9.748046 z"/>
 <rect style="fill:#df8e1d" width="9.916" height="9.916" x="-41.91" y="41.91" transform="scale(-1,1)"/>
 <rect style="fill:#df8e1d" width="9.916" height="9.916" x="-32" y="41.91" transform="scale(-1,1)"/>
 <path style="fill:#df8e1d" d="m 12.173047,41.91211 v 9.758984 a 28,28 0 0 0 0.15586,0.15586 h 9.758983 v -9.914842 z"/>
 <path style="fill:#df8e1d" d="m 5.8894532,41.917578 a 28,28 0 0 0 6.2781248,9.748046 v -9.748046 z"/>
 <path style="fill:#dc8a78" d="m 4,32 a 28,28 0 0 0 1.8894532,9.917578 H 12.167578 V 32 Z"/>
 <rect style="fill:#dc8a78" width="9.916" height="9.916" x="12.16" y="32"/>
 <rect style="fill:#dc8a78" width="9.916" height="9.916" x="22.09" y="32"/>
 <rect style="fill:#dc8a78" width="9.916" height="9.916" x="32" y="32"/>
 <rect style="fill:#dc8a78" width="9.916" height="9.916" x="41.91" y="32"/>
 <path style="fill:#dc8a78" d="m 51.832422,32 v 9.917578 h 6.278126 A 28,28 0 0 0 60,32 Z"/>
 <path style="fill:#dc8a78" d="M 51.832422,22.082422 V 32 H 60 a 28,28 0 0 0 -1.823828,-9.917578 z"/>
 <rect style="fill:#dc8a78" width="9.916" height="9.916" x="-51.84" y="22.09" transform="scale(-1,1)"/>
 <rect style="fill:#dc8a78" width="9.916" height="9.916" x="-41.91" y="22.09" transform="scale(-1,1)"/>
 <rect style="fill:#dd7878" width="9.916" height="9.916" x="-32" y="22.09" transform="scale(-1,1)"/>
 <rect style="fill:#dd7878" width="9.916" height="9.916" x="-22.09" y="22.09" transform="scale(-1,1)"/>
 <path style="fill:#dd7878" d="M 5.8894532,22.082422 A 28,28 0 0 0 4,32 h 8.167578 v -9.917578 z"/>
 <path style="fill:#dd7878" d="M 12.167578,12.334375 A 28,28 0 0 0 5.8894532,22.082422 H 12.167578 Z"/>
 <path style="fill:#dd7878" d="m 12.339844,12.162109 a 28,28 0 0 0 -0.177734,0.177734 v 9.737109 h 9.914842 v -9.914843 z"/>
 <rect style="fill:#dd7878" width="9.916" height="9.916" x="22.09" y="12.16"/>
 <rect style="fill:#dd7878" width="9.916" height="9.916" x="32" y="12.16"/>
 <path style="fill:#dd7878" d="m 41.91211,12.162109 v 9.914843 h 9.914842 v -9.846483 a 28,28 0 0 0 -0.06836,-0.06836 z"/>
 <path style="fill:#dd7878" d="m 51.832422,12.235937 v 9.846485 h 6.34375 a 28,28 0 0 0 -6.34375,-9.846485 z"/>
 <path style="fill:#dd7878" d="m 41.917578,5.8238282 v 6.3437498 h 9.846486 A 28,28 0 0 0 41.917578,5.8238282 Z"/>
 <path style="fill:#dd7878" d="m 32,4 v 8.167578 h 9.917578 V 5.8238282 A 28,28 0 0 0 32,4 Z"/>
 <path style="fill:#ea76cb" d="M 32,4 A 28,28 0 0 0 22.082422,5.8894532 V 12.167578 H 32 Z"/>
 <path style="fill:#ea76cb" d="m 22.082422,5.8894532 a 28,28 0 0 0 -9.748047,6.2781248 h 9.748047 z"/>
 <path style="opacity:0.2;fill:#eff1f5" d="M 32 4 A 28 28 0 0 0 4 32 A 28 28 0 0 0 4.0332031 32.482422 A 28 28 0 0 1 32 5 A 28 28 0 0 1 59.982422 32.242188 A 28 28 0 0 0 60 32 A 28 28 0 0 0 32 4 z"/>
</svg>
