<svg xmlns="http://www.w3.org/2000/svg" width="64" height="64" version="1">
 <path style="opacity:.2" d="m24 19v37.8c0 2.3268 1.8955 4.2 4.25 4.2h8.5c2.354501 0 4.250001-1.8732 4.250001-4.2v-37.8z"/>
 <path style="opacity:.2" d="m7 19v37.8c0 2.3268 1.8955001 4.2 4.25 4.2h8.5c2.354501 0 4.250001-1.8732 4.250001-4.2v-37.8z"/>
 <path style="opacity:.2" d="m41 19v37.8c0 2.3268 1.8955 4.2 4.25 4.2h8.5c2.354501 0 4.250001-1.8732 4.250001-4.2v-37.8z"/>
 <path style="fill:#df8e1d" d="m24 18v37.8c0 2.3268 1.8955 4.2 4.25 4.2h8.5c2.354501 0 4.250001-1.8732 4.250001-4.2v-37.8z"/>
 <path style="fill:#dc8a78" d="m28.25 11-4.25 7h17.000001l-4.250001-7z"/>
 <path style="opacity:.2" d="m32.5 5-4.25 7h8.5z"/>
 <path style="fill:#df8e1d" d="m32.5 4-4.25 7h8.5z"/>
 <rect style="opacity:.1" width="5" height="42" x="30" y="18"/>
 <path style="fill:#e64553" d="m7 18v37.8c0 2.3268 1.8955001 4.2 4.25 4.2h8.5c2.354501 0 4.250001-1.8732 4.250001-4.2v-37.8z"/>
 <path style="fill:#dc8a78" d="m11.25 11-4.25 7h17.000001l-4.250001-7z"/>
 <path style="opacity:.2" d="m15.5 5-4.25 7h8.5z"/>
 <path style="fill:#e64553" d="m15.5 4-4.25 7h8.5z"/>
 <rect style="opacity:.1" width="5" height="42" x="13" y="18"/>
 <path style="fill:#7287fd" d="m41 18v37.8c0 2.3268 1.8955 4.2 4.25 4.2h8.5c2.354501 0 4.250001-1.8732 4.250001-4.2v-37.8z"/>
 <path style="fill:#dc8a78" d="m45.25 11-4.25 7h17.000001l-4.250001-7z"/>
 <path style="opacity:.2" d="m49.5 5-4.25 7h8.5z"/>
 <path style="fill:#7287fd" d="m49.5 4-4.25 7h8.5z"/>
 <rect style="opacity:.1" width="5" height="42" x="47" y="18"/>
 <path style="fill:#eff1f5;opacity:.2" d="m32.5 4-4.25 7h0.607422l3.642578-6 3.642578 6h0.607422l-4.25-7z"/>
 <path style="fill:#eff1f5;opacity:.2" d="m15.5 4-4.25 7h0.607422l3.642578-6 3.642578 6h0.607422l-4.25-7z"/>
 <path style="fill:#eff1f5;opacity:.2" d="m49.5 4-4.25 7h0.607422l3.642578-6 3.642578 6h0.607422l-4.25-7z"/>
 <rect style="fill:#eff1f5;opacity:.2" width="51" height="1" x="7" y="18"/>
</svg>
