<svg xmlns="http://www.w3.org/2000/svg" width="64" height="64" version="1.1">
 <circle style="opacity:0.2" cx="32" cy="33" r="28"/>
 <circle style="fill:#4c4f69" cx="32" cy="32" r="28"/>
 <circle style="fill:#4c4f69" cx="32" cy="32" r="21"/>
 <path style="opacity:0.1;fill:#eff1f5" d="M 32,4 A 28,28 0 0 0 4,32 28,28 0 0 0 4.0215,32.586 28,28 0 0 1 32,5 28,28 0 0 1 59.979,32.414 28,28 0 0 0 60,32 28,28 0 0 0 32,4 Z"/>
 <circle style="opacity:0.2" cx="18" cy="18" r="4"/>
 <circle style="fill:#eff1f5" cx="18" cy="17" r="4"/>
</svg>
