<svg xmlns="http://www.w3.org/2000/svg" width="64" height="64" version="1">
 <circle style="opacity:0.2" cx="32" cy="33" r="28"/>
 <circle style="fill:#eff1f5" cx="32" cy="32" r="28"/>
 <circle style="fill:#4c4f69" cx="32" cy="32" r="24"/>
 <circle style="opacity:0.4" cx="32" cy="32" r="21"/>
 <circle style="fill:#ea76cb" cx="32" cy="32" r="17.997"/>
 <path style="fill:#8839ef" d="M 32,20 A 12,12 0 0 0 20,32 12,12 0 0 0 32,44 12,12 0 0 0 44,32 12,12 0 0 0 32,20 Z M 32,24 A 8,8 0 0 1 40,32 8,8 0 0 1 32,40 8,8 0 0 1 24,32 8,8 0 0 1 32,24 Z"/>
 <circle style="fill:#ea76cb" cx="25" cy="25" r="5"/>
 <circle style="fill:#dce0e8" cx="40" cy="40" r="4"/>
 <circle style="fill:#04a5e5" cx="34" cy="34" r="3"/>
 <path style="fill:#eff1f5;opacity:0.2" d="M 32 4 A 28 28 0 0 0 4 32 A 28 28 0 0 0 4.0352 32.5 A 28 28 0 0 1 32 5 A 28 28 0 0 1 59.982 32.252 A 28 28 0 0 0 60 32 A 28 28 0 0 0 32 4 z"/>
</svg>
