<svg xmlns="http://www.w3.org/2000/svg" width="64" height="64" version="1.1">
 <circle style="opacity:0.2" cx="32" cy="33" r="28"/>
 <circle style="fill:#40a02b" cx="32" cy="32" r="28"/>
 <circle style="opacity:0.2" cx="34" cy="31" r="22"/>
 <circle style="fill:#eff1f5" cx="34" cy="30" r="22"/>
 <path style="fill:#40a02b" d="M 28,17 V 43 L 50,29.999998 Z"/>
 <path style="opacity:0.1;fill:#eff1f5" d="M 32 4 A 28 28 0 0 0 4 32 A 28 28 0 0 0 4.0332031 32.482422 A 28 28 0 0 1 32 5 A 28 28 0 0 1 59.982422 32.242188 A 28 28 0 0 0 60 32 A 28 28 0 0 0 32 4 z"/>
</svg>
