<svg xmlns="http://www.w3.org/2000/svg" width="64" height="64" version="1">
 <rect style="opacity:0.2" width="56" height="56" x="4" y="5" rx="2.8" ry="2.8"/>
 <rect style="fill:#8839ef" width="56" height="56" x="4" y="4" rx="2.8" ry="2.8"/>
 <rect style="fill:#40a02b" width="6" height="6" x="14" y="32"/>
 <rect style="fill:#e64553" width="6" height="6" x="20" y="32"/>
 <rect style="fill:#7287fd" width="6" height="6" x="26" y="32"/>
 <rect style="fill:#eff1f5" width="6" height="6" x="32" y="32"/>
 <rect style="fill:#df8e1d" width="6" height="6" x="38" y="32"/>
 <rect style="fill:#eff1f5" width="6" height="6" x="44" y="32"/>
 <rect style="fill:#7287fd" width="6" height="6" x="14" y="26"/>
 <rect style="fill:#eff1f5" width="6" height="6" x="20" y="26"/>
 <rect style="fill:#40a02b" width="6" height="6" x="26" y="26"/>
 <rect style="fill:#eff1f5" width="6" height="6" x="32" y="26"/>
 <rect style="fill:#eff1f5" width="6" height="6" x="38" y="26"/>
 <rect style="fill:#7287fd" width="6" height="6" x="44" y="26"/>
 <rect style="fill:#eff1f5" width="6" height="6" x="14" y="20"/>
 <rect style="fill:#40a02b" width="6" height="6" x="20" y="20"/>
 <rect style="fill:#df8e1d" width="6" height="6" x="26" y="20"/>
 <rect style="fill:#ea76cb" width="6" height="6" x="32" y="20"/>
 <rect style="fill:#40a02b" width="6" height="6" x="38" y="20"/>
 <rect style="fill:#df8e1d" width="6" height="6" x="20" y="38"/>
 <rect style="fill:#ea76cb" width="6" height="6" x="26" y="38"/>
 <rect style="fill:#e64553" width="6" height="6" x="32" y="38"/>
 <rect style="fill:#40a02b" width="6" height="6" x="38" y="38"/>
 <rect style="fill:#e64553" width="6" height="6" x="44" y="38"/>
 <rect style="fill:#7287fd" width="6" height="6" x="26" y="44"/>
 <rect style="fill:#eff1f5" width="6" height="6" x="32" y="44"/>
 <rect style="fill:#40a02b" width="6" height="6" x="38" y="44"/>
 <rect style="fill:#ea76cb" width="6" height="6" x="44" y="44"/>
 <rect style="fill:#df8e1d" width="6" height="6" x="14" y="14"/>
 <rect style="fill:#e64553" width="6" height="6" x="20" y="14"/>
 <rect style="fill:#40a02b" width="6" height="6" x="26" y="14"/>
 <rect style="fill:#7287fd" width="6" height="6" x="32" y="14"/>
 <rect style="opacity:0.2" width="24" height="1" x="14" y="20"/>
 <rect style="opacity:0.2" width="30" height="1" x="14" y="26"/>
 <rect style="opacity:0.2" width="36" height="1" x="14" y="32"/>
 <rect style="opacity:0.2" width="36" height="1" x="14" y="38"/>
 <rect style="opacity:0.2" width="30" height="1" x="20" y="44"/>
 <rect style="opacity:0.2" width="24" height="1" x="26" y="50"/>
 <path style="opacity:0.1;fill:#eff1f5" d="M 6.8007812 4 C 5.2495812 4 4 5.2495812 4 6.8007812 L 4 7.8007812 C 4 6.2495813 5.2495812 5 6.8007812 5 L 57.199219 5 C 58.750419 5 60 6.2495812 60 7.8007812 L 60 6.8007812 C 60 5.2495813 58.750419 4 57.199219 4 L 6.8007812 4 z"/>
</svg>
