<svg xmlns="http://www.w3.org/2000/svg" width="64" height="64" version="1.1">
 <circle style="opacity:0.2" cx="32" cy="33" r="28"/>
 <path style="fill:#179299" d="M 32,4 A 28,28 0 0 1 60,32 H 32 Z"/>
 <path style="fill:#40a02b" d="M 32,60 A 28,28 0 0 1 4,32 h 28 z"/>
 <path style="fill:#7287fd" d="M 32,4 A 28,28 0 0 0 4,32 h 28 z"/>
 <path style="fill:#04a5e5" d="M 32,60 A 28,28 0 0 0 60,32 H 32 Z"/>
 <path style="fill:#7287fd" d="M 4,32 9.0000002,36 14,32 Z"/>
 <path style="fill:#04a5e5" d="M 60,32 55.000002,28 50,32 Z"/>
 <path style="fill:#40a02b" d="M 32,60 36,55.000002 32,50 Z"/>
 <path style="fill:#179299" d="M 32,4 28,9.0000002 32,14 Z"/>
 <circle style="opacity:0.2" cx="32" cy="33" r="18"/>
 <circle style="fill:#eff1f5" cx="32" cy="32" r="18"/>
 <path style="opacity:0.1;fill:#eff1f5" d="M 32 4 A 28 28 0 0 0 4 32 A 28 28 0 0 0 4.0175781 32.492188 A 28 28 0 0 1 32 5 A 28 28 0 0 1 59.974609 32.492188 A 28 28 0 0 0 60 32 A 28 28 0 0 0 32 4 z"/>
</svg>
