<svg xmlns="http://www.w3.org/2000/svg" width="64" height="64" version="1.1">
 <circle style="opacity:0.2" cx="32" cy="33" r="28"/>
 <circle style="fill:#4c4f69" cx="32" cy="32" r="28"/>
 <path style="opacity:0.2" d="m 20,23.5 -6,6 6,6 6,-6 z m 6,6 6,6 6,-6 -6,-6 z m 12,0 6,6 6,-6 -6,-6 z m -6,6 -6,6 6,6 6,-6 z"/>
 <path style="fill:#eff1f5" d="m 32,22.5 6,6 -6,6 -6,-6 z"/>
 <path style="fill:#eff1f5" d="m 44,22.5 6,6 -6,6 -6,-6 z"/>
 <path style="fill:#eff1f5" d="m 20,22.5 6,6 -6,6 -6,-6 z"/>
 <path style="fill:#eff1f5" d="m 32,34.5 6,6 -6,6 -6,-6 z"/>
 <path style="opacity:0.1;fill:#eff1f5" d="M 32 4 A 28 28 0 0 0 4 32 A 28 28 0 0 0 4.0332031 32.482422 A 28 28 0 0 1 32 5 A 28 28 0 0 1 59.982422 32.242188 A 28 28 0 0 0 60 32 A 28 28 0 0 0 32 4 z"/>
</svg>
