<svg xmlns="http://www.w3.org/2000/svg" width="64" height="64" version="1">
 <rect style="opacity:0.2" width="56" height="56" x="4" y="5" rx="16.8" ry="16.8"/>
 <rect style="fill:#4c4f69" width="56" height="56" x="4" y="4" rx="16.8" ry="16.8"/>
 <path style="opacity:0.1;fill:#eff1f5" d="M 20.800781 4 C 11.493581 4 4 11.493581 4 20.800781 L 4 21.800781 C 4 12.493581 11.493581 5 20.800781 5 L 43.199219 5 C 52.506419 5 60 12.493581 60 21.800781 L 60 20.800781 C 60 11.493581 52.506419 4 43.199219 4 L 20.800781 4 z"/>
 <path style="opacity:0.2" d="M 15 15 L 19 20 L 32 54 L 45 20 L 49 15 L 38 15 L 40 18 L 32 40 L 24 18 L 26 15 L 15 15 z"/>
 <path style="fill:#7287fd" d="m 26,14 -2,3 8,22 v 8 L 19.4,16.6 Z"/>
 <path style="fill:#df8e1d" d="m 15,14 4,5 13,34 V 46 L 21,17 19,15 Z"/>
 <path style="fill:#df8e1d" d="m 15,14 6,3 5,-3 z"/>
 <path style="fill:#df8e1d" d="m 38,14 2,3 -8,22 v 8 L 44.6,16.6 Z"/>
 <path style="fill:#7287fd" d="M 49,14 45,19 32,53 V 46 L 43,17 45,15 Z"/>
 <path style="fill:#df8e1d" d="m 49,14 -6,3 -5,-3 z"/>
</svg>
