<svg width="64" height="64" version="1.1" xmlns="http://www.w3.org/2000/svg">
 <circle cx="32" cy="33" r="28" style="opacity:.2"/>
 <circle cx="32" cy="32" r="28" style="fill:#d20f39"/>
 <path d="m32 26h12.3s2.7 2.6 2.7 7.5-2.7 6.5-2.7 6.5h-9.3v-7" style="fill:none;opacity:.2;stroke-linejoin:round;stroke-width:6;stroke:#eff1f5"/>
 <path d="m32 25h12.3s2.7 2.6 2.7 7.5-2.7 6.5-2.7 6.5h-9.3v-7" style="fill:none;stroke-linejoin:round;stroke-width:6;stroke:#eff1f5"/>
 <path d="m15 26h17l-14 14h17" style="fill:none;opacity:.2;stroke-linejoin:round;stroke-width:6;stroke:#eff1f5"/>
 <path d="m15 25h17l-14 14h17" style="fill:none;stroke-linejoin:round;stroke-width:6;stroke:#eff1f5"/>
 <path d="M 32,4 A 28,28 0 0 0 4,32 28,28 0 0 0 4.0214844,32.585938 28,28 0 0 1 32,5 28,28 0 0 1 59.978516,32.414062 28,28 0 0 0 60,32 28,28 0 0 0 32,4 Z" style="fill:#eff1f5;opacity:.1"/>
</svg>
