<svg xmlns="http://www.w3.org/2000/svg" width="16" height="16" version="1.1">
 <rect style="fill:#4c4f69" width="16" height="16" rx="1" ry="1"/>
 <path style="fill:#40a02b" d="m 1,1 v 12 h 1 v 1 h 1 v 1 h 10 v -1 h 1 v -1 h 1 V 1 Z"/>
 <path style="fill:#179299" d="M 5,2 V 3 H 4 V 4 H 3 V 5 H 2 v 6 h 1 v 1 h 1 v 1 h 1 v 1 h 6 v -1 h 1 v -1 h 1 v -1 h 1 V 5 H 13 V 4 H 12 V 3 H 11 V 2 Z"/>
 <path style="fill:#1e66f5" d="M 6,3 V 4 H 5 V 5 H 4 V 6 H 3 v 4 h 1 v 1 h 1 v 1 h 1 v 1 h 4 v -1 h 1 v -1 h 1 v -1 h 1 V 6 l -1,-4e-7 V 5 H 11 V 4 l -1.0000002,-4e-7 L 10,3 Z"/>
 <path style="fill:#40a02b" d="M 7,4 V 5 H 6 V 6 H 5 V 7 H 4 V 8 H 6 V 7 h 1 v 5 H 9 V 7 h 1 v 1 h 2 V 7 H 11 V 6 H 10 V 5 H 9 V 4 Z"/>
</svg>
