<svg width="16" height="16" version="1.1" xmlns="http://www.w3.org/2000/svg">
 <path d="m8 0a7 5 0 0 0-7 5 7 5 0 0 0 0.1484375 1h13.710938a7 5 0 0 0 0.140625-1 7 5 0 0 0-7-5z" style="fill:#df8e1d"/>
 <path d="m2 7v4c0 3 3 5 3 5h6s2-3 2-4h2l-2-5-5-1z" style="fill:#dc8a78"/>
 <path d="m8 6-6 1v4c0 1.171513 0.4599129 2.183258 1.0175781 2.990234 0.0503688-0.025347 2.0080987-1.015911 3.9824219-2.990234 1-1 2.2704844-1.0448814 3-2v-2.5996094l-2-0.4003906z" style="fill:#d20f39"/>
 <path d="m1 6h14" style="fill:none;stroke-linecap:round;stroke-linejoin:round;stroke-width:2;stroke:#df8e1d"/>
 <circle cx="12" cy="9" r="1" style="fill:#4c4f69"/>
 <path d="m8 13-2-3" style="fill:none;stroke-linecap:round;stroke-linejoin:round;stroke-width:4;stroke:#dc8a78"/>
</svg>
