<svg xmlns="http://www.w3.org/2000/svg" width="16" height="16" version="1">
 <path style="fill:#eff1f5" d="M 2,2 H 14 V 15 H 2 Z"/>
 <path style="fill:#8839ef" d="M 3,1 V 2 H 13 V 1 Z M 13,2 V 3 H 14 V 2 Z M 14,3 V 14 H 15 V 3 Z M 14,14 H 13 V 15 H 14 Z M 13,15 H 3 V 16 H 13 Z M 3,15 V 14 H 2 V 15 Z M 2,14 V 3 H 1 V 14 Z M 2,3 H 3 V 2 H 2 Z M 5,5 V 9 H 6 V 5 Z M 10,5 V 9 H 11 V 5 Z"/>
 <path style="fill:#04a5e5" d="M 2,12 V 14 H 3 V 15 H 13 V 14 H 14 V 12 H 13 V 13 H 3 V 12 Z"/>
 <path style="fill:#ea76cb" d="M 2,1 V 2 H 3 V 1 Z M 2,2 H 1 V 3 H 2 Z M 13,1 V 2 H 14 V 1 Z M 14,2 V 3 H 15 V 2 Z M 1,14 V 15 H 2 V 14 Z M 2,15 V 16 H 3 V 15 Z M 14,14 V 15 H 15 V 14 Z M 14,15 H 13 V 16 H 14 Z"/>
</svg>
