<svg width="16" height="16" version="1.1" xmlns="http://www.w3.org/2000/svg">
 <path d="m7 3v-1h5v1h1v1h1v1h1v1h1v4h-1v1h-1v1h-1v1h-1v1h-5v-1h-1v-1h-1v-1h-2v-1h-3v-4h3v-1h2v-1h1v-1z" style="fill:#4c4f69"/>
 <path d="m8 3v1h-1v1h1v1h-4v1h-3v2h3v1h4v1h-1v1h1v1h3v-1h1v-1h1v-1h1v-1h1v-2h-1v-1h-1v-1h-1v-1h-1v-1z" style="fill:#d20f39"/>
 <path d="m4 7v2h4v1h1v1h-1v1h3v-1h1v-1h1v-1h1v-2h-1v-1h-1v-1h-1v-1h-3v1h1v1h-1v1z" style="fill:#df8e1d"/>
 <path d="m9 7v2h1v1h1v-1h1v-2h-1v-1h-1v1z" style="fill:#40a02b"/>
</svg>
