<svg width="16" height="16" version="1.1" xmlns="http://www.w3.org/2000/svg">
 <rect transform="rotate(90)" x="11" y="-14" width="2" height="12" style="fill:#df8e1d"/>
 <rect transform="rotate(90)" x="9" y="-14" width="2" height="12" style="fill:#df8e1d"/>
 <rect transform="rotate(90)" x="5" y="-14" width="2" height="12" style="fill:#df8e1d"/>
 <rect transform="rotate(90)" x="3" y="-14" width="2" height="12" style="fill:#df8e1d"/>
 <rect transform="rotate(90)" x="7" y="-14" width="2" height="12" style="fill:#df8e1d"/>
 <rect x="12" y="2" width="2" height="12" style="fill:#eff1f5"/>
 <rect x="2" y="2" width="2" height="12" style="fill:#eff1f5"/>
 <path d="m1 0c-0.55228475 0-1 0.44771525-1 1 0 0.5522847 0.44771525 1 1 1-0.55228475 0-1 0.4477153-1 1s0.44771525 1 1 1c0.5522847 0 1-0.4477153 1-1h12c0 0.5522847 0.447715 1 1 1s1-0.4477153 1-1-0.447715-1-1-1c0.552285 0 1-0.4477153 1-1 0-0.55228475-0.447715-1-1-1s-1 0.44771525-1 1h-12c0-0.55228475-0.4477153-1-1-1z" style="fill:#eff1f5"/>
 <path d="m1 12c-0.55228475 0-1 0.447715-1 1s0.44771525 1 1 1c-0.55228475 0-1 0.447715-1 1s0.44771525 1 1 1c0.5522847 0 1-0.447715 1-1h12c0 0.552285 0.447715 1 1 1s1-0.447715 1-1-0.447715-1-1-1c0.552285 0 1-0.447715 1-1s-0.447715-1-1-1-1 0.447715-1 1h-12c0-0.552285-0.4477153-1-1-1z" style="fill:#eff1f5"/>
</svg>
