<svg width="16" height="16" version="1.1" xmlns="http://www.w3.org/2000/svg">
 <path d="m2 11h11v3h-2v2h-7v-2h-2z" style="fill:#dc8a78"/>
 <path d="m2 3h11v9h-2v2h-7v-2h-2z" style="fill:#df8e1d"/>
 <path d="m2 2v3h7v-3zm7 2v3h4v-3z" style="fill:#4c4f69"/>
 <path d="m2 0v3h7v2h5v-2-3h-12z" style="fill:#d20f39"/>
 <rect x="2" y="7" width="11" height="2" style="fill:#dc8a78"/>
 <rect x="9" y="7" width="2" height="2" style="fill:#4c4f69"/>
 <rect x="4" y="7" width="2" height="2" style="fill:#4c4f69"/>
 <rect x="6" y="9" width="3" height="1" style="fill:#df8e1d"/>
 <rect x="5" y="12" width="5" height="1" style="fill:#d20f39"/>
 <rect x="9" width="5" height="5" style="fill:#d20f39"/>
</svg>
