<svg xmlns="http://www.w3.org/2000/svg" width="16" height="16" version="1.1">
 <path style="fill:#5c5f77" d="M 14.836364,2 H 1.1636364 C 0.52097458,2 4e-8,2.5116714 4e-8,3.1428571 V 12.857143 C 4e-8,13.488285 0.52097458,14 1.1636364,14 H 14.836364 C 15.478982,14 16,13.488285 16,12.857143 V 3.1428571 C 16,2.5116714 15.478982,2 14.836364,2 Z"/>
 <path style="fill:#8839ef" d="m 2,4 h 12 v 8 H 2 Z"/>
 <path style="fill:none;stroke-width:0.5;stroke:#5c5f77" d="m 13.25,4 v 8"/>
 <path style="fill:none;stroke-width:0.5;stroke:#5c5f77" d="m 11.75,4 v 8"/>
 <path style="fill:none;stroke-width:0.5;stroke:#5c5f77" d="m 10.25,4 v 8"/>
 <path style="fill:none;stroke-width:0.5;stroke:#5c5f77" d="m 7.25,4 v 8"/>
 <path style="fill:none;stroke-width:0.5;stroke:#5c5f77" d="m 5.75,4 v 8"/>
 <path style="fill:none;stroke-width:0.5;stroke:#5c5f77" d="m 4.25,4 v 8"/>
 <path style="fill:none;stroke-width:0.5;stroke:#5c5f77" d="m 2.75,4 v 8"/>
 <path style="fill:none;stroke:#179299;stroke-width:0.399999;stroke-linecap:round;stroke-linejoin:round" d="M 2,9.0000004 3,8.2 H 4 L 5,7.0000004 5.8,10 6.8,8.0000004 V 10 L 8,8.0000004 l 1,-1 1,1 1.2,-2 v 2 L 12.2,6.8 h 1 L 14,6.0000004"/>
 <path style="fill:none;stroke-width:0.5;stroke:#eff1f5" d="m 8.75,4 v 8"/>
 <path style="fill:#40a02b" d="M 8.75,7 C 9.164258,7 9.5,7.3357432 9.5,7.7500004 9.5,8.1642581 9.164258,8.5 8.75,8.5 8.335742,8.5 8,8.1642581 8,7.7500004 8,7.3357432 8.335742,7 8.75,7 Z m 0,0"/>
</svg>
