<svg xmlns="http://www.w3.org/2000/svg" height="16" width="16" version="1.1">
 <circle cx="8" cy="8" r="8" style="fill:#eff1f5"/>
 <circle cx="8" cy="8" r="5" style="fill:#e64553"/>
 <path style="fill:#df8e1d" d="m8 8l-2.5703125 4.283203a5 5 0 0 0 2.5703125 0.716797 5 5 0 0 0 2.570312 -0.716797l-2.570312-4.283203z"/>
 <path style="fill:#40a02b" d="m8 8l2.570312 4.283203a5 5 0 0 0 2.429688 -4.283203h-5z"/>
 <path style="fill:#1e66f5" d="m10.570312 3.7167969l-2.570312 4.2832031h5a5 5 0 0 0 -2.429688 -4.2832031z"/>
 <path style="fill:#dc8a78" d="m3 8a5 5 0 0 0 2.4296875 4.283203l2.5703125-4.283203h-5z"/>
 <path style="fill:#8839ef" d="m8 3a5 5 0 0 0 -2.5703125 0.7167969l2.5703125 4.2832031 2.570312-4.2832031a5 5 0 0 0 -2.570312 -0.7167969z"/>
 <circle r="3" style="fill:#4c4f69" cx="8" cy="8"/>
 <circle r="1" style="fill:#eff1f5" cx="7" cy="7"/>
</svg>
