<svg xmlns="http://www.w3.org/2000/svg" width="16" height="16" version="1">
 <path style="fill:#04a5e5" d="M 2.75,0 C 2.3345,0 2,0.3568 2,0.8 V 8 15.2 C 2,15.6432 2.3345,16 2.75,16 h 10.5 C 13.6655,16 14,15.6432 14,15.2 V 8 0.8 C 14,0.3568 13.6655,0 13.25,0 Z"/>
 <circle style="fill:#eff1f5" cx="5.8" cy="12.2" r="1.8"/>
 <circle style="fill:#eff1f5" cx="7.4" cy="10.4" r="2.4"/>
 <circle style="fill:#eff1f5" cx="8.6" cy="11.4" r="2.4"/>
 <circle style="fill:#eff1f5" cx="10.2" cy="12.2" r="1.8"/>
 <rect style="fill:#eff1f5" width="4" height="2.618" x="6" y="11.38"/>
 <rect style="fill:#e64553" width="16" height="2" x="0" y="5" rx=".4" ry=".5"/>
 <rect style="opacity:0.5;fill:#eff1f5" width="6" height="1" x="4" y="4"/>
 <rect style="opacity:0.5;fill:#eff1f5" width="8" height="1" x="4" y="2"/>
</svg>
