<svg xmlns="http://www.w3.org/2000/svg" width="16" height="16" version="1">
 <rect style="fill:#4c4f69" width="14" height="15" x="-15" y="-16" rx=".7" ry=".75" transform="matrix(0,-1,-1,0,0,0)"/>
 <path style="fill:#40a02b" d="m 14,5 h -2 v 1 h 2 z"/>
 <path style="fill:#179299" d="m 14,7 h -2 v 1 h 2 z"/>
 <path style="fill:#1e66f5" d="m 14,9 h -2 v 1 h 2 z"/>
 <path style="fill:#df8e1d" d="M 5,11 H 3 v 1 h 2 z"/>
 <path style="fill:#dc8a78" d="M 8,11 H 6 v 1 h 2 z"/>
 <path style="fill:#1e66f5" d="m 14,11 h -2 v 1 h 2 z"/>
 <path style="fill:#8839ef" d="M 11,10 H 9 V 9 h 2 z"/>
 <path style="fill:#e64553" d="M 11,12 H 9 v -1 h 2 z"/>
 <path style="fill:#dc8a78" d="M 8,9 H 6 v 1 h 2 z"/>
 <path style="fill:#df8e1d" d="M 8,7 H 6 v 1 h 2 z"/>
</svg>
