<svg xmlns="http://www.w3.org/2000/svg" width="16" height="16" version="1.1">
 <rect style="fill:#4c4f69" width="14" height="16" x="1" rx=".8" ry=".8"/>
 <rect style="fill:#5c5f77" width="14" height="11" x="-15" y="-14" rx=".75" ry=".75" transform="matrix(0,-1,-1,0,0,0)"/>
 <rect style="fill:#7287fd" width="2" height="3" x="2" y="4" rx=".5" ry=".375"/>
 <rect style="fill:#7287fd" width="2" height="3" x="2" y="9" rx=".5" ry=".375"/>
 <rect style="opacity:.1" width="2" height="1" x="2" y="5"/>
 <rect style="opacity:.1" width="2" height="1" x="2" y="10"/>
 <circle style="fill:#1e66f5" cx="-11" cy="-9" r="2" transform="matrix(0,-1,-1,0,0,0)"/>
 <path style="fill:none;stroke-linecap:round;stroke:#eff1f5" d="M 11.5,9.5 9,11"/>
 <path style="fill:none;stroke-linecap:round;stroke:#eff1f5" d="M 6.5,9.5 9,11"/>
 <path style="fill:none;stroke-linecap:round;stroke:#eff1f5" d="m9 13.5v-2.5"/>
 <circle style="fill:#eff1f5" cx="9" cy="11" r="1"/>
 <circle style="fill:#eff1f5" cx="-5" cy="9" r="3" transform="rotate(-90)"/>
 <path style="fill:none;opacity:0.22;stroke-width:0.428571;stroke:#eff1f5" d="m 9.0000002,6.99993 v 1.000071 m 0,-6 v 6 M 7.5000001,2.402001 10.5,7.5980017 M 6.4020003,3.5000011 11.598,6.5000012 m -5.5979996,-1.5 H 12 m -5.5979997,1.5 L 11.598,3.5000011 M 7.5000001,7.5980017 10.5,2.402001"/>
 <circle style="fill:#eff1f5" cx="-5" cy="9" r="2" transform="rotate(-90)"/>
 <circle style="fill:#1e66f5" cx="-5" cy="-9" r="1.5" transform="matrix(0,-1,-1,0,0,0)"/>
 <circle style="fill:#eff1f5" cx="9" cy="5" r="1"/>
</svg>
