<svg xmlns="http://www.w3.org/2000/svg" width="16" height="16" version="1">
 <path style="fill:#d20f39" d="m 2.9999999,9 v 4 H 1 v 1 H 16 V 13 H 14 V 9 Z"/>
 <path style="fill:#e64553" d="m 6,5 v 1 1 h 0.9999999 v 6 h 3 V 10.909091 7 H 11 V 6 5 H 9.9999999 v 1 h -1 V 5 h -1 v 1 h -1 V 5 Z"/>
 <g transform="translate(0.99999992,1)">
  <path style="fill:#e64553" d="M 8e-8,2 V 3 4 H 1 v 8 H 4 V 7.909091 4 H 5 V 3 2 H 4 V 3 H 3 V 2 H 2 V 3 H 1 V 2 Z"/>
  <rect style="fill:#eff1f5" width="1" height="2" x="2" y="5"/>
  <rect style="fill:#eff1f5" width="1" height="2" x="2" y="9"/>
 </g>
 <rect style="fill:#eff1f5" width="1" height="2" x="8" y="10"/>
 <path style="fill:#e64553" d="m 11,3 v 1 1 h 1 v 8 h 3 V 8.909091 5 h 1 V 4 3 H 15 V 4 H 14 V 3 H 13 V 4 H 12 V 3 Z"/>
 <rect style="fill:#eff1f5" width="1" height="2" x="13" y="6"/>
 <rect style="fill:#eff1f5" width="1" height="2" x="13" y="10"/>
</svg>
