<svg xmlns="http://www.w3.org/2000/svg" width="16" height="16" version="1.1">
 <path style="fill:#df8e1d" d="m8 8h-8l4-4h4"/>
 <path style="fill:#e64553" d="m8 8v-8l4 4v4"/>
 <path style="fill:#40a02b" d="m4 8v4l4 4v-8"/>
 <path style="fill:#04a5e5" d="m8 8h8l-4 4h-4"/>
 <path style="fill:#8839ef" d="m8 8 4-4v4z"/>
 <path style="fill:#40a02b" d="m8 8-4 4v-4z"/>
 <path style="fill:#1e66f5" d="m12 12-4-4v4z"/>
 <path style="fill:#df8e1d" d="m4 4 4 4v-4z"/>
 <path style="fill:#eff1f5" d="m8 6-0.75 1.25-1.25 0.75 1.25 0.75 0.75 1.25 0.75-1.25 1.25-0.75-1.25-0.75z"/>
 <path style="fill:#eff1f5" d="m6 8 1.25 0.75 0.75 1.25-0-2z"/>
 <path style="fill:#eff1f5" d="m10 8-1.25 0.75-0.75 1.25-0-2z"/>
</svg>
