<svg xmlns="http://www.w3.org/2000/svg" width="16" height="16" version="1">
 <rect style="fill:#04a5e5" width="4" height="4" x="-16" y="-4" rx=".4" ry=".4" transform="matrix(0,-1,-1,0,0,0)"/>
 <rect style="fill:#04a5e5" width="4" height="4" x="-16" y="-8" rx=".4" ry=".4" transform="matrix(0,-1,-1,0,0,0)"/>
 <rect style="fill:#04a5e5" width="4" height="4" x="-16" y="-12" rx=".4" ry=".4" transform="matrix(0,-1,-1,0,0,0)"/>
 <rect style="fill:#dc8a78" width="4" height="4" x="-12" y="-4" rx=".4" ry=".4" transform="matrix(0,-1,-1,0,0,0)"/>
 <rect style="fill:#04a5e5" width="4" height="4" x="-12" y="-8" rx=".4" ry=".4" transform="matrix(0,-1,-1,0,0,0)"/>
 <rect style="fill:#d20f39" width="4" height="4" x="-12" y="-12" rx=".4" ry=".4" transform="matrix(0,-1,-1,0,0,0)"/>
 <rect style="fill:#e64553" width="4" height="4" x="-12" y="-16" rx=".4" ry=".4" transform="matrix(0,-1,-1,0,0,0)"/>
 <rect style="fill:#dc8a78" width="4" height="4" x="-8" y="-4" rx=".4" ry=".4" transform="matrix(0,-1,-1,0,0,0)"/>
 <rect style="fill:#d20f39" width="4" height="4" x="-8" y="-8" rx=".4" ry=".4" transform="matrix(0,-1,-1,0,0,0)"/>
 <rect style="fill:#e64553" width="4" height="4" x="-8" y="-12" rx=".4" ry=".4" transform="matrix(0,-1,-1,0,0,0)"/>
 <rect style="fill:#dc8a78" width="4" height="4" x="-4" y="-4" rx=".4" ry=".4" transform="matrix(0,-1,-1,0,0,0)"/>
 <rect style="fill:#dc8a78" width="4" height="4" x="-4" y="-8" rx=".4" ry=".4" transform="matrix(0,-1,-1,0,0,0)"/>
</svg>
