<svg xmlns="http://www.w3.org/2000/svg" width="16" height="16" version="1">
 <rect fill="#df8e1d" width="16" height="16" x="0" y="0" rx="8" ry="8"/>
 <circle fill="#40a02b" cx="8" cy="8" r="6"/>
 <rect fill="#eff1f5" width="1" height="5" x="3" y="5"/>
 <rect fill="#eff1f5" width="1" height="4" x="5" y="5"/>
 <path fill="#eff1f5" d="m8 5a2 2 0 0 0 -2 2 2 2 0 0 0 2 2 2 2 0 0 0 2 -2 2 2 0 0 0 -2 -2zm0 1a1 1 0 0 1 1 1 1 1 0 0 1 -1 1 1 1 0 0 1 -1 -1 1 1 0 0 1 1 -1z"/>
 <rect fill="#eff1f5" width="3" height="1" x="3" y="6"/>
 <g fill="#eff1f5" transform="translate(-1)">
  <rect width="1" height="5" x="-14" y="5" transform="scale(-1,1)"/>
  <rect width="1" height="4" x="-12" y="5" transform="scale(-1,1)"/>
  <path d="m12 5.0002 1.3581 2.2939 0.05083 0.54237l-0.178 0.2722 0.167 1.2413-0.084-0.2218-0.549-0.9522-1.565-2.7101z"/>
 </g>
 <rect fill="#eff1f5" width="4" height="1" x="6" y="10"/>
</svg>
