<svg xmlns="http://www.w3.org/2000/svg" width="16" height="16" version="1.1">
 <path style="fill:#40a02b" d="M 0.8,0 H 15.2 C 15.6432,0 16,0.3568 16,0.8 V 15.2 C 16,15.6432 15.6432,16 15.2,16 H 3.3174916 L 1.130033,15.570957 C 0.6951196,15.485654 0.81516356,15.395028 0.69306932,14.968977 L 0,12.550495 V 0.8 C 0,0.3568 0.3568,0 0.8,0 Z"/>
 <path style="fill:#df8e1d" d="M 0,12.4875 V 15.2 C 0,15.6432 0.3568,16 0.8,16 h 2.7125 z"/>
 <rect style="fill:#eff1f5" width="10" height="10" x="3" y="3" rx=".5" ry=".5"/>
 <rect style="fill:#4c4f69" width="2" height="5" x="7" y="7"/>
 <rect style="fill:#4c4f69" width="2" height="2" x="7" y="4"/>
</svg>
