<svg xmlns="http://www.w3.org/2000/svg" width="16" height="16" version="1">
 <path style="fill:#df8e1d" d="M 14.8,0 H 8 v 16 h 6.8 C 15.4648,16 16,15.4648 16,14.8 V 1.2 C 16,0.5352 15.4648,0 14.8,0 Z"/>
 <path style="fill:#4c4f69" d="M 1.2,0 H 8 V 16 H 1.2 C 0.5352,16 0,15.4648 0,14.8 V 1.2 C 0,0.5352 0.5352,0 1.2,0 Z"/>
 <path style="opacity:0.1;fill:#eff1f5" d="m 8,8 v 8 H 1.2 C 0.5352,16 0,15.4648 0,14.8 V 8 Z"/>
 <path style="fill:#eff1f5" d="m 11,12 v 1 h 3 v -1 z"/>
 <path style="fill:#eff1f5" d="m 11,10 v 1 h 3 v -1 z"/>
 <path style="fill:#eff1f5" d="M 3,4 V 5 H 6 V 4 Z"/>
 <path style="fill:#eff1f5" d="m 4,10 v 1 H 3 v 1 h 1 v 1 H 5 V 12 H 6 V 11 H 5 v -1 z"/>
</svg>
