<svg xmlns="http://www.w3.org/2000/svg" height="16" width="16" version="1.1">
 <g>
  <circle cx="2.5" cy="6.5" r="2.5" style="fill:#df8e1d"/>
  <circle cx="13.5" cy="6.5" r="2.5" style="fill:#df8e1d"/>
  <path style="fill:#df8e1d" d="m8 1c-3.878 0-7 3.122-7 7s3.122 7 7 7 7-3.122 7-7-3.122-7-7-7z"/>
  <ellipse style="fill:#df8e1d" rx="5" ry="3.8499999" cy="11.15" cx="8"/>
  <circle cx="5.5" cy="6.5" r="2.5" style="fill:#df8e1d"/>
  <rect style="fill:#df8e1d" height="2.8" width="4.1999998" y="5.9000001" x="5.9000001"/>
  <circle cx="10.5" cy="6.5" r="2.5" style="fill:#df8e1d"/>
  <circle cx="6" cy="6" r="1" style="fill:#4c4f69"/>
  <circle cx="10.05" cy="5.9499998" r="1.05" style="fill:#4c4f69"/>
  <path style="stroke-linejoin:round;stroke:#4c4f69;stroke-linecap:round;fill:none" d="m4.8530047 11.1s1.05 1.4 3.15 1.4c2.1000003 0 3.1500003-1.4 3.1500003-1.4"/>
 </g>
</svg>
