<svg width="16" height="16" version="1.1" xmlns="http://www.w3.org/2000/svg">
 <circle cx="8" cy="8" r="8" style="fill:#eff1f5"/>
 <path d="M 5.5898438 6.3535156 A 3 3 0 0 0 4 9 A 3 3 0 0 0 7 12 A 3 3 0 0 0 10 9 L 5.5898438 6.3535156 z " style="fill:#4c4f69"/>
 <circle cx="7" cy="9" r="2" style="fill:#df8e1d"/>
 <circle cx="7" cy="9" r="1" style="fill:#4c4f69"/>
 <circle cx="6" cy="8" r="1" style="fill:#eff1f5"/>
 <path d="m5 7c-0.3719017 0-2-2-2-2 7 2 9 5 9 5s-4-2-7-3z" style="fill:#4c4f69"/>
 <path d="m2 4-2-2c11 2 16 9 16 9s-8-6-14-7z" style="fill:#4c4f69"/>
 <path d="m7 10.5a0.5 0.5 0 0 1-0.5 0.5 0.5 0.5 0 0 1-0.5-0.5 0.5 0.5 0 0 1 0.5-0.5 0.5 0.5 0 0 1 0.5 0.5z" style="fill:#eff1f5"/>
</svg>
