<svg xmlns="http://www.w3.org/2000/svg" width="16" height="16" version="1">
 <rect style="fill:#1e66f5" width="16" height="15" x="0" y="1" rx=".8" ry=".833"/>
 <path style="fill:none;stroke:#1e66f5" d="M 1,9.2 C 6.2,9.2 6.3,14.48 8.6,14.5 10.9,14.52 10.8,9.2 16,9.2"/>
 <path style="fill:none;stroke:#04a5e5" d="M 1,8.8 C 6.2,8.8 6.3,4.52 8.6,4.5 10.9,4.48 10.8,8.8 16,8.8"/>
 <path style="fill:none;stroke:#e64553" d="M 1,8.8 C 6.2,8.8 6.3,2.52 8.6,2.5 10.9,2.48 10.8,8.8 16,8.8"/>
 <rect style="fill:#eff1f5" width="1" height="13" x="1" y="2"/>
 <rect style="fill:#eff1f5" width="15" height="1" x="1" y="8"/>
 <rect style="fill:#eff1f5" width="1" height="3" x="3" y="7"/>
 <rect style="fill:#eff1f5" width="1" height="3" x="8" y="7"/>
 <rect style="fill:#eff1f5" width="1" height="3" x="14" y="7"/>
</svg>
