<svg xmlns="http://www.w3.org/2000/svg" width="16" height="16" version="1.1">
 <rect style="fill:#4c4f69" width="16" height="16" x="0" y="0" rx="1.2" ry="1.2"/>
 <rect style="opacity:0.1;fill:#eff1f5" width="2" height="1" x="2" y="8"/>
 <rect style="opacity:0.1;fill:#eff1f5" width="2" height="1" x="2" y="6"/>
 <rect style="opacity:0.1;fill:#eff1f5" width="2" height="1" x="2" y="4"/>
 <rect style="opacity:0.1;fill:#eff1f5" width="2" height="1" x="2" y="10"/>
 <rect style="opacity:0.1;fill:#eff1f5" width="2" height="1" x="2" y="12"/>
 <rect style="fill:#e64553" width="3" height="1" x="5" y="4"/>
 <rect style="fill:#eff1f5" width="3" height="1" x="8" y="4"/>
 <rect style="fill:#eff1f5" width=".6" height="1" x="11.4" y="4"/>
 <rect style="opacity:0.3;fill:#eff1f5" width="1.5" height="1" x="5" y="8"/>
 <rect style="opacity:0.3;fill:#eff1f5" width="1.5" height="1" x="7" y="8"/>
 <rect style="fill:#df8e1d" width="2" height="1" x="12.5" y="4"/>
 <rect style="opacity:0.3;fill:#eff1f5" width="2.5" height="1" x="9" y="8"/>
 <rect style="opacity:0.3;fill:#eff1f5" width="1.5" height="1" x="12" y="8"/>
 <rect style="fill:#eff1f5" width="5" height="1" x="5" y="10"/>
 <rect style="fill:#ea76cb" width="3.5" height="1" x="10" y="10"/>
 <rect style="fill:#eff1f5" width=".5" height="1" x="14" y="10"/>
 <rect style="fill:#ea76cb" width="2" height="1" x="5" y="12"/>
 <rect style="fill:#e64553" width="2" height="1" x="7.5" y="12"/>
 <rect style="fill:#eff1f5" width="3.5" height="1" x="9.5" y="12"/>
</svg>
