<svg width="16" height="16" version="1.1" xmlns="http://www.w3.org/2000/svg">
 <rect width="16" height="16" rx="1" ry="1" style="fill:#df8e1d"/>
 <path d="m9 1-7 3v3l1 1 6-2 4 3h1v-4l-5-4z" style="fill:#40a02b"/>
 <path d="m9 1-7 3v3l7-2z" style="fill:#40a02b"/>
 <path d="m9 6-6 2v8h5 4l1-7-4-3z" style="fill:#df8e1d"/>
 <path d="m3 7v9h5l1-10z" style="fill:#df8e1d"/>
 <path d="m2 7 1 1 6-2 4 3h1l-5-4z" style="fill:#4c4f69"/>
 <path d="m5 9-2 1v1h2v-2zm-2 3v1h1v-1h-1z" style="fill:#df8e1d"/>
</svg>
