<svg xmlns="http://www.w3.org/2000/svg" width="16" height="16" version="1.1">
 <rect style="fill:#df8e1d" width="12" height="12" x="0" y="0" rx="1" ry="1"/>
 <path style="fill:#eff1f5" d="m0 4v5h4.428571c-1.52967-3.6464311-3.059303-4.9296417-4.428571-5z"/>
 <rect style="fill:#df8e1d" width="12" height="12" x="2" y="2" rx="1" ry="1"/>
 <path style="fill:#1e66f5" d="m2 6v5h4.428571c-1.52967-3.6464311-3.059303-4.9296417-4.428571-5z"/>
 <rect style="fill:#e64553" width="12" height="12" x="4" y="4" rx="1" ry="1"/>
 <circle style="fill:#df8e1d" cx="8" cy="10.75" r="1.75"/>
 <path style="fill:#5c5f77" d="m4 8v5h4.428571c-1.52967-3.6464311-3.059303-4.9296417-4.428571-5z"/>
 <path style="fill:#eff1f5" d="m7 13h9c-4.5-11.25-9 0-9 0z"/>
</svg>
