<svg xmlns="http://www.w3.org/2000/svg" width="16" height="16" version="1">
 <rect style="fill:#04a5e5" width="16" height="14" x="0" y="1" rx="1.2" ry="1.167"/>
 <path style="fill:#40a02b" d="M 2.9601564,10 0.07343752,14.210938 C 0.24069548,14.67183 0.6799264,15 1.2,15 h 5.1203124 z"/>
 <path style="fill:#40a02b" d="M 8.7999996,7.4 13.6,15 H 4 Z"/>
 <path style="fill:#df8e1d" d="M 4.5,3 C 5.880708,3 7,4.119292 7,5.5000004 7,6.8807084 5.880708,8 4.5,8 3.1192916,8 2,6.8807084 2,5.5000004 2,4.119292 3.1192916,3 4.5,3 Z"/>
 <circle style="fill:#eff1f5" cx="9.5" cy="8.5" r="1.5"/>
 <circle style="fill:#eff1f5" cx="12" cy="7" r="2"/>
 <circle style="fill:#eff1f5" cx="13.75" cy="8.75" r="1.25"/>
 <rect style="fill:#eff1f5" width="4.4" height="1.92" x="9.5" y="8.08"/>
</svg>
