<svg width="16" height="16" version="1.1" xmlns="http://www.w3.org/2000/svg">
 <path d="m3 4v-1s0-3 2-3c1 0 3 1 3 1s2-1 3-1c2 0 2 3 2 3v1z" style="fill:#4c4f69"/>
 <path d="m3 6v-3h10v3z" style="fill:#eff1f5"/>
 <ellipse cx="8" cy="6" rx="8" ry="2" style="fill:#4c4f69"/>
 <path d="m5 12-2-6s2-1 5-1 5 1 5 1l-2 6s0 1-3 1-3-1-3-1z" style="fill:#dd7878"/>
 <path d="m6 16h4s1-3 1-4h-6c0 1 1 4 1 4z" style="fill:#4c4f69"/>
 <path d="m5 12 1 1v1l2 1 2-1v-1l1-1h-5z" style="fill:#eff1f5"/>
 <path d="m6 12 2 3 2-3z" style="fill:#e64553"/>
 <path d="M 7.6074219 5.015625 C 6.1204223 5.0601517 4.9484163 5.325683 4.1425781 5.578125 A 2 2.5 0 0 0 4 6.5 A 2 2.5 0 0 0 6 9 A 2 2.5 0 0 0 8 6.5 A 2 2.5 0 0 0 7.6074219 5.015625 z M 8 6.5 A 2 2.5 0 0 0 10 9 A 2 2.5 0 0 0 12 6.5 A 2 2.5 0 0 0 11.857422 5.578125 C 11.051584 5.325683 9.8795777 5.0601517 8.3925781 5.015625 A 2 2.5 0 0 0 8 6.5 z " style="fill:#eff1f5"/>
 <circle cx="6" cy="7" r="1" style="fill:#4c4f69"/>
 <circle cx="10" cy="7" r="1" style="fill:#4c4f69"/>
 <path d="m7 12 1 1-1 2 1 1 1-1-1-2 1-1z" style="fill:#eff1f5"/>
</svg>
