<svg width="16" height="16" version="1.1" xmlns="http://www.w3.org/2000/svg">
 <path d="m11 1h2v14h-2zm-4 0h2v14h-2zm-4 0h2v14h-2z" style="fill:#7287fd"/>
 <rect x="1" y="2" width="14" height="12" ry=".8" style="fill:#d20f39"/>
 <g transform="matrix(.5 0 0 .5 -238.5 -86.4975)" style="enable-background:new;fill:#eff1f5">
  <path d="m489 183v8.1875c-0.32-0.12-0.64-0.19-1-0.19-1.6568 0-3 1.3432-3 3s1.3432 3 3 3 3-1.3432 3-3v-7h6v4.1875c-0.32-0.12-0.64-0.19-1-0.19-1.6568 0-3 1.3432-3 3s1.3432 3 3 3 3-1.3432 3-3v-11h-1z" style="fill:#eff1f5"/>
 </g>
</svg>
