<svg xmlns="http://www.w3.org/2000/svg" width="16" height="16" version="1">
 <path style="fill:#4c4f69" d="m8-3e-8c-4.432 0-8 3.568-8 8-2e-8 4.432 3.568 8 8 8s8-3.568 8-8-3.568-8-8-8z"/>
 <circle style="fill:#5c5f77" cx="11.314" cy="0" r="6" transform="rotate(45)"/>
 <circle style="fill:#40a02b" cx="11" cy="11" r="1"/>
 <circle style="fill:#04a5e5" cx="-5" cy="-11" r="1" transform="scale(-1)"/>
 <circle style="fill:#e64553" cx="11" cy="5" r="1"/>
 <circle style="fill:#df8e1d" cx="-5" cy="-5" r="1" transform="scale(-1)"/>
 <path style="fill:none;stroke:#eff1f5;stroke-width:1.5;stroke-linecap:round" d="M 3.75,7.75 8,8"/>
 <path style="fill:#eff1f5" d="M 7.9999995,6 C 6.8964693,6 6,6.8964689 6,7.9999998 6,9.1035302 6.8964693,10 7.9999995,10 9.1035307,10 10,9.1035302 10,7.9999998 10,6.8964689 9.1035307,6 7.9999995,6 Z"/>
</svg>
