<svg xmlns="http://www.w3.org/2000/svg" width="16" height="16" version="1.1">
 <path style="fill:#7287fd" d="M 8,0 V 8 H 7 Z M 8,8 V 9 L 16,8 H 8 M 8,0 V 8 H 16 A 8,8 0 0 0 8,0 Z"/>
 <path style="fill:#8839ef" d="M 8,8 V 16 L 7,8 Z M 8,8 V 16 A 8,8 0 0 0 16,8 Z"/>
 <path style="fill:#df8e1d" d="M 0,8 H 8 V 7 Z M 0,8 A 8,8 0 0 0 8,16 V 8 Z"/>
 <path style="fill:#40a02b" d="M 8 0 A 8 8 0 0 0 0 8 L 8 8 L 8 0 z"/>
 <circle style="fill:#eff1f5" cx="8" cy="8" r="4"/>
 <circle style="fill:#eff1f5" cx="8" cy="8" r="2"/>
</svg>
