<svg xmlns="http://www.w3.org/2000/svg" width="16" height="16" version="1.1">
 <path style="fill:#df8e1d" d="M 8,6e-8 C 3.5858772,6e-8 0,3.5858759 0,7.9999999 0,12.414124 3.5858772,16.000001 8,16 12.414123,16 16.000004,12.414124 16,7.9999999 16,3.5858759 12.414123,6e-8 8,6e-8 Z"/>
 <path style="fill:#eff1f5" d="M 8.0000004,2 C 4.689407,2 2,4.6894066 2,7.9999996 2,11.310593 4.689407,14.000001 8.0000004,14 11.310593,14 14.000002,11.310593 14,7.9999996 14,4.6894066 11.310593,2 8.0000004,2 Z"/>
 <path style="font-variation-settings:normal;inline-size:0;fill:#e64553;stop-color:#eff1f5" d="m 8.1274415,7.8623045 -0.254883,0.275391 4.4040535,4.0649405 c 0.08759,-0.08912 0.170017,-0.183167 0.251953,-0.277587 z"/>
 <path style="fill:none;stroke:#4c4f69;stroke-width:0.75;stroke-linecap:round;stroke-linejoin:round" d="M 3.4,10.62 8,8"/>
 <path style="fill:none;stroke:#4c4f69;stroke-width:1.125;stroke-linecap:round;stroke-linejoin:round" d="M 8,8 10.462,4.538"/>
 <path style="fill:#4c4f69" d="M 8,7 C 7.4482353,7 7,7.4482353 7,8 7,8.5517646 7.4482353,9 8,9 8.5517647,9 9,8.5517646 9,8 9,7.4482353 8.5517646,7 8,7 Z"/>
 <path style="fill:#eff1f5" d="M 8,7.3333333 C 7.632157,7.3333333 7.3333333,7.632157 7.3333333,8 7.3333333,8.3678429 7.632157,8.6666667 8,8.6666667 8.367843,8.6666667 8.6666667,8.3678429 8.6666667,8 8.6666667,7.632157 8.367843,7.3333333 8,7.3333333 Z"/>
</svg>
