<svg xmlns="http://www.w3.org/2000/svg" width="16" height="16" version="1.1">
 <rect style="fill:#7287fd" width="10" height="8" x="-11" y="-14" rx=".6" ry=".6" transform="matrix(0,-1,-1,0,0,0)"/>
 <rect style="fill:#4c4f69" width="10" height="12" x="-10" y="-16" rx=".6" ry=".6" transform="matrix(0,-1,-1,0,0,0)"/>
 <rect style="fill:#1e66f5" width="6" height="8" x="-8" y="-14" rx="0" ry="0" transform="matrix(0,-1,-1,0,0,0)"/>
 <rect style="fill:#7287fd" width="10" height="8" x="-16" y="-10" rx=".6" ry=".6" transform="matrix(0,-1,-1,0,0,0)"/>
 <rect style="fill:#4c4f69" width="10" height="12" x="-15" y="-12" rx=".6" ry=".6" transform="matrix(0,-1,-1,0,0,0)"/>
 <rect style="fill:#df8e1d" width="6" height="8" x="-13" y="-10" rx="0" ry="0" transform="matrix(0,-1,-1,0,0,0)"/>
</svg>
