<svg xmlns="http://www.w3.org/2000/svg" width="16" height="16" version="1">
 <rect fill="#04a5e5" width="16" height="16" x="0" y="0" rx=".857" ry=".857"/>
 <path fill="#eff1f5" d="m6 4a2 2 0 0 1 -2 2 2 2 0 0 1 -2 -2 2 2 0 0 1 2 -2 2 2 0 0 1 2 2z"/>
 <path fill="#4c4f69" d="m14 4a2 2 0 0 0 -2 -2 2 2 0 0 0 -2 2 2 2 0 0 0 2 2 2 2 0 0 0 2 -2z"/>
 <path fill="#eff1f5" d="m10 12a2 2 0 0 0 2 2 2 2 0 0 0 2 -2 2 2 0 0 0 -2 -2 2 2 0 0 0 -2 2z"/>
 <path fill="#4c4f69" d="m2 12a2 2 0 0 1 2 -2 2 2 0 0 1 2 2 2 2 0 0 1 -2 2 2 2 0 0 1 -2 -2z"/>
</svg>
