<svg xmlns="http://www.w3.org/2000/svg" width="16" height="16" version="1">
 <circle style="fill:#4c4f69" cx="8.5" cy="8.5" r="7.5"/>
 <path style="fill:none;stroke:#04a5e5;stroke-linecap:round;stroke-linejoin:round" d="m 3.5,8.5 h 2"/>
 <path style="fill:none;stroke:#04a5e5;stroke-width:1.5" d="m 15.25,8.5 c 0,0 0,-2.7499986 -2.999993,-2.7499986 -2.9999924,0 -4.4999888,5.5 -7.4999815,5.5 -2.999992,0 -2.999992,-2.7500014 -2.999992,-2.7500014 v 0 0"/>
 <path style="fill:none;stroke:#04a5e5;stroke-width:1.5" d="m 1.75,8.5 c 0,0 0,-2.7499986 2.9999928,-2.7499986 2.9999926,0 4.499989,5.5 7.4999817,5.5 2.999992,0 2.999992,-2.7500014 2.999992,-2.7500014 v 0 0"/>
 <path style="fill:none;stroke:#04a5e5;stroke-linecap:round;stroke-linejoin:round" d="m 4.5,7.5 v 2"/>
 <circle style="fill:#04a5e5" cx="11.5" cy="8.5" r=".5"/>
 <circle style="fill:#04a5e5" cx="13.5" cy="8.5" r=".5"/>
 <circle style="fill:#04a5e5" cx="7.5" cy="-12.5" r=".5" transform="rotate(90)"/>
 <circle style="fill:#04a5e5" cx="9.5" cy="-12.5" r=".5" transform="rotate(90)"/>
</svg>
