<svg xmlns="http://www.w3.org/2000/svg" width="16" height="16" version="1.1">
 <rect style="fill:#dce0e8" width="16" height="10" x="0" y="6" ry="1.154"/>
 <rect style="fill:#40a02b" width="2" height="3.6" x="3" y="5"/>
 <rect style="fill:#e64553" width="2" height="5.2" x="5" y="3"/>
 <rect style="fill:#04a5e5" width="2" height="7.2" x="7" y="1"/>
 <rect style="fill:#e64553" width="2" height="4.8" x="9" y="4"/>
 <rect style="fill:#40a02b" width="2" height="8.4" x="11" y="0"/>
 <rect style="fill:#eff1f5" width="2" height="2" x="2" y="10"/>
 <rect style="fill:#eff1f5" width="6" height="2" x="8" y="10"/>
 <path style="fill:#df8e1d" d="M 2,9 V 7.8461539 C 2.7500004,7.8461539 2.7500004,7 3.5000004,7 4.25,7 4.0625004,8 5,8 5.9375004,8 5.75,6.6923079 6.5000004,6.6923079 c 0.75,0 0.75,-1.6923079 1.5,-1.6923079 C 8.75,5 8.75,7 9.5,7 10.25,7 10.25,5.9230768 11,5.9230768 11.75,5.9230768 11.75,4 12.5,4 13.25,4 13.25,6.6923079 14,6.6923079 V 9 Z"/>
 <rect style="fill:#eff1f5" width="2" height="2" x="5" y="10"/>
 <rect style="fill:#eff1f5" width="2" height="2" x="2" y="13"/>
 <rect style="fill:#eff1f5" width="6" height="2" x="8" y="13"/>
 <rect style="fill:#eff1f5" width="2" height="2" x="5" y="13"/>
</svg>
