<svg xmlns="http://www.w3.org/2000/svg" width="16" height="16" version="1.1">
 <rect style="fill:#eff1f5" width="16" height="16" x="0" y="0" rx="3.2" ry="3.2"/>
 <path style="fill:#dc8a78" d="M 8.000483,6.5002408 V 9.499794 H 7.9995401 L 4.9999999,8.0000116 Z"/>
 <path style="fill:#df8e1d" d="M 11,2 V 5.0004584 L 8.0004706,3.4997824 Z"/>
 <path style="fill:#dc8a78" d="M 11,5.00047 8.0004706,6.5002408 V 3.4997824 Z"/>
 <path style="fill:#8839ef" d="M 8.000483,3.4997824 V 6.5002408 L 4.9999999,5.00047 Z"/>
 <path style="fill:#8839ef" d="M 8.000483,12.50024 4.9999999,14 v -3.000435 z"/>
 <path fill="#d20f39" d="M 11,8.0000232 V 10.999576 L 8.0004706,9.499794 Z"/>
 <path fill="#d20f39" d="M 11,10.999576 8.0004706,12.500252 V 9.499794 Z"/>
 <path fill="#ea76cb" d="m 8.000483,9.499794 v 3.000458 L 4.9999999,10.999576 7.9995209,9.499794 Z"/>
 <path fill="#d20f39" d="M 11,8.0000116 8.0004706,9.499794 V 6.5002408 Z"/>
 <path style="fill:#e64553" d="M 8.000483,6.5002292 4.9999999,8.0000116 V 5.0004584 Z"/>
</svg>
