<svg xmlns="http://www.w3.org/2000/svg" width="16" height="16" x="0" y="0" version="1.1" xml:space="preserve">
 <g style="fill:#eff1f5" transform="scale(0.25,0.25)">
  <g style="fill:#eff1f5">
   <path style="fill:#eff1f5" d="M 32,0 C 49.7,0 64,14.3 64,32 64,49.7 49.7,64 32,64 14.3,64 0,49.7 0,32 0,14.3 14.3,0 32,0 Z"/>
  </g>
 </g>
 <path style="fill:#04a5e5;fill-rule:evenodd" d="m 4,2.9944442 0,4 4,-4 -4,0 z m 4,0 4,4 0,-4 -4,0 z m 4,4 L 8,10.994444 4,6.9944442 4,10.55 l 4,4 4,-4 0,-3.5555558 z"/>
</svg>
