<svg xmlns="http://www.w3.org/2000/svg" width="16" height="16" version="1">
 <rect style="fill:#1e66f5" width="15" height="15" x="1" y="1" rx="7.5" ry="7.5"/>
 <g transform="translate(1)">
  <path style="fill:#179299" d="M 7.5,2 A 0.5,0.5 0 0 0 7,2.5 0.5,0.5 0 0 0 7.5,3 0.5,0.5 0 0 0 8,2.5 0.5,0.5 0 0 0 7.5,2 Z"/>
  <path style="fill:#179299" d="M 3.5,4 A 0.5,0.5 0 0 0 3,4.5 0.5,0.5 0 0 0 3.5,5 0.5,0.5 0 0 0 4,4.5 0.5,0.5 0 0 0 3.5,4 Z"/>
  <path style="fill:#179299" d="M 1.5,8 A 0.5,0.5 0 0 0 1,8.5 0.5,0.5 0 0 0 1.5,9 0.5,0.5 0 0 0 2,8.5 0.5,0.5 0 0 0 1.5,8 Z"/>
  <path style="fill:#179299" d="M 3.5,12 A 0.5,0.5 0 0 0 3,12.5 0.5,0.5 0 0 0 3.5,13 0.5,0.5 0 0 0 4,12.5 0.5,0.5 0 0 0 3.5,12 Z"/>
 </g>
 <path style="fill:#179299" d="M 12.5,4 A 0.5,0.5 0 0 1 13,4.5 0.5,0.5 0 0 1 12.5,5 0.5,0.5 0 0 1 12,4.5 0.5,0.5 0 0 1 12.5,4 Z"/>
 <path style="fill:#179299" d="M 14.5,8 A 0.5,0.5 0 0 1 15,8.5 0.5,0.5 0 0 1 14.5,9 0.5,0.5 0 0 1 14,8.5 0.5,0.5 0 0 1 14.5,8 Z"/>
 <path style="fill:#179299" d="M 12.5,12 A 0.5,0.5 0 0 1 13,12.5 0.5,0.5 0 0 1 12.5,13 0.5,0.5 0 0 1 12,12.5 0.5,0.5 0 0 1 12.5,12 Z"/>
 <path style="fill:#eff1f5" d="M 12.397,10.75 8.683,9.183 9.183,8.317 Z"/>
 <circle style="fill:#4c4f69" cx="-12.021" cy="0" r="1.5" transform="rotate(-135)"/>
</svg>
