<svg xmlns="http://www.w3.org/2000/svg" height="16" width="16" version="1.1">
 <circle r="7" style="fill:#df8e1d" cx="8" cy="8"/>
 <path style="fill:#4c4f69" d="m5 5c-2.453642 0-3.3950184 1.1272222-3.7617188 2h-1.2382812v2h1.5117188c0.5659171 0.8728036 1.6479185 2 3.4882812 2 2 0 3-2 3-2s1 2 3 2c2.453642 0 3.395018-1.1272222 3.761719-2h1.238281v-2h-1.238281c-0.366701-0.8727778-1.308077-2-3.761719-2-2 0-3 2-3 2s-1-2-3-2z"/>
 <ellipse style="fill:#df8e1d" rx="1" ry=".5" cy="12.5" cx="8"/>
 <circle r="2" style="fill:#40a02b" cx="5" cy="8"/>
 <circle r="2" style="fill:#40a02b" cx="11" cy="8"/>
</svg>
