<svg xmlns="http://www.w3.org/2000/svg" width="16" height="16" version="1">
 <rect style="fill:#1e66f5" width="12" height="16" x="2" y="0" rx=".857" ry=".8"/>
 <rect style="fill:#40a02b" width="8" height="5" x="4" y="1"/>
 <circle style="fill:#e64553" cx="5.25" cy="14.25" r=".75"/>
 <circle style="fill:#04a5e5" cx="7.75" cy="14.25" r=".75"/>
 <circle style="fill:#04a5e5" cx="10.25" cy="14.25" r=".75"/>
 <circle style="fill:#eff1f5" cx="12.728" cy="1.414" r="3" transform="rotate(45)"/>
 <path style="fill:#04a5e5" d="M 10.121322,7.8786808 A 3,3 0 0 0 9.8369929,7.6326793 L 8.5303313,8.9393409 A 0.3750375,0.3750375 0 1 0 9.0606611,9.4696708 L 10.367842,8.1624902 a 3,3 0 0 0 -0.24652,-0.2838094 z"/>
 <rect style="fill:#1e66f5" width=".667" height="3" x="7.33" y="2"/>
 <rect style="fill:#1e66f5" width=".667" height="1.8" x="6" y="2"/>
 <rect style="fill:#1e66f5" width=".6" height="1.667" x="3.4" y="-7.67" transform="rotate(90)"/>
 <rect style="fill:#1e66f5" width=".667" height="2" x="10.33" y="2"/>
 <rect style="fill:#1e66f5" width=".667" height="1.6" x="9" y="3.4"/>
 <rect style="fill:#1e66f5" width=".6" height="1.667" x="3.4" y="-10.67" transform="rotate(90)"/>
 <rect style="fill:#1e66f5" width=".6" height="1.667" x="2" y="-10.67" transform="rotate(90)"/>
 <rect style="fill:#1e66f5" width=".6" height="1.667" x="4.4" y="-11" transform="rotate(90)"/>
</svg>
