<svg xmlns="http://www.w3.org/2000/svg" width="16" height="16" version="1">
 <rect style="fill:#4c4f69" width="16" height="16" x="0" y="0" rx="4.8" ry="4.8"/>
 <rect style="fill:#4c4f69" width="16" height="16" x="23" y="0" rx="4.8" ry="4.8"/>
 <path style="fill:#7287fd" d="M 6,2 5.5,2.8 8,10 v 2.4 L 4,2.8 Z"/>
 <path style="fill:#df8e1d" d="M 3,2 4.2,3.6 8,14 V 12 L 4.6,2.8 4.2,2.4 Z"/>
 <path style="fill:#df8e1d" d="M 3,2 4.6,2.8 6,2 Z"/>
 <path style="fill:#df8e1d" d="M 10,2 10.5,2.8 8,10 v 2.4 l 4,-9.6 z"/>
 <path style="fill:#7287fd" d="M 13,2 11.8,3.6 8,14 v -2 l 3.4,-9.2 0.4,-0.4 z"/>
 <path style="fill:#df8e1d" d="M 13,2 11.4,2.8 10,2 Z"/>
</svg>
