<svg xmlns="http://www.w3.org/2000/svg" width="16" height="16" version="1.1">
 <path style="fill:#04a5e5" d="M 7 0 A 7 6.5 0 0 0 0 6.5 A 7 6.5 0 0 0 2 11.046875 L 2 14 L 3.3203125 12.019531 A 7 6.5 0 0 0 7 13 A 7 6.5 0 0 0 14 6.5 A 7 6.5 0 0 0 7 0 z"/>
 <path style="fill:#eff1f5" d="M 11 6 A 5 4.5 0 0 0 6 10.5 A 5 4.5 0 0 0 11 15 A 5 4.5 0 0 0 13.810547 14.216797 L 15 16 L 15 13.191406 A 5 4.5 0 0 0 16 10.5 A 5 4.5 0 0 0 11 6 z"/>
 <circle style="fill:#4c4f69" cx="4" cy="5" r="1"/>
 <circle style="fill:#4c4f69" cx="10" cy="5" r="1"/>
 <circle style="fill:#4c4f69" cx="9" cy="10" r="1"/>
 <circle style="fill:#4c4f69" cx="13" cy="10" r="1"/>
</svg>
