<svg xmlns="http://www.w3.org/2000/svg" width="16" height="16" version="1.1">
 <path style="fill:#eff1f5" d="M 0,1.96 V 14.4 C 0,15.2864 0.7136,16 1.6,16 H 14.4 C 15.2864,16 16,15.2864 16,14.4 V 1.96 Z"/>
 <path style="fill:#7287fd" d="M 1.6,0 C 0.7136,0 0,0.7136 0,1.6 V 2 H 16 V 1.6 C 16,0.7136 15.2864,0 14.4,0 Z"/>
 <rect style="fill:#eff1f5" width="14" height="9" x="1" y="3"/>
 <rect style="fill:#eff1f5" width="7" height="9" x="8" y="3"/>
 <rect style="fill:#eff1f5" width="5" height=".5" x="1" y="13"/>
 <rect style="fill:#eff1f5" width="2" height=".5" x="7" y="13"/>
 <rect style="fill:#e64553" width="2" height=".5" x="10" y="13"/>
 <rect style="fill:#eff1f5" width="2" height=".5" x="13" y="13"/>
 <rect style="fill:#8839ef" width="5" height=".5" x="1" y="14.5"/>
 <rect style="fill:#eff1f5" width="2" height=".5" x="7" y="14.5"/>
 <rect style="fill:#eff1f5" width="2" height=".5" x="10" y="14.5"/>
 <rect style="fill:#7287fd" width="2" height=".5" x="13" y="14.5"/>
</svg>
