<svg width="16" height="16" version="1.1" xmlns="http://www.w3.org/2000/svg">
 <path d="m0 5 1-2 3 3 3 1v2l-3 2-3-2z" style="fill:#40a02b"/>
 <path d="m16 5-1-2-3 3-3 1v2l3 2 3-2z" style="fill:#40a02b"/>
 <path d="m7 12-2 2 1 1 2 1 2-1 1-1-2-2z" style="fill:#40a02b"/>
 <path d="m8 1-2 2 1 2-1 3v2l2 4 2-4v-2l-1-3 1-2z" style="fill:#179299"/>
 <rect x="8" y="3" width="4" height="1" style="fill:#209fb5"/>
 <path d="M 10.5,6.5000004 5.5,10.5" style="fill:none;stroke-linecap:round;stroke-linejoin:round;stroke:#df8e1d"/>
 <path d="m5.5 6.5 5 4" style="fill:none;stroke-linecap:round;stroke-linejoin:round;stroke:#df8e1d"/>
</svg>
