<svg xmlns="http://www.w3.org/2000/svg" width="16" height="16" version="1.1">
 <circle style="fill:#4c4f69" cx="9" cy="8" r="7"/>
 <ellipse style="fill:#40a02b" cx="3.5" cy="9" rx="3.5" ry="2"/>
 <ellipse style="fill:#40a02b" cx="8.5" cy="12" rx="3.5" ry="2"/>
 <path style="fill:#1e66f5" d="M 6.9999987,2.0162756 A 2.9999987,2.9999987 0 0 0 4,5.0162743 2.9999987,2.9999987 0 0 0 4.0013029,5.0299474 2.9999987,2.9999987 0 0 1 4.2233082,5.0143243 2.9999987,2.9999987 0 0 1 7.2226558,8 2.9999987,2.9999987 0 0 0 10,5.0162743 2.9999987,2.9999987 0 0 0 7.0000016,2.0162756 Z"/>
 <path style="fill:#e64553" d="M 13,4.9999997 A 3.0000001,3.0000001 0 0 0 10,7.9999999 3.0000001,3.0000001 0 0 0 10.01245,8.173584 3.0000001,3.0000001 0 0 1 12.660888,10.97583 3.0000001,3.0000001 0 0 0 13,11 3.0000001,3.0000001 0 0 0 16,7.9999999 3.0000001,3.0000001 0 0 0 13,4.9999997 Z"/>
</svg>
