<svg xmlns="http://www.w3.org/2000/svg" width="22" height="22" version="1">
 <rect style="opacity:0.2" width="13" height="13" x="8" y="7.5" rx="1" ry="1"/>
 <rect style="fill:#04a5e5" width="13" height="13" x="8" y="7" rx="1" ry="1"/>
 <path style="opacity:0.2;fill:#eff1f5" d="m 9.000002,7.0000018 c -0.5540005,0 -1.0000005,0.446 -1.0000005,1 V 8.500002 c 0,-0.5540002 0.446,-1.0000002 1.0000005,-1.0000002 h 11 c 0.554,0 1,0.446 1,1.0000002 V 8.0000018 c 0,-0.554 -0.446,-1 -1,-1 z"/>
 <rect style="opacity:0.2" width="13" height="13" x="5" y="4.5" rx="1" ry="1"/>
 <rect style="fill:#40a02b" width="13" height="13" x="5" y="4" rx="1" ry="1"/>
 <path style="opacity:0.2;fill:#eff1f5" d="M 6,4 C 5.446,4 5,4.446 5,5 v 0.5 c 0,-0.554 0.446,-1 1,-1 h 11 c 0.554,0 1,0.446 1,1 V 5 C 18,4.446 17.554,4 17,4 Z"/>
 <rect style="opacity:0.2" width="13" height="13" x="2" y="1.5" rx="1" ry="1"/>
 <rect style="fill:#df8e1d" width="13" height="13" x="2" y="1" rx="1" ry="1"/>
 <path style="opacity:0.2;fill:#eff1f5" d="M 3,1 C 2.446,1 2,1.446 2,2 v 0.5 c 0,-0.554 0.446,-1 1,-1 h 11 c 0.554,0 1,0.446 1,1 V 2 C 15,1.446 14.554,1 14,1 Z"/>
</svg>
