<svg xmlns="http://www.w3.org/2000/svg" width="22" height="22" version="1.1">
 <circle style="opacity:0.2" cx="11" cy="11.5" r="10"/>
 <circle style="fill:#eff1f5" cx="11" cy="11" r="10"/>
 <path style="opacity:0.2;fill:#eff1f5" d="M 11,1 A 10,10 0 0 0 1,11 10,10 0 0 0 1.0098,11.293 10,10 0 0 1 11,1.5 10,10 0 0 1 20.99,11.207 10,10 0 0 0 21,11 10,10 0 0 0 11,1 Z"/>
 <circle style="opacity:0.2" cx="5" cy="11.5" r="2"/>
 <circle style="opacity:0.2" cx="11" cy="11.5" r="2"/>
 <circle style="opacity:0.2" cx="17" cy="11.5" r="2"/>
 <circle style="fill:#4c4f69" cx="5" cy="11" r="2"/>
 <path style="fill:#eff1f5" d="m 9.5857864,12.414214 a 2,2 0 0 0 2.8284276,0 2,2 0 0 0 0,-2.8284276 z"/>
 <path style="fill:#4c4f69" d="M 9.5857864,12.414214 12.414214,9.5857864 a 2,2 0 0 0 -2.8284276,0 2,2 0 0 0 0,2.8284276 z"/>
 <circle style="fill:#eff1f5" cx="17" cy="11" r="2"/>
 <path style="opacity:0.2" d="m 2,21.5 -1,-1 18,-18 -1,2 z"/>
 <path style="fill:#dc8a78" d="M 2,21 1,20 19,2 18,4 Z"/>
 <path style="opacity:0.1;fill:#eff1f5" d="M 19,2 1,20 1.25,20.25 18.5,3 Z"/>
</svg>
