<svg xmlns="http://www.w3.org/2000/svg" width="22" height="22" version="1.1">
 <rect style="opacity:0.2" width="6" height="20" x="-20.5" y="1" rx="1" ry="1" transform="matrix(0,-1,1,0,0,0)"/>
 <rect style="fill:#7287fd" width="6" height="20" x="-20" y="1" rx="1" ry="1" transform="matrix(0,-1,1,0,0,0)"/>
 <path style="opacity:0.5;stroke:#eff1f5;stroke-linecap:round" d="m 14.5,15.5 1,3"/>
 <path style="opacity:0.5;stroke:#eff1f5;stroke-linecap:round" d="m 16.5,15.5 1,3"/>
 <path style="opacity:0.5;stroke:#eff1f5;stroke-linecap:round" d="m 18.5,15.5 1,3"/>
 <path style="opacity:0.5;stroke:#eff1f5;stroke-linecap:round" d="m 12.5,15.5 1,3"/>
 <circle style="opacity:0.2" cx="-8" cy="16.5" r="1" transform="scale(-1,1)"/>
 <circle style="opacity:0.2" cx="-5.5" cy="16.5" r="1" transform="scale(-1,1)"/>
 <circle style="opacity:0.2" cx="-3" cy="16.5" r="1" transform="scale(-1,1)"/>
 <circle style="fill:#40a02b" cx="-8" cy="16" r="1" transform="scale(-1,1)"/>
 <circle style="fill:#40a02b" cx="-5.5" cy="16" r="1" transform="scale(-1,1)"/>
 <circle style="fill:#df8e1d" cx="-3" cy="16" r="1" transform="scale(-1,1)"/>
 <rect style="opacity:0.2" width="6" height="20" x="-14.5" y="1" rx="1" ry="1" transform="matrix(0,-1,1,0,0,0)"/>
 <rect style="fill:#7287fd" width="6" height="20" x="-14" y="1" rx="1" ry="1" transform="matrix(0,-1,1,0,0,0)"/>
 <path style="opacity:0.5;stroke:#eff1f5;stroke-linecap:round" d="m 14.5,9.5 1,3"/>
 <path style="opacity:0.5;stroke:#eff1f5;stroke-linecap:round" d="m 16.5,9.5 1,3"/>
 <path style="opacity:0.5;stroke:#eff1f5;stroke-linecap:round" d="m 18.5,9.5 1,3"/>
 <path style="opacity:0.5;stroke:#eff1f5;stroke-linecap:round" d="m 12.5,9.5 1,3"/>
 <circle style="opacity:0.2" cx="-5.5" cy="10.5" r="1" transform="scale(-1,1)"/>
 <circle style="opacity:0.2" cx="-3" cy="10.5" r="1" transform="scale(-1,1)"/>
 <circle style="fill:#40a02b" cx="-5.5" cy="10" r="1" transform="scale(-1,1)"/>
 <circle style="fill:#df8e1d" cx="-3" cy="10" r="1" transform="scale(-1,1)"/>
 <rect style="opacity:0.2" width="6" height="20" x="-8.5" y="1" rx="1" ry="1" transform="matrix(0,-1,1,0,0,0)"/>
 <rect style="fill:#7287fd" width="6" height="20" x="-8" y="1" rx="1" ry="1" transform="matrix(0,-1,1,0,0,0)"/>
 <path style="opacity:0.5;stroke:#eff1f5;stroke-linecap:round" d="m 14.5,3.5 1,3"/>
 <path style="opacity:0.5;stroke:#eff1f5;stroke-linecap:round" d="m 16.5,3.5 1,3"/>
 <path style="opacity:0.5;stroke:#eff1f5;stroke-linecap:round" d="m 18.5,3.5 1,3"/>
 <path style="opacity:0.5;stroke:#eff1f5;stroke-linecap:round" d="m 12.5,3.5 1,3"/>
 <circle style="opacity:0.2" cx="-3" cy="4.5" r="1" transform="scale(-1,1)"/>
 <circle style="fill:#df8e1d" cx="-3" cy="4" r="1" transform="scale(-1,1)"/>
 <path style="opacity:0.2;fill:#eff1f5" d="m 20,2 c 0.554,0 1,0.446 1,1 l 0,0.5 c 0,-0.554 -0.446,-1 -1,-1 l -18,0 c -0.554,0 -1,0.446 -1,1 L 1,3 C 1,2.446 1.446,2 2,2 Z"/>
</svg>
