<svg xmlns="http://www.w3.org/2000/svg" width="22" height="22" version="1">
 <rect style="opacity:0.2" width="20" height="16" x="1" y="3.5" rx="1"/>
 <path style="fill:#5c5f77" d="M 8,19 V 3 H 2 C 1.446,3 1,3.446 1,4 v 14 c 0,0.554 0.446,1 1,1 z"/>
 <path style="fill:#4c4f69" d="m 8,19 h 12 c 0.554,0 1,-0.446 1,-1 V 4 C 21,3.446 20.554,3 20,3 H 8 Z"/>
 <path style="opacity:0.2" d="m 3,8.5 v 6 h 2 v -4 h 2 v -2 H 5 Z"/>
 <path style="fill:#df8e1d" d="m 3,8 v 6 H 5 V 10 H 7 V 8 H 5 Z"/>
 <rect style="opacity:0.2" width="5" height="2" x="10" y="5.5" rx="1"/>
 <rect style="opacity:0.2" width="4" height="2" x="16" y="5.5" rx="1"/>
 <rect style="opacity:0.2" width="7" height="2" x="10" y="8.5" rx="1"/>
 <rect style="opacity:0.2" width="6" height="2" x="14" y="11.5" rx="1"/>
 <rect style="opacity:0.2" width="7" height="2" x="10" y="15.5" rx="1"/>
 <rect style="fill:#eff1f5" width="5" height="2" x="10" y="5" rx="1"/>
 <rect style="fill:#e64553" width="4" height="2" x="16" y="5" rx="1"/>
 <rect style="fill:#df8e1d" width="7" height="2" x="10" y="8" rx="1"/>
 <rect style="fill:#eff1f5" width="6" height="2" x="14" y="11" rx="1"/>
 <rect style="fill:#df8e1d" width="7" height="2" x="10" y="15" rx="1"/>
 <path style="opacity:0.1;fill:#eff1f5" d="M 2,3 C 1.446,3 1,3.446 1,4 v 0.5 c 0,-0.554 0.446,-1 1,-1 h 18 c 0.554,0 1,0.446 1,1 V 4 C 21,3.446 20.554,3 20,3 Z"/>
 <rect style="opacity:0.1" width=".5" height="16" x="8" y="3"/>
</svg>
