<svg xmlns="http://www.w3.org/2000/svg" width="22" height="22" version="1.1">
 <rect style="fill:#5c5f77" width="19" height="19" x="-20.5" y="-20.5" rx=".95" ry=".95" transform="matrix(0,-1,-1,0,0,0)"/>
 <path style="opacity:0.2" d="m 2,21.5 c -0.554,0 -1,-0.446 -1,-1 V 20 c 0,0.554 0.446,1 1,1 h 18 c 0.554,0 1,-0.446 1,-1 v 0.5 c 0,0.554 -0.446,1 -1,1 z"/>
 <path style="fill:#40a02b" d="m 11,11 v 10 h 9 c 0.554,0 1,-0.446 1,-1 v -9 z"/>
 <path style="fill:#04a5e5" d="M 11,1 V 11 H 21 V 2 C 21,1.446 20.554,1 20,1 Z"/>
 <path style="fill:#d20f39" d="M 2,1 C 1.446,1 1,1.446 1,2 v 9 H 11 V 1 Z"/>
 <path style="fill:#df8e1d" d="m 1,11 v 9 c 0,0.554 0.446,1 1,1 h 9 V 11 Z"/>
 <path style="opacity:0.1;fill:#eff1f5" d="M 2,1 C 1.446,1 1,1.446 1,2 v 0.5 c 0,-0.554 0.446,-1 1,-1 h 18 c 0.554,0 1,0.446 1,1 V 2 C 21,1.446 20.554,1 20,1 Z"/>
 <rect style="opacity:0.1;fill:#eff1f5" width="20" height=".5" x="1" y="11"/>
</svg>
