<svg xmlns="http://www.w3.org/2000/svg" width="22" height="22" version="1.1">
 <rect style="opacity:0.2" width="5" height="7" x="17" y="12.5" rx="1" ry="1"/>
 <rect style="opacity:0.2" width="5" height="7" x="11" y="12.5" rx="1" ry="1"/>
 <rect style="opacity:0.2" width="11" height="8" x="11" y="3.5" rx="1" ry="1"/>
 <rect style="opacity:0.2" width="10" height="16" x="0" y="3.5" rx="1" ry="1"/>
 <rect style="fill:#04a5e5" width="10" height="16" x="0" y="3" rx="1" ry="1"/>
 <rect style="fill:#e64553" width="11" height="8" x="11" y="3" rx="1" ry="1"/>
 <rect style="fill:#40a02b" width="5" height="7" x="11" y="12" rx="1" ry="1"/>
 <rect style="fill:#40a02b" width="5" height="7" x="17" y="12" rx="1" ry="1"/>
 <rect style="opacity:0.3" width="6" height="1" x="2" y="6"/>
 <rect style="opacity:0.3" width="6" height="1" x="2" y="9"/>
 <rect style="opacity:0.3" width="6" height="1" x="2" y="12"/>
 <rect style="opacity:0.3" width="4" height="1" x="2" y="15"/>
 <path style="opacity:0.3;fill:none;stroke:#eff1f5;stroke-width:0.5px;stroke-linecap:round;stroke-linejoin:round" d="m 13.252525,4.747475 1.5,1.5 -1.5,1.5"/>
 <path style="opacity:0.3;fill:none;stroke:#eff1f5;stroke-width:0.5px;stroke-linecap:round;stroke-linejoin:round" d="m 15.752525,4.747475 1.5,1.5 -1.5,1.5"/>
 <path style="opacity:0.3;fill:none;stroke:#eff1f5;stroke-width:0.5px;stroke-linecap:round;stroke-linejoin:round" d="m 18.252525,4.747475 1.5,1.5 -1.5,1.5"/>
 <path style="opacity:0.2;fill:#eff1f5" d="M 1,3 C 0.446,3 0,3.446 0,4 v 0.5 c 0,-0.554 0.446,-1 1,-1 h 8 c 0.554,0 1,0.446 1,1 V 4 C 10,3.446 9.554,3 9,3 Z"/>
 <path style="opacity:0.2;fill:#eff1f5" d="m 12,3 c -0.554,0 -1,0.446 -1,1 v 0.5 c 0,-0.554 0.446,-1 1,-1 h 9 c 0.554,0 1,0.446 1,1 V 4 C 22,3.446 21.554,3 21,3 Z"/>
 <path style="opacity:0.2;fill:#eff1f5" d="m 12,12 c -0.554,0 -1,0.446 -1,1 v 0.5 c 0,-0.554 0.446,-1 1,-1 h 3 c 0.554,0 1,0.446 1,1 V 13 c 0,-0.554 -0.446,-1 -1,-1 z"/>
 <path style="opacity:0.2;fill:#eff1f5" d="m 18,12 c -0.554,0 -1,0.446 -1,1 v 0.5 c 0,-0.554 0.446,-1 1,-1 h 3 c 0.554,0 1,0.446 1,1 V 13 c 0,-0.554 -0.446,-1 -1,-1 z"/>
</svg>
