<svg xmlns="http://www.w3.org/2000/svg" width="22" height="22" version="1.1">
 <circle style="opacity:0.2" cx="11" cy="11.5" r="10"/>
 <circle style="fill:#40a02b" cx="11" cy="11" r="10"/>
 <circle style="opacity:0.2" cx="11.5" cy="11" r="7.5"/>
 <circle style="fill:#eff1f5" cx="11.5" cy="10.5" r="7.5"/>
 <path style="fill:#40a02b" d="M 9,5.9032258 V 15.096774 L 16.741935,10.5 Z"/>
 <path style="opacity:0.1;fill:#eff1f5" d="M 11,1 A 10,10 0 0 0 1,11 10,10 0 0 0 1.0175781,11.25 10,10 0 0 1 11,1.5 10,10 0 0 1 20.991211,11.125 10,10 0 0 0 21,11 10,10 0 0 0 11,1 Z"/>
</svg>
