<svg xmlns="http://www.w3.org/2000/svg" width="22" height="22" version="1">
 <circle style="opacity:0.2" cx="11" cy="11.5" r="10"/>
 <circle style="fill:#4c4f69" cx="11" cy="11" r="10"/>
 <path style="opacity:0.2" d="m 6,14.5 h 5 v 5 z"/>
 <path style="fill:#04a5e5" d="m 6,14 h 5 v 5 z"/>
 <path style="opacity:0.2;fill:#eff1f5" d="m 6,14 0.5,0.5 H 11 V 14 Z"/>
 <path style="opacity:0.2" d="m 6,9.5 h 5 v 5 z"/>
 <path style="fill:#1e66f5" d="m 6,9 h 5 v 5 z"/>
 <path style="opacity:0.2" d="m 6,9.5 h 5 v -5 z"/>
 <path style="fill:#04a5e5" d="m 6,9 h 5 V 4 Z"/>
 <path style="opacity:0.2" d="m 16,9.5 h -5 v -5 z"/>
 <path style="fill:#1e66f5" d="M 16,9 H 11 V 4 Z"/>
 <path style="opacity:0.1;fill:#eff1f5" d="M 11,1 A 10,10 0 0 0 1,11 10,10 0 0 0 1.0107422,11.291016 10,10 0 0 1 11,1.5 10,10 0 0 1 20.989258,11.208985 10,10 0 0 0 21,11 10,10 0 0 0 11,1 Z"/>
 <path style="opacity:0.2;fill:#eff1f5" d="M 11,4 6,9 H 6.5 L 11,4.5 Z"/>
 <path style="opacity:0.1;fill:#eff1f5" d="M 11,4 V 4.5 L 15.5,9 H 16 Z"/>
</svg>
