<svg xmlns="http://www.w3.org/2000/svg" width="22" height="22" version="1.1">
 <rect style="opacity:0.2" width="20" height="20" x="1" y="1.5" rx="4" ry="4"/>
 <rect style="fill:#eff1f5" width="20" height="20" x="1" y="1" rx="4" ry="4"/>
 <path style="opacity:0.1" d="m 11,9.5 -4,2 4,2 -4,2 v 4 l 4,-2 4,-2 v -4 z"/>
 <path style="fill:#dc8a78" d="m 11.000645,9.000321 v 3.999405 h -0.0013 l -3.9993448,-1.99971 z"/>
 <path style="opacity:0.1" d="m 15,3.5 -4,2 -4,2 v 4 l 4,-2 4,-2 z"/>
 <path style="fill:#df8e1d" d="M 15,3 V 7.0006112 L 11.000627,4.9997099 Z"/>
 <path style="fill:#dc8a78" d="M 15,7.0006267 11.000627,9.000321 V 4.9997099 Z"/>
 <path style="fill:#8839ef" d="M 11.000645,4.9997099 V 9.000321 L 7.0000002,7.0006267 Z"/>
 <path style="fill:#8839ef" d="M 11.000645,17.000321 7.0000002,19 v -4.000581 z"/>
 <path fill="#d20f39" d="m 15,11.000031 v 3.999403 l -3.999373,-1.999708 z"/>
 <path fill="#d20f39" d="m 15,14.999434 -3.999373,2.000902 v -4.00061 z"/>
 <path fill="#ea76cb" d="m 11.000645,12.999726 v 4.00061 L 7.0000002,14.999434 10.999361,12.999726 Z"/>
 <path fill="#d20f39" d="m 15,11.000016 -3.999373,1.99971 V 9.000321 Z"/>
 <path style="fill:#e64553" d="m 11.000645,9.000306 -4.0006448,1.99971 V 7.0006112 Z"/>
 <path style="opacity:0.2;fill:#eff1f5" d="M 5,1 C 2.784,1 1,2.784 1,5 v 0.5 c 0,-2.216 1.784,-4 4,-4 h 12 c 2.216,0 4,1.784 4,4 V 5 C 21,2.784 19.216,1 17,1 Z"/>
</svg>
