<svg width="22" height="22" version="1.1" xmlns="http://www.w3.org/2000/svg">
 <path d="m8 17.5v3h-1v1h8v-1h-1v-3z" style="opacity:.2"/>
 <path d="m2 12.5h18v-2l-4-2h-10l-4 2z" style="opacity:.2"/>
 <path d="m8 17v3h-1v1h8v-1h-1v-3z" style="fill:#7287fd"/>
 <path d="m2 12h18v-2l-4-2h-10l-4 2z" style="fill:#d20f39"/>
 <path d="m6 8-4 2v0.5l4-2h10l4 2v-0.5l-4-2h-10z" style="fill:#eff1f5;opacity:.1"/>
 <path d="m10 1.5-4 7v5l-5 5v3h3l3-3h8l3 3h3v-3l-5-5v-5l-4-7z" style="opacity:.2"/>
 <path d="m10 1-4 7v5l-5 5v3h3l3-3h8l3 3h3v-3l-5-5v-5l-4-7h-2z" style="fill:#d20f39"/>
 <path d="m10.5 14.5-0.5 1v3h2v-3l-0.5-1z" style="opacity:.2"/>
 <path d="m10.5 14-0.5 1v3h2v-3l-0.5-1z" style="fill:#d20f39"/>
 <path d="m9 9.5h1v-1s0-1 1-1 1 1 1 1v1h1v-2s0-2-2-2-2 2-2 2z" style="opacity:.2"/>
 <path d="m9 9h1v-1s0-1 1-1 1 1 1 1v1h1v-2s0-2-2-2-2 2-2 2z" style="fill:#40a02b"/>
 <path d="m10 1-4 7v0.5l4-7h2l4 7v-0.5l-4-7h-2zm-4 12-5 5v0.5l5-5v-0.5zm10 0v0.5l5 5v-0.5l-5-5z" style="fill:#eff1f5;opacity:.2"/>
 <path d="m10.5 14-0.5 1v0.5l0.5-1h1l0.5 1v-0.5l-0.5-1h-1z" style="fill:#eff1f5;opacity:.2"/>
</svg>
