<svg xmlns="http://www.w3.org/2000/svg" width="32" height="32" version="1.1">
 <rect style="opacity:0.2" width="28" height="28" x="2" y="3" rx="2" ry="2"/>
 <rect style="fill:#8839ef" width="28" height="28" x="2" y="2" rx="2" ry="2"/>
 <path style="fill:#1e66f5" d="m 24,24 c -7.305911,3.023817 -12.628359,1.810799 -16,-4 3.75872,0.265761 7.984756,1.603175 12,-3 z"/>
 <path style="opacity:0.1;fill:#eff1f5" d="M 4,2 C 2.892,2 2,2.892 2,4 V 5 C 2,3.892 2.892,3 4,3 h 24 c 1.108,0 2,0.892 2,2 V 4 C 30,2.892 29.108,2 28,2 Z"/>
 <circle style="opacity:0.2" cx="22" cy="21.5" r="4.5"/>
 <path style="fill:#d20f39" d="M 8,8 C 15.418822,5.264878 21.85872,6.0615076 25,12 21.254589,11.587112 16.192588,10.557749 12,15 Z"/>
 <circle style="fill:#7287fd" cx="22" cy="20.5" r="4.5"/>
 <path style="opacity:0.1;fill:#eff1f5" d="M 22,16 A 4.5,4.5 0 0 0 17.5,20.5 4.5,4.5 0 0 0 17.535156,21 4.5,4.5 0 0 1 22,17 4.5,4.5 0 0 1 26.466797,20.96875 4.5,4.5 0 0 0 26.5,20.5 4.5,4.5 0 0 0 22,16 Z"/>
 <circle style="opacity:0.2" cx="-10" cy="-12.5" r="4.5" transform="scale(-1)"/>
 <circle style="fill:#dc8a78" cx="-10" cy="-11.5" r="4.5" transform="scale(-1)"/>
 <path style="fill:#eff1f5;opacity:0.2" transform="scale(-1)" d="M -10 -7 A 4.5 4.5 0 0 0 -5.5 -11.5 A 4.5 4.5 0 0 0 -5.5351562 -12 A 4.5 4.5 0 0 1 -10 -8 A 4.5 4.5 0 0 1 -14.466797 -11.96875 A 4.5 4.5 0 0 0 -14.5 -11.5 A 4.5 4.5 0 0 0 -10 -7 z"/>
</svg>
