<svg width="32" height="32" version="1.1" xmlns="http://www.w3.org/2000/svg">
 <path d="m2 17v3h4v11h24v-3h-4v-11h-14z" style="opacity:.2"/>
 <path d="m2 16v3h4v11h3v-11h3v-3z" style="fill:#04a5e5"/>
 <path d="m9 19v11h7v-14h-4v3z" style="fill:#1e66f5"/>
 <path d="m16 16v14h6.999999l1e-6 -14z" style="fill:#1e66f5"/>
 <path d="m23 16v14h7v-3h-4v-11z" style="fill:#4c4f69"/>
 <path d="m2 3v14h28v-4l-3-3 3-3v-4h-18z" style="opacity:.2"/>
 <path d="m2 16h10v-14h-10z" style="fill:#40a02b"/>
 <path d="m12 16h5v-4h6l-1e-6 -10h-10.999999z" style="fill:#40a02b"/>
 <path d="m17 12v4h12.999999l1e-6 -4-3-3 3-3-1e-6 -4h-7l1e-6 10z" style="fill:#40a02b"/>
 <path d="m7 6v5h1v-5zm10 0v5h1v-5zm-10 7v4h1v-4z" style="opacity:.2"/>
 <path d="m7 5v5h1v-5zm10 0v5h1v-5zm-10 7v4h1v-4z" style="fill:#eff1f5"/>
 <rect x="12" y="21" width="1" height="6" style="opacity:.2"/>
 <rect x="12" y="20" width="1" height="6" style="fill:#eff1f5"/>
 <rect x="19" y="21" width="1" height="6" style="opacity:.2"/>
 <rect x="19" y="20" width="1" height="6" style="fill:#eff1f5"/>
 <path d="m2 2v1h10 11 7v-1h-7-11-10zm25.5 7.5-0.5 0.5 3 3v-1l-2.5-2.5z" style="fill:#eff1f5;opacity:.2"/>
</svg>
