<svg xmlns="http://www.w3.org/2000/svg" width="32" height="32" version="1">
 <rect style="opacity:0.2" width="27" height="27" x="3" y="3" rx="8.1" ry="8.1"/>
 <rect style="fill:#4c4f69" width="27" height="27" x="3" y="2" rx="8.1" ry="8.1"/>
 <path style="stop-color:#eff1f5;opacity:0.2" d="m 13,11.000001 a 6,6 0 0 0 -6,6 6,6 0 0 0 6,6 6,6 0 0 0 1.75,-0.265625 6,6 0 0 0 1.75,0.265625 6,6 0 0 0 1.75,-0.265625 6,6 0 0 0 1.75,0.265625 6,6 0 0 0 6,-6 6,6 0 0 0 -6,-6 A 6,6 0 0 0 18.255859,11.26172 6,6 0 0 0 16.5,11.000001 6,6 0 0 0 14.755859,11.26172 6,6 0 0 0 13,11.000001 Z"/>
 <path style="fill:#7287fd" d="m 19,16 a 6,6 0 0 1 -6,6 6,6 0 0 1 -6,-6 6,6 0 0 1 6,-6 6,6 0 0 1 6,6 z"/>
 <path style="fill:#df8e1d" d="m 14,16 a 6,6 0 0 0 6,6 6,6 0 0 0 6,-6 6,6 0 0 0 -6,-6 6,6 0 0 0 -6,6 z"/>
 <path style="fill:#e64553" d="m 22.5,16 a 6,6 0 0 1 -6,6 6,6 0 0 1 -6,-6 6,6 0 0 1 6,-6 6,6 0 0 1 6,6 z"/>
 <path style="opacity:0.2;fill:#eff1f5" d="m 16.5,10 a 6,6 0 0 0 -6,6 6,6 0 0 0 0.03516,0.5 A 6,6 0 0 1 16.5,11 6,6 0 0 1 22.470703,16.412109 6,6 0 0 0 22.5,16 a 6,6 0 0 0 -6,-6 z"/>
 <path style="fill:#eff1f5;opacity:0.1" d="M 11.099609 2 C 6.6122097 2 3 5.6122097 3 10.099609 L 3 11.099609 C 3 6.6122097 6.6122097 3 11.099609 3 L 21.900391 3 C 26.38779 3 30 6.6122097 30 11.099609 L 30 10.099609 C 30 5.6122097 26.38779 2 21.900391 2 L 11.099609 2 z"/>
 <path style="opacity:0.2;fill:#eff1f5" d="M 13,10 A 6,6 0 0 0 7,16 6,6 0 0 0 7.03516,16.5 6,6 0 0 1 13,11 6,6 0 0 1 18.970703,16.412109 6,6 0 0 0 19,16 6,6 0 0 0 13,10 Z"/>
 <path style="opacity:0.2;fill:#eff1f5" d="m 20,10 a 6,6 0 0 0 -6,6 6,6 0 0 0 0.03516,0.5 A 6,6 0 0 1 20,11 6,6 0 0 1 25.970703,16.412109 6,6 0 0 0 26,16 6,6 0 0 0 20,10 Z"/>
 <path style="fill:#df8e1d" d="M 18.255859,10.261719 A 6,6 0 0 0 14,16 6,6 0 0 0 18.25,21.734375 6,6 0 0 0 22.5,16 6,6 0 0 0 18.255859,10.261719 Z"/>
 <path style="fill:#04a5e5" d="M 14.755859,10.261719 A 6,6 0 0 0 10.5,16 6,6 0 0 0 14.75,21.734375 6,6 0 0 0 19,16 6,6 0 0 0 14.755859,10.261719 Z"/>
 <path style="fill:#ea76cb" d="M 16.509766,11.136719 A 6,6 0 0 0 14,16 6,6 0 0 0 16.5,20.855469 6,6 0 0 0 19,16 6,6 0 0 0 16.509766,11.136719 Z"/>
</svg>
