<svg xmlns="http://www.w3.org/2000/svg" width="32" height="32" version="1">
 <rect style="opacity:0.2" width="28" height="28" x="2" y="3" rx="1.4" ry="1.4"/>
 <rect style="fill:#eff1f5" width="28" height="28" x="2" y="2" rx="1.4" ry="1.4"/>
 <path style="opacity:0.1" d="m 5,6 v 6 h 6 V 6 Z m 0,8 v 6 h 6 v -6 z m 8,0 v 6 h 6 v -6 z m 8,0 v 6 h 6 V 14 Z M 5,22 v 6 h 6 v -6 z m 8,0 v 6 h 6 v -6 z m 8,0 v 6 h 6 v -6 z"/>
 <rect style="fill:#ea76cb" width="6" height="6" x="13" y="13"/>
 <rect style="fill:#e64553" width="6" height="6" x="5" y="13"/>
 <rect style="fill:#dc8a78" width="6" height="6" x="21" y="13"/>
 <rect style="fill:#7287fd" width="6" height="6" x="13" y="21"/>
 <rect style="fill:#df8e1d" width="6" height="6" x="5" y="21"/>
 <rect style="fill:#40a02b" width="6" height="6" x="21" y="21"/>
 <rect style="fill:#04a5e5" width="6" height="6" x="5" y="5"/>
 <path style="fill:#eff1f5;opacity:0.2" d="M 3.4003906 2 C 2.6247906 2 2 2.6247906 2 3.4003906 L 2 4.4003906 C 2 3.6247906 2.6247906 3 3.4003906 3 L 28.599609 3 C 29.375209 3 30 3.6247906 30 4.4003906 L 30 3.4003906 C 30 2.6247906 29.375209 2 28.599609 2 L 3.4003906 2 z"/>
</svg>
