<svg xmlns="http://www.w3.org/2000/svg" width="32" height="32" version="1.1">
 <rect style="opacity:0.2" width="26" height="28" x="3" y="3" rx="2.167" ry="2.1"/>
 <rect style="fill:#1e66f5" width="26" height="28" x="3" y="2" rx="2.167" ry="2.1"/>
 <circle style="opacity:0.2" cx="16" cy="17" r="9"/>
 <path style="fill:#40a02b" d="M 16,16 H 7 c 0,-4.970563 4.029437,-9 9,-9 z"/>
 <path style="fill:#7287fd" d="M 16,16 H 7 c 0,4.970563 4.029437,9 9,9 z"/>
 <path style="fill:#e64553" d="m 16,16 h 9 c 0,4.970563 -4.029437,9 -9,9 z"/>
 <path style="fill:#40a02b" d="m 16,16 h 9 C 25,11.029437 20.970563,7 16,7 Z"/>
 <circle style="fill:#04a5e5" cx="16" cy="16" r="8"/>
 <circle style="fill:#1e66f5" cx="16" cy="16" r="4"/>
 <path style="opacity:0.1;fill:#eff1f5" d="M 5.1660156 2 C 3.9656822 2 3 2.9362094 3 4.0996094 L 3 5.0996094 C 3 3.9362094 3.9656822 3 5.1660156 3 L 26.833984 3 C 28.034318 3 29 3.9362094 29 5.0996094 L 29 4.0996094 C 29 2.9362094 28.034318 2 26.833984 2 L 5.1660156 2 z"/>
 <path style="opacity:0.2;fill:#eff1f5" d="M 16 7 A 9 9 0 0 0 7 16 A 9 9 0 0 0 7.0214844 16.576172 A 9 9 0 0 1 16 8 A 9 9 0 0 1 24.978516 16.423828 A 9 9 0 0 0 25 16 A 9 9 0 0 0 16 7 z"/>
</svg>
