<svg xmlns="http://www.w3.org/2000/svg" width="32" height="32" version="1">
 <rect style="opacity:0.2" width="28" height="29" x="-31" y="-31" rx="1.4" ry="1.45" transform="matrix(0,-1,-1,0,0,0)"/>
 <rect style="fill:#4c4f69" width="28" height="29" x="-30" y="-31" rx="1.4" ry="1.45" transform="matrix(0,-1,-1,0,0,0)"/>
 <path style="fill:#40a02b" d="m 28,9 h -5 v 3 h 5 z"/>
 <path style="fill:#179299" d="m 28,13 h -5 v 3 h 5 z"/>
 <path style="fill:#1e66f5" d="m 28,17 h -5 v 3 h 5 z"/>
 <path style="fill:#df8e1d" d="M 10,21 H 5 v 3 h 5 z"/>
 <path style="fill:#dc8a78" d="m 16,21 h -5 v 3 h 5 z"/>
 <path style="fill:#1e66f5" d="m 28,21 h -5 v 3 h 5 z"/>
 <path style="fill:#8839ef" d="m 22,20 h -5 v -3 h 5 z"/>
 <path style="fill:#e64553" d="m 22,24 h -5 v -3 h 5 z"/>
 <path style="fill:#dc8a78" d="m 16,17 h -5 v 3 h 5 z"/>
 <path style="fill:#df8e1d" d="m 16,13 h -5 v 3 h 5 z"/>
 <path style="opacity:0.2" d="M 23 12 L 23 13 L 28 13 L 28 12 L 23 12 z M 11 16 L 11 17 L 16 17 L 16 16 L 11 16 z M 23 16 L 23 17 L 28 17 L 28 16 L 23 16 z M 11 20 L 11 21 L 16 21 L 16 20 L 11 20 z M 17 20 L 17 21 L 22 21 L 22 20 L 17 20 z M 23 20 L 23 21 L 28 21 L 28 20 L 23 20 z M 5 24 L 5 25 L 10 25 L 10 24 L 5 24 z M 11 24 L 11 25 L 16 25 L 16 24 L 11 24 z M 17 24 L 17 25 L 22 25 L 22 24 L 17 24 z M 23 24 L 23 25 L 28 25 L 28 24 L 23 24 z"/>
 <path style="fill:#eff1f5;opacity:0.1" d="M 3.4492188 2 C 2.6459188 2 2 2.6247906 2 3.4003906 L 2 4.4003906 C 2 3.6247906 2.6459188 3 3.4492188 3 L 29.550781 3 C 30.354081 3 31 3.6247906 31 4.4003906 L 31 3.4003906 C 31 2.6247906 30.354081 2 29.550781 2 L 3.4492188 2 z"/>
</svg>
