<svg xmlns="http://www.w3.org/2000/svg" width="32" height="32" version="1.1">
 <circle style="opacity:0.2" cx="16" cy="17" r="14"/>
 <circle style="fill:#8839ef" cx="16" cy="16" r="14"/>
 <path style="opacity:0.1;fill:#eff1f5" d="M 16,2 A 14,14 0 0 0 2,16 14,14 0 0 0 2.0215,16.586 14,14 0 0 1 16,3 14,14 0 0 1 29.979,16.414 14,14 0 0 0 30,16 14,14 0 0 0 16,2 Z"/>
 <ellipse style="opacity:0.2" cx="7.5" cy="19.5" rx="4.5" ry="5.5"/>
 <ellipse style="fill:#eff1f5" cx="7.5" cy="18.5" rx="4.5" ry="5.5"/>
 <ellipse style="fill:#40a02b" cx="9" cy="18.5" rx="2" ry="2.5"/>
 <ellipse style="opacity:0.2" cx="15.5" cy="18.5" rx="5.5" ry="6.5"/>
 <ellipse style="fill:#eff1f5" cx="15.5" cy="17.5" rx="5.5" ry="6.5"/>
 <ellipse style="fill:#40a02b" cx="17.5" cy="17" rx="2.5" ry="3"/>
 <ellipse style="fill:#4c4f69" cx="17.5" cy="17" rx="1.5" ry="2"/>
 <ellipse style="fill:#4c4f69" cx="9" cy="18.5" rx="1" ry="1.5"/>
</svg>
