<svg xmlns="http://www.w3.org/2000/svg" width="32" height="32" version="1.1">
 <circle style="opacity:0.2" cx="16" cy="17" r="14"/>
 <circle style="fill:#209fb5" cx="16" cy="16" r="14"/>
 <circle style="fill:#179299" cx="16" cy="16" r="12"/>
 <path style="opacity:0.2" d="m 16,13 a 4,4 0 0 0 -4,4 4,4 0 0 0 4,4 4,4 0 0 0 4,-4 4,4 0 0 0 -4,-4 z m 7,4 a 7,7 0 0 1 -7,7 v 3 A 10,10 0 0 0 26,17 Z"/>
 <path style="fill:#179299" d="M 16 12 A 4 4 0 0 0 12 16 A 4 4 0 0 0 16 20 A 4 4 0 0 0 20 16 A 4 4 0 0 0 16 12 z M 23 16 A 7 7 0 0 1 16 23 L 16 26 A 10 10 0 0 0 26 16 L 23 16 z"/>
 <path style="opacity:0.2;fill:#eff1f5" d="M 16,2 A 14,14 0 0 0 2,16 14,14 0 0 0 2.0215,16.586 14,14 0 0 1 16,3 14,14 0 0 1 29.979,16.414 14,14 0 0 0 30,16 14,14 0 0 0 16,2 Z"/>
</svg>
