<svg xmlns="http://www.w3.org/2000/svg" width="32" height="32" version="1.1">
 <path style="opacity:.2" d="m15 3c-12.6 0-13 13-13 13h13v2c-12.6 0-13 13-13 13h28v-16s0-12-15-12z"/>
 <path style="fill:#df8e1d" d="m15 15 1.4-7-1.4-6c-12.6 0-13 13-13 13z"/>
 <path style="fill:#ea76cb" d="m15 30 1.4-7-1.4-6c-12.6 0-13 13-13 13z"/>
 <path style="fill:#1e66f5" d="m15 2v28h2l13-13v-3s0-12-15-12z"/>
 <path style="fill:#179299" d="m30 30v-13c-12.6 0-13 13-13 13z"/>
 <circle style="opacity:.1" cx="20.5" cy="9.5" r="1.5"/>
 <circle style="fill:#4c4f69" cx="20.5" cy="8.5" r="1.5"/>
 <path style="fill:#eff1f5" d="m21 8.5a0.5 0.5 0 0 1-0.5 0.5 0.5 0.5 0 0 1-0.5-0.5 0.5 0.5 0 0 1 0.5-0.5 0.5 0.5 0 0 1 0.5 0.5z"/>
 <path style="fill:#eff1f5;opacity:.2" d="m15 2c-12.6 0-13 13-13 13h0.10742c0.36976-2.9632 2.3398-12 12.893-12 15 0 15 12 15 12v-1s0-12-15-12zm0 15c-12.6 0-13 13-13 13h0.10742c0.36976-2.9632 2.3398-12 12.893-12v-1z"/>
 <path style="fill:#eff1f5;opacity:.2" d="m30 17c-12.6 0-13 13-13 13h0.10742c0.36976-2.9632 2.3398-12 12.893-12v-1z"/>
</svg>
