<svg xmlns="http://www.w3.org/2000/svg" height="32" width="32" version="1.1">
 <path style="opacity:.2" d="m22 25v4h-13v-13h4v9z"/>
 <path style="opacity:.2" d="m9 9v-4h14v13h-4v-9z"/>
 <path style="fill:#40a02b" d="m22 24v4h-13v-13h4v9z"/>
 <path style="opacity:.1;fill:#eff1f5" d="m9 15v1h4v-1h-4zm4 9v1h9v-1h-9z"/>
 <circle r="4" style="opacity:.2;fill-opacity:.99519228" cx="11" cy="7"/>
 <path style="fill:#7287fd" d="m9 8v-4h14v13h-4v-9z"/>
 <circle r="4" style="opacity:.2;fill-opacity:.99519228" cx="21" cy="7"/>
 <path style="opacity:.1;fill:#eff1f5" d="m9 4v1h14v-1h-14z"/>
 <circle r="4" style="opacity:.2;fill-opacity:.99519228" cx="11" cy="17"/>
 <circle r="4" style="fill-opacity:.99519228;fill:#04a5e5" cx="11" cy="6"/>
 <circle r="4" style="opacity:.2;fill-opacity:.99519228" cx="11" cy="27"/>
 <circle r="4" style="fill-opacity:.99519228;fill:#04a5e5" cx="21" cy="6"/>
 <circle r="4" style="opacity:.2;fill-opacity:.99519228" cx="21" cy="17"/>
 <circle r="4" style="fill-opacity:.99519228;fill:#40a02b" cx="11" cy="16"/>
 <circle r="4" style="opacity:.2;fill-opacity:.99519228" cx="21" cy="27"/>
 <circle r="4" style="fill-opacity:.99519228;fill:#40a02b" cx="11" cy="26"/>
 <circle r="4" style="fill-opacity:.99519228;fill:#04a5e5" cx="21" cy="16"/>
 <circle r="4" style="fill-opacity:.99519228;fill:#40a02b" cx="21" cy="26"/>
 <path style="opacity:.2;fill-opacity:.99519228;fill:#eff1f5" d="m11 2a4 4 0 0 0 -4 4 4 4 0 0 0 0.0351562 0.4941406 4 4 0 0 1 3.9648438 -3.4941406 4 4 0 0 1 3.964844 3.5058594 4 4 0 0 0 0.035156 -0.5058594 4 4 0 0 0 -4 -4z"/>
 <path style="opacity:.2;fill-opacity:.99519228;fill:#eff1f5" d="m21 2a4 4 0 0 0 -4 4 4 4 0 0 0 0.035156 0.4941406 4 4 0 0 1 3.964844 -3.4941406 4 4 0 0 1 3.964844 3.5058594 4 4 0 0 0 0.035156 -0.5058594 4 4 0 0 0 -4 -4z"/>
 <path style="opacity:.2;fill-opacity:.99519228;fill:#eff1f5" d="m11 12a4 4 0 0 0 -4 4 4 4 0 0 0 0.0351562 0.494141 4 4 0 0 1 3.9648438 -3.494141 4 4 0 0 1 3.964844 3.505859 4 4 0 0 0 0.035156 -0.505859 4 4 0 0 0 -4 -4z"/>
 <path style="opacity:.2;fill-opacity:.99519228;fill:#eff1f5" d="m11 22a4 4 0 0 0 -4 4 4 4 0 0 0 0.0351562 0.494141 4 4 0 0 1 3.9648438 -3.494141 4 4 0 0 1 3.964844 3.505859 4 4 0 0 0 0.035156 -0.505859 4 4 0 0 0 -4 -4z"/>
 <path style="opacity:.2;fill-opacity:.99519228;fill:#eff1f5" d="m21 12a4 4 0 0 0 -4 4 4 4 0 0 0 0.035156 0.494141 4 4 0 0 1 3.964844 -3.494141 4 4 0 0 1 3.964844 3.505859 4 4 0 0 0 0.035156 -0.505859 4 4 0 0 0 -4 -4z"/>
 <path style="opacity:.2;fill-opacity:.99519228;fill:#eff1f5" d="m21 22a4 4 0 0 0 -4 4 4 4 0 0 0 0.035156 0.494141 4 4 0 0 1 3.964844 -3.494141 4 4 0 0 1 3.964844 3.505859 4 4 0 0 0 0.035156 -0.505859 4 4 0 0 0 -4 -4z"/>
</svg>
