<svg width="32" height="32" version="1.1" xmlns="http://www.w3.org/2000/svg">
 <rect x="2" y="3" width="28" height="28" rx="2" ry="2" style="opacity:.2"/>
 <rect x="2" y="2" width="28" height="28" rx="2" ry="2" style="fill:#df8e1d"/>
 <path d="m16 13-9 2.627119 1 14.372881h13l2-13z" style="fill:#df8e1d"/>
 <path d="M 7,15.627119 8,30 h 6.6 L 16,13 Z" style="fill:#df8e1d"/>
 <path d="m17 4.8-11 4-1 7 2 0.627119 9-2.427119 7 3.8 2-1 1-6z" style="opacity:.2"/>
 <path d="m17 4-11 4-1 7 2 0.627119 9-2.427119 7 3.8 2-1 1-6z" style="fill:#40a02b"/>
 <path d="m5 15 2 0.627119 9-2.427119 7 3.8 2-1-9-4z" style="fill:#4c4f69"/>
 <path d="m17 4-11 4-1 7 11-3z" style="fill:#40a02b"/>
 <path d="M 10,20 7.3048781,21 7.4367115,23 10,22 Z M 7.5086207,24 7.6404542,26 9,25.474576 v -2 z" style="opacity:.2"/>
 <path d="M 10,19 7.3048781,20 7.4367115,22 10,21 Z M 7.5086207,23 7.6404542,25 9,24.474576 v -2 z" style="fill:#df8e1d"/>
 <path d="m17 4-11 4-1 7 0.109375 0.035156 0.890625-6.2343748 11-4 8.878906 5.9199218 0.121094-0.720703-9-6z" style="fill:#eff1f5;opacity:.1"/>
 <path d="m4 2c-1.108 0-2 0.892-2 2v1c0-1.108 0.892-2 2-2h24c1.108 0 2 0.892 2 2v-1c0-1.108-0.892-2-2-2h-24z" style="fill:#eff1f5;opacity:.2"/>
</svg>
