<svg width="32" height="32" version="1.1" xmlns="http://www.w3.org/2000/svg">
 <path d="m8 14 8 17 8-17-8-11z" style="opacity:.2"/>
 <path d="m8 13 8 17 8-17-8-11z" style="fill:#4c4f69"/>
 <circle cx="16" cy="14" r="4" style="opacity:.2"/>
 <circle cx="16" cy="13" r="4" style="fill:#e64553"/>
 <path d="M 16 3 L 8.2851562 13.607422 L 16 30 L 16 11 L 23.599609 13.849609 L 23.714844 13.607422 L 16 3 z " style="opacity:.2"/>
 <path d="M 16,11 V 2.00028 L 8,13 Z" style="fill:#4c4f69"/>
 <path d="m16 2.00028v7.99972l8 3zm0 7.99972-8 3 8 17.00028z" style="fill:#5c5f77"/>
 <path d="m16 2-8 11 1-0.375 7-9.625 7 9.625 1 0.375-8-11z" style="fill:#eff1f5;opacity:.1"/>
</svg>
