<svg xmlns="http://www.w3.org/2000/svg" width="32" height="32" version="1">
 <circle style="opacity:0.2" cx="16" cy="17" r="14"/>
 <circle style="fill:#eff1f5" cx="16" cy="16" r="14"/>
 <circle style="fill:#4c4f69" cx="16" cy="16" r="12"/>
 <circle style="opacity:0.4" cx="16" cy="16" r="11"/>
 <circle style="fill:#ea76cb" cx="16" cy="16" r="8.999"/>
 <path style="fill:#8839ef" d="M 16 10 A 6 6 0 0 0 10 16 A 6 6 0 0 0 16 22 A 6 6 0 0 0 22 16 A 6 6 0 0 0 16 10 z M 16 12 A 4 4 0 0 1 20 16 A 4 4 0 0 1 16 20 A 4 4 0 0 1 12 16 A 4 4 0 0 1 16 12 z"/>
 <path style="opacity:0.2;fill:#eff1f5" d="M 16 2 A 14 14 0 0 0 2 16 A 14 14 0 0 0 2.0352 16.5 A 14 14 0 0 1 16 3 A 14 14 0 0 1 29.98 16.279 A 14 14 0 0 0 30 16 A 14 14 0 0 0 16 2 z"/>
 <circle style="fill:#ea76cb" cx="12.5" cy="12.5" r="2.5"/>
 <circle style="fill:#dce0e8" cx="19.999" cy="19.999" r="2"/>
 <circle style="fill:#04a5e5" cx="16.5" cy="16.5" r="1.5"/>
</svg>
