<svg xmlns="http://www.w3.org/2000/svg" width="32" height="32" version="1.1">
 <path style="opacity:0.2" d="M 16,4 A 9,9 0 0 0 7.0039062,12.941406 9,9 0 0 0 2,21 9,9 0 0 0 11,30 9,9 0 0 0 15.998047,28.476562 9,9 0 0 0 21,30 9,9 0 0 0 30,21 9,9 0 0 0 24.998047,12.949219 9,9 0 0 0 16,4 Z"/>
 <circle style="fill:#40a02b" cx="11" cy="20" r="9"/>
 <circle style="fill:#1e66f5" cx="21" cy="20" r="9"/>
 <circle style="fill:#d20f39" cx="16" cy="12" r="9"/>
 <path style="fill:#40a02b" d="M 11 11 A 9 9 0 0 0 7.0039062 11.941406 A 9 9 0 0 0 7 12 A 9 9 0 0 0 12.001953 20.058594 A 9 9 0 0 1 12 20 A 9 9 0 0 1 16 12.525391 A 9 9 0 0 0 11 11 z"/>
 <path style="fill:#04a5e5" d="M 12.001953 20.050781 A 9 9 0 0 0 15.998047 27.476562 A 9 9 0 0 0 19.998047 20.058594 A 9 9 0 0 1 16 21 A 9 9 0 0 1 12.001953 20.050781 z"/>
 <path style="fill:#ea76cb" d="M 21 11 A 9 9 0 0 0 16 12.521484 A 9 9 0 0 1 20 20 A 9 9 0 0 1 19.998047 20.050781 A 9 9 0 0 0 25 12 A 9 9 0 0 0 24.998047 11.949219 A 9 9 0 0 0 21 11 z"/>
 <path style="fill:#eff1f5" d="M 16.001953 12.523438 A 9 9 0 0 0 12 20 A 9 9 0 0 0 12.001953 20.050781 A 9 9 0 0 0 16 21 A 9 9 0 0 0 19.998047 20.058594 A 9 9 0 0 0 20 20 A 9 9 0 0 0 16.001953 12.523438 z"/>
 <path style="opacity:0.2;fill:#eff1f5" d="M 16 3 A 9 9 0 0 0 7 12 A 9 9 0 0 0 7.0214844 12.576172 A 9 9 0 0 1 16 4 A 9 9 0 0 1 24.978516 12.423828 A 9 9 0 0 0 25 12 A 9 9 0 0 0 16 3 z"/>
</svg>
