<svg xmlns="http://www.w3.org/2000/svg" width="32" height="32" version="1.1">
 <path style="opacity:0.2" d="M 16,3 A 14,14 0 0 0 2,17 14,14 0 0 0 16,31 14,14 0 0 0 30,17 14,14 0 0 0 16,3 Z"/>
 <path style="fill:#dd7878" d="M 16,2 A 14,14 0 0 0 2,16 14,14 0 0 0 16,30 14,14 0 0 0 30,16 14,14 0 0 0 16,2 Z"/>
 <rect style="opacity:0.2" width="14" height="14" x="9" y="10" rx="2.5" ry="2.5"/>
 <rect style="fill:#eff1f5" width="14" height="14" x="9" y="9" rx="2.5" ry="2.5"/>
 <rect style="fill:#e64553" width="10" height="10" x="11" y="11" rx="1.5" ry="1.5"/>
 <path style="fill:#eff1f5;opacity:0.2" d="M 16 2 A 14 14 0 0 0 2 16 A 14 14 0 0 0 2.0214844 16.414062 A 14 14 0 0 1 16 3 A 14 14 0 0 1 29.978516 16.585938 A 14 14 0 0 0 30 16 A 14 14 0 0 0 16 2 z"/>
</svg>
