<svg xmlns="http://www.w3.org/2000/svg" width="32" height="32" version="1">
 <circle style="opacity:0.2" cx="16" cy="17" r="14"/>
 <circle style="fill:#4c4f69" cx="16" cy="16" r="14"/>
 <path style="opacity:0.2" d="m 9,21 h 7 v 7 z"/>
 <path style="fill:#04a5e5" d="m 9,20 h 7 v 7 z"/>
 <path style="fill:#eff1f5;opacity:0.2" d="M 9 20 L 10 21 L 16 21 L 16 20 L 9 20 z"/>
 <path style="opacity:0.2" d="m 9,14 h 7 v 7 z"/>
 <path style="fill:#1e66f5" d="m 9,13 h 7 v 7 z"/>
 <path style="opacity:0.2" d="m 9,14 h 7 V 7 Z"/>
 <path style="fill:#04a5e5" d="m 9,13 h 7 V 6 Z"/>
 <path style="opacity:0.2" d="M 23,14 H 16 V 7 Z"/>
 <path style="fill:#1e66f5" d="M 23,13 H 16 V 6 Z"/>
 <path style="fill:#eff1f5;opacity:0.2" d="M 16 6 L 9 13 L 10 13 L 16 7 L 16 6 z"/>
 <path style="fill:#eff1f5;opacity:0.1" d="M 16 6 L 16 7 L 22 13 L 23 13 L 16 6 z"/>
 <path style="opacity:0.1;fill:#eff1f5" d="M 16 2 A 14 14 0 0 0 2 16 A 14 14 0 0 0 2.0214844 16.585938 A 14 14 0 0 1 16 3 A 14 14 0 0 1 29.978516 16.414062 A 14 14 0 0 0 30 16 A 14 14 0 0 0 16 2 z"/>
</svg>
