<svg width="32" height="32" version="1.1" xmlns="http://www.w3.org/2000/svg">
 <circle cx="16" cy="17" r="14" style="opacity:.2"/>
 <circle cx="16" cy="16" r="14" style="fill:#eff1f5"/>
 <path d="M 16,2 A 14,14 0 0 0 2,16 14,14 0 0 0 2.0215,16.586 14,14 0 0 1 16,3 14,14 0 0 1 29.979,16.414 14,14 0 0 0 30,16 14,14 0 0 0 16,2 Z" style="fill:#eff1f5;opacity:.2"/>
 <path d="m16 6-6 11 6 11 6-11z" style="opacity:.1"/>
 <path d="m16 5-6 11 6 11 6-11z" style="fill:#40a02b"/>
 <path d="m13 16h6l-3-11z" style="fill:#40a02b"/>
 <path d="m10 16 6 11-3-11zm6 11 6-11h-3z" style="fill:#40a02b;opacity:.4"/>
 <path d="m16 5-6 11 0.273438 0.5 5.726562-10.5 5.726562 10.5 0.273438-0.5-6-11z" style="fill:#eff1f5;opacity:.2"/>
</svg>
