<svg width="32" height="32" version="1.1" xmlns="http://www.w3.org/2000/svg">
 <path d="m15.575209 3.0009313a3.1706084 3.1835035 0 0 0-1.660444 0.4246864l-9.3293219 5.408155a3.1706084 3.1835035 0 0 0-1.5854431 2.7572773v10.817009a3.1706084 3.1835035 0 0 0 1.5853042 2.756997l9.3293218 5.408435a3.1706084 3.1835035 0 0 0 3.170609 0l9.329321-5.408435a3.1706084 3.1835035 0 0 0 1.585444-2.757277v-10.817009a3.1706084 3.1835035 0 0 0-1.585444-2.7572773l-9.329321-5.408155a3.1706084 3.1835035 0 0 0-1.510443-0.4246864z" style="opacity:.2"/>
 <path d="m15.575209 2.0009311a3.1706084 3.1835035 0 0 0-1.660444 0.4246864l-9.3293219 5.408155a3.1706084 3.1835035 0 0 0-1.5854431 2.7572775v10.817009a3.1706084 3.1835035 0 0 0 1.5853042 2.756997l9.3293218 5.408435a3.1706084 3.1835035 0 0 0 3.170609 0l9.329321-5.408435a3.1706084 3.1835035 0 0 0 1.585444-2.757277v-10.817009a3.1706084 3.1835035 0 0 0-1.585444-2.7572775l-9.329321-5.408155a3.1706084 3.1835035 0 0 0-1.510443-0.4246864z" style="fill:#4c4f69"/>
 <path d="m15.574219 2a3.1706084 3.1835035 0 0 0-1.660157 0.4257812l-9.3281245 5.4082032a3.1706084 3.1835035 0 0 0-1.5859375 2.7578126v1a3.1706084 3.1835035 0 0 1 1.5859375-2.7578126l9.3281245-5.4082032a3.1706084 3.1835035 0 0 1 1.660157-0.4257812h2e-3a3.1706084 3.1835035 0 0 1 1.509766 0.4257812l9.328124 5.4082032a3.1706084 3.1835035 0 0 1 1.585891 2.7558596v-1a3.1706084 3.1835035 0 0 0-1.585938-2.7558596l-9.328124-5.4082032a3.1706084 3.1835035 0 0 0-1.509766-0.4257812z" style="fill:#eff1f5;opacity:.1"/>
 <path d="m12 7-4 2v4l-4 2v4l4 2v4l4 2 4-2 4 2 4-2v-4l4-2v-4l-4-2v-4l-4-2-4 2z" style="opacity:.2"/>
 <path d="m16 12 4 2v4l-4 2-4-2v-4z" style="fill:#eff1f5"/>
 <path d="m20 6 4 2v4l-4 2-4-2v-4z" style="fill:#7287fd"/>
 <path d="m24 12 4 2v4l-4 2-4-2v-4z" style="fill:#40a02b"/>
 <path d="m8 12 4 2v4l-4 2-4-2v-4z" style="fill:#40a02b"/>
 <path d="m12 6 4 2v4l-4 2-4-2v-4z" style="fill:#dc8a78"/>
 <path d="m12 18 4 2v4l-4 2-4-2v-4z" style="fill:#df8e1d"/>
 <path d="m20 18 4 2v4l-4 2-4-2v-4z" style="fill:#8839ef"/>
</svg>
