<svg xmlns="http://www.w3.org/2000/svg" width="24" height="24" version="1.1">
 <circle style="opacity:0.2" cx="12" cy="12.5" r="10"/>
 <circle style="fill:#df8e1d" cx="12" cy="12" r="10"/>
 <path style="opacity:0.2;fill:#eff1f5" d="M 12,2 A 10,10 0 0 0 2,12 10,10 0 0 0 2.01075,12.291 10,10 0 0 1 12,2.5 10,10 0 0 1 21.9895,12.209 10,10 0 0 0 22,12 10,10 0 0 0 12,2 Z"/>
 <circle style="opacity:0.2" cx="12" cy="12.5" r="7"/>
 <circle style="fill:#eff1f5" cx="12" cy="12" r="7"/>
 <path style="fill:#4c4f69" d="M 10.357422 6.2578125 L 8.9433594 7.671875 L 13.185547 11.914062 L 8.9433594 16.15625 L 10.357422 17.570312 L 14.599609 13.328125 L 16.013672 11.914062 L 14.599609 10.5 L 10.357422 6.2578125 z"/>
</svg>
