<svg xmlns="http://www.w3.org/2000/svg" width="24" height="24" version="1">
 <rect style="opacity:0.2" width="20" height="20" x="2" y="2.5" rx="6" ry="6"/>
 <rect style="fill:#eff1f5" width="20" height="20" x="2" y="2" rx="6" ry="6"/>
 <path style="opacity:0.2;fill:#eff1f5" d="M 8,2 C 4.676,2 2,4.676 2,8 v 0.5 c 0,-3.324 2.676,-6 6,-6 h 8 c 3.324,0 6,2.676 6,6 V 8 C 22,4.676 19.324,2 16,2 Z"/>
 <path style="fill:#04a5e5" d="m 5.29833,15.052805 9.531691,-7.478845 0.952698,2.815571 0.83089,1.34117 -6.9842531,4.544327 -1.0136007,0.483723 -1.0548886,-0.100429 0.4503114,0.318244 z"/>
 <circle style="fill:#04a5e5" cx="12" cy="10" r="4"/>
 <circle style="fill:#04a5e5" cx="7.5" cy="13.5" r="3.5"/>
 <path style="fill:none;stroke:#04a5e5;stroke-width:2;stroke-linecap:round;stroke-linejoin:round" d="m 15.591569,11.172564 a 2.5,2.5 0 0 1 3.029018,1.005663 2.5,2.5 0 0 1 -0.42763,3.162823 2.5,2.5 0 0 1 -3.187323,0.165181"/>
 <path style="fill:none;stroke:#dd7878;stroke-width:2;stroke-linecap:round;stroke-linejoin:round" d="m 14.958857,10.495143 a 3,3 0 0 1 -2.95493,2.504854 3,3 0 0 1 -2.9614774,-2.49711"/>
 <circle style="opacity:0.2" cx="7.5" cy="14" r="1.5"/>
 <circle style="fill:#eff1f5" cx="7.5" cy="13.5" r="1.5"/>
 <circle style="opacity:0.2" cx="12" cy="10.5" r="2"/>
 <circle style="fill:#eff1f5" cx="12" cy="10" r="2"/>
 <circle style="opacity:0.2" cx="16.5" cy="14" r="1.5"/>
 <circle style="fill:#eff1f5" cx="16.5" cy="13.5" r="1.5"/>
 <rect style="fill:#dd7878" width="4" height="1" x="8" y="21"/>
 <rect style="fill:#04a5e5" width="4" height="1" x="12" y="21"/>
</svg>
