<svg xmlns="http://www.w3.org/2000/svg" height="24" width="24" version="1.1">
 <g transform="translate(1,1)">
  <circle style="opacity:.2" cx="11" r="10" cy="11.5"/>
  <circle style="fill:#eff1f5" cx="11" r="10" cy="11"/>
  <circle cx="11" cy="11.5" r="6" style="opacity:.1"/>
  <path style="opacity:.2;fill:#eff1f5" d="m11 1a10 10 0 0 0 -10 10 10 10 0 0 0 0.0098 0.293 10 10 0 0 1 9.9902 -9.793 10 10 0 0 1 9.99 9.707 10 10 0 0 0 0.01 -0.207 10 10 0 0 0 -10 -10z"/>
  <circle cx="11" cy="11" r="6" style="fill:#e64553"/>
  <path style="fill:#8839ef" d="m11 5a6 6 0 0 0 -3.3261719 1.0117188l3.3261719 4.9882812 3.326172-4.9902344a6 6 0 0 0 -3.326172 -1.0097656z"/>
  <path style="fill:#1e66f5" d="m14.326172 6.0097656-3.326172 4.9902344h6a6 6 0 0 0 -2.673828 -4.9902344z"/>
  <path style="fill:#df8e1d" d="m11 11-3.3261719 4.990234a6 6 0 0 0 3.3261719 1.009766 6 6 0 0 0 3.326172 -1.011719z"/>
  <path style="fill:#40a02b" d="m11 11 3.326172 4.988281a6 6 0 0 0 2.673828 -4.988281z"/>
  <path style="fill:#dc8a78" d="m5 11a6 6 0 0 0 2.6738281 4.990234l3.3261719-4.990234z"/>
  <circle cx="11" cy="11.5" r="4" style="opacity:.1"/>
  <circle cx="11" cy="11" r="4" style="fill:#4c4f69"/>
  <circle cx="9" cy="9.5" r="1" style="opacity:.2"/>
  <circle cx="9" cy="9" r="1" style="fill:#eff1f5"/>
  <path style="opacity:.2;fill:#eff1f5" d="m11 5a6 6 0 0 0 -6 6 6 6 0 0 0 0.00977 0.285156 6 6 0 0 1 5.99023 -5.785156 6 6 0 0 1 5.990234 5.714844 6 6 0 0 0 0.009766 -0.214844 6 6 0 0 0 -6 -6z"/>
 </g>
</svg>
