<svg xmlns="http://www.w3.org/2000/svg" width="24" height="24" version="1">
 <rect fill="#4c4f69" width="20" height="20" x="2" y="2" rx="1" ry="1"/>
 <path fill="#eff1f5" opacity=".1" d="m3 2c-0.554 0-1 0.446-1 1v0.5c0-0.554 0.446-1 1-1h18c0.554 0 1 0.446 1 1v-0.5c0-0.554-0.446-1-1-1h-18z"/>
 <path opacity=".2" d="m3 22.5c-0.554 0-1-0.446-1-1v-0.5c0 0.554 0.446 1 1 1h18c0.554 0 1-0.446 1-1v0.5c0 0.554-0.446 1-1 1h-18z"/>
 <path fill="#7287fd" d="m7 7v10h10v-10h-10zm2 2h6v6h-6v-6z"/>
 <rect opacity=".2" width="7" height="7" x="5" y="13.5"/>
 <rect fill="#04a5e5" width="7" height="7" x="5" y="13"/>
 <rect opacity=".2" width="7" height="5" x="5" y="5.5"/>
 <rect fill="#ea76cb" width="7" height="5" x="5" y="5"/>
 <circle opacity=".2" cx="16.5" cy="8" r="2.5"/>
 <circle fill="#e64553" cx="16.5" cy="7.5" r="2.5"/>
 <rect opacity=".2" width="6" height="5" x="13" y="14.5"/>
 <rect fill="#40a02b" width="6" height="5" x="13" y="14"/>
</svg>
