<svg xmlns="http://www.w3.org/2000/svg" width="24" height="24" version="1.1">
 <path style="opacity:0.2" d="m12 2.5v5h-5l-5 5h5v5l5 5v-5h5l4.5-4.5 0.5-0.5h-5v-5z"/>
 <path style="fill:#df8e1d" d="m7 7-5 5h10v-5"/>
 <path style="fill:#e64553" d="m17 7-5-5v10h5"/>
 <path style="fill:#40a02b" d="m7 17 5 5v-10h-5"/>
 <path style="fill:#04a5e5" d="m17 17 5-5h-10v5"/>
 <path style="opacity:0.2;fill:#eff1f5" d="m12 12v0.5h9.5l0.5-0.5z"/>
 <path style="fill:#8839ef" d="m17 7-5 5h5z"/>
 <path style="fill:#40a02b" d="m7 12v5l5-5z"/>
 <path style="fill:#1e66f5" d="m12 12v5h5z"/>
 <path style="fill:#df8e1d" d="m7 7 5 5v-5z"/>
 <path style="opacity:0.2;fill:#eff1f5" d="m12 2v0.5l5 5v-0.5zm-5 5-5 5h0.5l4.5-4.5h5v-0.5z"/>
 <path style="opacity:0.2" d="m12 9.5-1 2-2 1 2 1 1 2 1-2 2-1-2-1z"/>
 <path style="fill:#eff1f5" d="m12 9-1 2-2 1 2 1 1 2 1-2 2-1-2-1z"/>
 <path style="fill:#eff1f5" d="m9 12 2 1 1 2-0-3z"/>
 <path style="fill:#eff1f5" d="m15 12-2 1-1 2-0-3z"/>
</svg>
