<svg xmlns="http://www.w3.org/2000/svg" width="24" height="24" version="1.1">
 <rect style="opacity:0.2" width="20" height="20" x="2" y="2.5" rx="1" ry="1"/>
 <path style="fill:#40a02b" d="m 3,2 h 18 c 0.554,0 1,0.446 1,1 v 18 c 0,0.554 -0.446,1 -1,1 H 6.1468645 L 3.4125412,21.463696 C 2.8688995,21.357068 3.0189544,21.243784 2.8663367,20.711221 L 2,17.688119 V 3 C 2,2.446 2.446,2 3,2 Z"/>
 <path style="opacity:0.1;fill:#eff1f5" d="M 3,2 C 2.446,2 2,2.446 2,3 v 0.5 c 0,-0.554 0.446,-1 1,-1 h 18 c 0.554,0 1,0.446 1,1 V 3 C 22,2.446 21.554,2 21,2 Z"/>
 <rect style="opacity:0.2" width="14" height="14" x="5" y="5.5" rx=".7" ry=".7"/>
 <rect style="fill:#eff1f5" width="14" height="14" x="5" y="5" rx=".7" ry=".7"/>
 <path style="fill:#df8e1d" d="M 2,17.609375 V 21 c 0,0.554 0.446,1 1,1 h 3.390625 z"/>
 <path style="opacity:0.2;fill:#eff1f5" d="M 5.7001955,5 C 5.3123955,5 5,5.3123955 5,5.7001955 v 0.5 C 5,5.8123955 5.3123955,5.5 5.7001955,5.5 H 18.299804 C 18.687604,5.5 19,5.8123955 19,6.2001955 v -0.5 C 19,5.3123955 18.687604,5 18.299804,5 Z"/>
 <path style="opacity:0.1" d="m 2,17.609375 v 0.5 L 5.890625,22 h 0.5 z"/>
 <rect style="fill:#4c4f69" width="2" height="7" x="11" y="10"/>
 <rect style="fill:#4c4f69" width="2" height="2" x="11" y="7"/>
</svg>
