<svg xmlns="http://www.w3.org/2000/svg" width="24" height="24" version="1.1">
 <circle style="opacity:0.2" cx="12" cy="12.5" r="10"/>
 <circle style="fill:#1e66f5" cx="12" cy="12" r="10"/>
 <path style="opacity:0.1;fill:#eff1f5" d="M 12,2 A 10,10 0 0 0 2,12 10,10 0 0 0 2.01075,12.291 10,10 0 0 1 12,2.5 10,10 0 0 1 21.9895,12.209 10,10 0 0 0 22,12 10,10 0 0 0 12,2 Z"/>
 <path style="opacity:0.2;fill:none;stroke:#eff1f5;stroke-width:3" d="m 16.5,7.5 c 0,5 -3,9.5 -6.5,9.5 M 8.5,7.5 v 11"/>
 <path style="fill:none;stroke:#eff1f5;stroke-width:3" d="m 16.5,7 c 0,5 -3,9.5 -6.5,9.5 M 8.5,7 v 11"/>
</svg>
