<svg xmlns="http://www.w3.org/2000/svg" width="24" height="24" version="1">
 <g transform="translate(1,1)">
  <rect fill="#04a5e5" width="20" height="20" x="-21" y="-21" rx="1" ry="1" transform="matrix(0,-1,-1,0,0,0)"/>
  <path fill="#eff1f5" opacity=".1" d="m2 1c-0.554 0-1 0.446-1 1v0.5c0-0.554 0.446-1 1-1h18c0.554 0 1 0.446 1 1v-0.5c0-0.554-0.446-1-1-1h-18z"/>
  <path opacity=".2" d="m2 21.5c-0.554 0-1-0.446-1-1v-0.5c0 0.554 0.446 1 1 1h18c0.554 0 1-0.446 1-1v0.5c0 0.554-0.446 1-1 1h-18z"/>
  <path opacity=".2" d="m10 7a3.5 3.5 0 0 1 -3.5 3.5 3.5 3.5 0 0 1 -3.5 -3.5 3.5 3.5 0 0 1 3.5 -3.5 3.5 3.5 0 0 1 3.5 3.5z"/>
  <path fill="#eff1f5" d="m10 6.5a3.5 3.5 0 0 1 -3.5 3.5 3.5 3.5 0 0 1 -3.5 -3.5 3.5 3.5 0 0 1 3.5 -3.5 3.5 3.5 0 0 1 3.5 3.5z"/>
  <path opacity=".2" d="m19 7a3.5 3.5 0 0 1 -3.5 3.5 3.5 3.5 0 0 1 -3.5 -3.5 3.5 3.5 0 0 1 3.5 -3.5 3.5 3.5 0 0 1 3.5 3.5z"/>
  <path fill="#dc8a78" d="m19 6.5a3.5 3.5 0 0 1 -3.5 3.5 3.5 3.5 0 0 1 -3.5 -3.5 3.5 3.5 0 0 1 3.5 -3.5 3.5 3.5 0 0 1 3.5 3.5z"/>
  <path fill="#4c4f69" d="m10 16a3.5 3.5 0 0 1 -3.5 3.5 3.5 3.5 0 0 1 -3.5 -3.5 3.5 3.5 0 0 1 3.5 -3.5 3.5 3.5 0 0 1 3.5 3.5z"/>
  <path opacity=".2" d="m19 16.5a3.5 3.5 0 0 1 -3.5 3.5 3.5 3.5 0 0 1 -3.5 -3.5 3.5 3.5 0 0 1 3.5 -3.5 3.5 3.5 0 0 1 3.5 3.5z"/>
  <path fill="#dc8a78" d="m19 16a3.5 3.5 0 0 1 -3.5 3.5 3.5 3.5 0 0 1 -3.5 -3.5 3.5 3.5 0 0 1 3.5 -3.5 3.5 3.5 0 0 1 3.5 3.5z"/>
 </g>
</svg>
