<svg xmlns="http://www.w3.org/2000/svg" width="24" height="24" version="1.1">
 <rect style="fill:#5c5f77" width="19" height="19" x="-21.5" y="-21.5" rx=".95" ry=".95" transform="matrix(0,-1,-1,0,0,0)"/>
 <path style="opacity:0.2" d="m 3,22.5 c -0.554,0 -1,-0.446 -1,-1 V 21 c 0,0.554 0.446,1 1,1 h 18 c 0.554,0 1,-0.446 1,-1 v 0.5 c 0,0.554 -0.446,1 -1,1 z"/>
 <path style="fill:#40a02b" d="m 12,12 v 10 h 9 c 0.554,0 1,-0.446 1,-1 v -9 z"/>
 <path style="fill:#04a5e5" d="M 12,2 V 12 H 22 V 3 C 22,2.446 21.554,2 21,2 Z"/>
 <path style="fill:#d20f39" d="M 3,2 C 2.446,2 2,2.446 2,3 v 9 H 12 V 2 Z"/>
 <path style="fill:#df8e1d" d="m 2,12 v 9 c 0,0.554 0.446,1 1,1 h 9 V 12 Z"/>
 <path style="opacity:0.1;fill:#eff1f5" d="M 3,2 C 2.446,2 2,2.446 2,3 v 0.5 c 0,-0.554 0.446,-1 1,-1 h 18 c 0.554,0 1,0.446 1,1 V 3 C 22,2.446 21.554,2 21,2 Z"/>
 <rect style="opacity:0.1;fill:#eff1f5" width="20" height=".5" x="2" y="12"/>
</svg>
