<svg xmlns="http://www.w3.org/2000/svg" width="24" height="24" version="1">
 <rect style="opacity:0.2" width="20" height="20" x="-22.5" y="-22" rx="2" ry="2" transform="matrix(0,-1,-1,0,0,0)"/>
 <rect style="fill:#40a02b" width="2" height="2" x="2" y="6" ry="0"/>
 <rect style="fill:#df8e1d" width="2" height="2" x="4" y="12" ry="0"/>
 <rect style="fill:#df8e1d" width="2" height="2" x="-12" y="12" ry="0" transform="scale(-1,1)"/>
 <rect style="fill:#df8e1d" width="2" height="2" x="-10" y="12" ry="0" transform="scale(-1,1)"/>
 <rect style="fill:#df8e1d" width="2" height="2" x="-12" y="10" ry="0" transform="scale(-1,1)"/>
 <rect style="fill:#df8e1d" width="2" height="2" x="8" y="10" ry="0"/>
 <rect style="fill:#df8e1d" width="2" height="2" x="-10" y="8" ry="0" transform="scale(-1,1)"/>
 <rect style="fill:#40a02b" width="2" height="2" x="20" y="4" ry="0"/>
 <path style="fill:#40a02b" d="M 4,2 V 4 H 2 C 2,2 4,2 4,2 Z"/>
 <rect style="fill:#df8e1d" width="2" height="2" x="10" y="16" ry="0"/>
 <rect style="fill:#df8e1d" width="2" height="2" x="6" y="16" ry="0"/>
 <rect style="fill:#df8e1d" width="2" height="2" x="-14" y="-16" ry="0" transform="scale(-1)"/>
 <rect style="fill:#df8e1d" width="2" height="2" x="6" y="12" ry="0"/>
 <rect style="fill:#df8e1d" width="2" height="2" x="6" y="10" ry="0"/>
 <rect style="fill:#5c5f77" width="2" height="2" x="-14" y="10" ry="0" transform="scale(-1,1)"/>
 <rect style="fill:#df8e1d" width="2" height="2" x="12" y="8" ry="0"/>
 <rect style="fill:#40a02b" width="2" height="2" x="-8" y="6" ry="0" transform="scale(-1,1)"/>
 <rect style="fill:#df8e1d" width="2" height="2" x="-4" y="-18" ry="0" transform="scale(-1)"/>
 <rect style="fill:#df8e1d" width="2" height="2" x="-14" y="-18" ry="0" transform="scale(-1)"/>
 <rect style="fill:#df8e1d" width="2" height="2" x="-6" y="-18" ry="0" transform="scale(-1)"/>
 <rect style="fill:#df8e1d" width="2" height="2" x="-16" y="12" ry="0" transform="scale(-1,1)"/>
 <rect style="fill:#40a02b" width="2" height="2" x="4" y="4" ry="0"/>
 <rect style="fill:#40a02b" width="2" height="2" x="10" y="6" ry="0"/>
 <rect style="fill:#40a02b" width="2" height="2" x="12" y="6" ry="0"/>
 <rect style="fill:#40a02b" width="2" height="2" x="14" y="6" ry="0"/>
 <rect style="fill:#40a02b" width="2" height="2" x="-16" y="8" ry="0" transform="scale(-1,1)"/>
 <rect style="fill:#df8e1d" width="2" height="2" x="-6" y="10" ry="0" transform="scale(-1,1)"/>
 <rect style="fill:#40a02b" width="2" height="2" x="-10" y="6" ry="0" transform="scale(-1,1)"/>
 <rect style="fill:#40a02b" width="2" height="2" x="-4" y="4" ry="0" transform="scale(-1,1)"/>
 <rect style="fill:#df8e1d" width="2" height="2" x="14" y="-18" ry="0" transform="scale(1,-1)"/>
 <rect style="fill:#df8e1d" width="2" height="2" x="-18" y="20" ry="0" transform="scale(-1,1)"/>
 <rect style="fill:#df8e1d" width="2" height="2" x="8" y="20" ry="0"/>
 <rect style="fill:#df8e1d" width="2" height="2" x="10" y="20" ry="0"/>
 <rect style="fill:#df8e1d" width="2" height="2" x="6" y="-22" ry="0" transform="scale(1,-1)"/>
 <rect style="fill:#df8e1d" width="2" height="2" x="-14" y="-22" ry="0" transform="scale(-1)"/>
 <rect style="fill:#df8e1d" width="2" height="2" x="6" y="18" ry="0"/>
 <rect style="fill:#5c5f77" width="2" height="2" x="8" y="18" ry="0"/>
 <rect style="fill:#df8e1d" width="2" height="2" x="12" y="18" ry="0"/>
 <rect style="fill:#df8e1d" width="2" height="2" x="10" y="18" ry="0"/>
 <rect style="fill:#df8e1d" width="2" height="2" x="16" y="18" ry="0"/>
 <rect style="fill:#5c5f77" width="2" height="2" x="-6" y="-20" ry="0" transform="scale(-1)"/>
 <rect style="fill:#df8e1d" width="2" height="2" x="4" y="-22" ry="0" transform="scale(1,-1)"/>
 <rect style="fill:#df8e1d" width="2" height="2" x="-18" y="12" ry="0" transform="scale(-1,1)"/>
 <rect style="fill:#df8e1d" width="2" height="2" x="-18" y="10" ry="0" transform="scale(-1,1)"/>
 <rect style="fill:#40a02b" width="2" height="2" x="16" y="2" ry="0"/>
 <rect style="fill:#df8e1d" width="2" height="2" x="16" y="-18" ry="0" transform="scale(1,-1)"/>
 <rect style="fill:#40a02b" width="2" height="2" x="16" y="6" ry="0"/>
 <rect style="fill:#df8e1d" width="2" height="2" x="-20" y="-18" ry="0" transform="scale(-1)"/>
 <rect style="fill:#40a02b" width="2" height="2" x="-16" y="2" ry="0" transform="scale(-1,1)"/>
 <rect style="fill:#40a02b" width="2" height="2" x="12" y="2" ry="0"/>
 <rect style="fill:#40a02b" width="2" height="2" x="4" y="2" ry="0"/>
 <rect style="fill:#40a02b" width="2" height="2" x="6" y="2" ry="0"/>
 <rect style="fill:#40a02b" width="2" height="2" x="10" y="2" ry="0"/>
 <rect style="fill:#40a02b" width="2" height="2" x="8" y="2" ry="0"/>
 <rect style="fill:#df8e1d" width="2" height="2" x="-4" y="-10" ry="0" transform="scale(-1)"/>
 <rect style="fill:#df8e1d" width="2" height="2" x="2" y="-20" ry="0" transform="scale(1,-1)"/>
 <rect style="fill:#df8e1d" width="2" height="2" x="-10" y="16" ry="0" transform="scale(-1,1)"/>
 <rect style="fill:#df8e1d" width="2" height="2" x="2" y="12" ry="0"/>
 <rect style="fill:#df8e1d" width="2" height="2" x="2" y="10" ry="0"/>
 <rect style="fill:#df8e1d" width="2" height="2" x="-8" y="8" ry="0" transform="scale(-1,1)"/>
 <rect style="fill:#40a02b" width="2" height="2" x="14" y="4" ry="0"/>
 <rect style="fill:#40a02b" width="2" height="2" x="16" y="4" ry="0"/>
 <rect style="fill:#40a02b" width="2" height="2" x="-12" y="4" ry="0" transform="scale(-1,1)"/>
 <rect style="fill:#40a02b" width="2" height="2" x="12" y="4" ry="0"/>
 <path style="fill:#40a02b" d="m 20,2 c 0,0 2,0 2,2 h -2 z"/>
 <rect style="fill:#40a02b" width="2" height="2" x="18" y="4" ry="0"/>
 <rect style="fill:#40a02b" width="2" height="2" x="18" y="2" ry="0"/>
 <rect style="fill:#40a02b" width="2" height="2" x="-8" y="4" ry="0" transform="scale(-1,1)"/>
 <rect style="fill:#40a02b" width="2" height="2" x="18" y="6" ry="0"/>
 <rect style="fill:#40a02b" width="2" height="2" x="20" y="8" ry="0"/>
 <rect style="fill:#40a02b" width="2" height="2" x="8" y="4" ry="0"/>
 <rect style="fill:#df8e1d" width="2" height="2" x="-8" y="14" ry="0" transform="scale(-1,1)"/>
 <rect style="fill:#df8e1d" width="2" height="2" x="4" y="-16" ry="0" transform="scale(1,-1)"/>
 <rect style="fill:#df8e1d" width="2" height="2" x="8" y="-16" ry="0" transform="scale(1,-1)"/>
 <rect style="fill:#df8e1d" width="2" height="2" x="10" y="-16" ry="0" transform="scale(1,-1)"/>
 <rect style="fill:#df8e1d" width="2" height="2" x="-20" y="8" ry="0" transform="scale(-1,1)"/>
 <rect style="fill:#df8e1d" width="2" height="2" x="14" y="-12" ry="0" transform="scale(1,-1)"/>
 <rect style="fill:#df8e1d" width="2" height="2" x="18" y="-12" ry="0" transform="scale(1,-1)"/>
 <rect style="fill:#df8e1d" width="2" height="2" x="20" y="-12" ry="0" transform="scale(1,-1)"/>
 <path style="fill:#df8e1d" d="M 4,22 V 20 H 2 c 0,0 0,2 2,2 z"/>
 <rect style="fill:#5c5f77" width="2" height="2" x="-4" y="14" ry="0" transform="scale(-1,1)"/>
 <rect style="fill:#5c5f77" width="2" height="2" x="-14" y="10" ry="0" transform="scale(-1,1)"/>
 <rect style="fill:#5c5f77" width="2" height="2" x="-6" y="8" ry="0" transform="scale(-1,1)"/>
 <rect style="fill:#5c5f77" width="2" height="2" x="-18" y="-10" ry="0" transform="scale(-1)"/>
 <rect style="fill:#df8e1d" width="2" height="2" x="-22" y="6" ry="0" transform="scale(-1,1)"/>
 <rect style="fill:#df8e1d" width="2" height="2" x="14" y="20" ry="0"/>
 <rect style="fill:#df8e1d" width="2" height="2" x="-16" y="14" ry="0" transform="scale(-1,1)"/>
 <rect style="fill:#df8e1d" width="2" height="2" x="-20" y="14" ry="0" transform="scale(-1,1)"/>
 <rect style="fill:#df8e1d" width="2" height="2" x="-22" y="14" ry="0" transform="scale(-1,1)"/>
 <rect style="fill:#df8e1d" width="2" height="2" x="-6" y="-8" ry="0" transform="scale(-1)"/>
 <rect style="fill:#5c5f77" width="2" height="2" x="16" y="14" ry="0"/>
 <rect style="fill:#df8e1d" width="2" height="2" x="20" y="16" ry="0"/>
 <rect style="fill:#df8e1d" width="2" height="2" x="-20" y="12" ry="0" transform="scale(-1,1)"/>
 <rect style="fill:#df8e1d" width="2" height="2" x="-12" y="8" ry="0" transform="scale(-1,1)"/>
 <rect style="fill:#df8e1d" width="2" height="2" x="20" y="18" ry="0"/>
 <rect style="fill:#df8e1d" width="2" height="2" x="-20" y="20" ry="0" transform="scale(-1,1)"/>
 <path style="fill:#5c5f77" d="m 20,20 h 2 c 0,2 -2,2 -2,2 z"/>
 <rect style="fill:#df8e1d" width="2" height="2" x="-20" y="-20" ry="0" transform="scale(-1)"/>
 <rect style="fill:#df8e1d" width="2" height="2" x="12" y="12" ry="0"/>
 <rect style="fill:#df8e1d" width="2" height="2" x="20" y="-14" ry="0" transform="scale(1,-1)"/>
 <rect style="fill:#df8e1d" width="2" height="2" x="14" y="-20" ry="0" transform="scale(1,-1)"/>
 <path style="opacity:0.2;fill:#eff1f5" d="M 4 2 C 2.892 2 2 2.892 2 4 L 2 4.5 C 2 3.392 2.892 2.5 4 2.5 L 20 2.5 C 21.108 2.5 22 3.392 22 4.5 L 22 4 C 22 2.892 21.108 2 20 2 L 4 2 z"/>
</svg>
