<svg xmlns="http://www.w3.org/2000/svg" width="24" height="24" version="1">
 <path style="fill:#40a02b" d="m 2,9 0,12 c 0,0.554 0.446,1 1,1 l 18,0 c 0.554,0 1,-0.446 1,-1 L 22,9 2,9 Z"/>
 <path style="fill:#1e66f5" d="M 22,9 22,3 C 22,2.446 21.554,2 21,2 L 3,2 C 2.446,2 2,2.446 2,3 l 0,6 z"/>
 <path style="opacity:0.1;fill:#eff1f5" d="M 3,2 C 2.446,2 2,2.446 2,3 l 0,0.5 c 0,-0.554 0.446,-1 1,-1 l 18,0 c 0.554,0 1,0.446 1,1 L 22,3 C 22,2.446 21.554,2 21,2 L 3,2 Z"/>
 <path style="opacity:0.2" d="m 3,22.5 c -0.554,0 -1,-0.446 -1,-1 L 2,21 c 0,0.554 0.446,1 1,1 l 18,0 c 0.554,0 1,-0.446 1,-1 l 0,0.5 c 0,0.554 -0.446,1 -1,1 l -18,0 z"/>
 <rect style="opacity:0.1" width="4" height="4" x="6" y="9.5"/>
 <rect style="fill:#4c4f69" width="4" height="4" x="6" y="9"/>
 <rect style="opacity:0.1" width="4" height="4" x="14" y="9.5"/>
 <rect style="fill:#4c4f69" width="4" height="4" x="14" y="9"/>
</svg>
