<svg xmlns="http://www.w3.org/2000/svg" width="24" height="24" version="1.1">
 <rect style="opacity:0.2" width="20" height="20" x="2" y="2.5" ry="3.5"/>
 <rect style="fill:#04a5e5" width="20" height="18" x="2" y="4" ry="3.5"/>
 <path style="opacity:0.2" d="m5.5 2.5c-1.94 0-3.5 1.56-3.5 3.5v2.5l10 5 10-5v-2.5c0-1.94-1.56-3.5-3.5-3.5z"/>
 <path style="fill:#209fb5" d="m5.5 2c-1.94 0-3.5 1.56-3.5 3.5v2.5l10 5 10-5v-2.5c0-1.94-1.56-3.5-3.5-3.5z"/>
 <path style="fill:#eff1f5;opacity:0.2" d="m5.5 2c-1.94 0-3.5 1.56-3.5 3.5v0.5c0-1.94 1.56-3.5 3.5-3.5h13c1.94 0 3.5 1.56 3.5 3.5v-0.5c0-1.94-1.56-3.5-3.5-3.5z"/>
</svg>
