<svg xmlns="http://www.w3.org/2000/svg" width="24" height="24" version="1.1">
 <rect style="opacity:0.2" width="20" height="20" x="2" y="2.5" rx="1.5" ry="1.5"/>
 <path style="fill:#8839ef" d="M 3.5,2 C 2.669,2 2,2.669 2,3.5 V 10.75 19 H 12 22 V 3.5 C 22,2.669 21.331,2 20.5,2 H 12 Z"/>
 <path style="opacity:0.2" d="m 7,5.5 v 2 H 5 v 8 h 2 v 1 1 h 2 6 2 v -2 h 2 v -8 h -2 v -2 H 15 9 Z m 4,2 h 4 v 6 2 H 9 v -4 -2 h 2 z"/>
 <path style="opacity:0.1;fill:#eff1f5" d="M 3.5,2 C 2.669,2 2,2.669 2,3.5 V 4 C 2,3.169 2.669,2.5 3.5,2.5 h 17 C 21.331,2.5 22,3.169 22,4 V 3.5 C 22,2.669 21.331,2 20.5,2 Z"/>
 <path style="fill:#04a5e5" d="M 7,16 V 15 H 5 V 7 H 7 V 5 H 9 V 7 H 7 v 4 h 2 v 6 H 7 Z"/>
 <path style="fill:#e64553" d="m 15,16 v -1 h 2 V 13 H 15 V 5 h 2 v 2 h 2 v 8 h -2 v 2 h -2 z"/>
 <path style="fill:#40a02b" d="m 9,16 v -1 h 6 v 2 H 9 V 16.04 Z M 9,6.2 V 5 h 6 V 7 H 9 Z"/>
 <path style="fill:#8839ef" d="m 2,19 v 1.5 C 2,21.331 2.669,22 3.5,22 H 12 20.5 C 21.331,22 22,21.331 22,20.5 V 19 H 12 Z"/>
 <rect style="fill:#df8e1d" width="2" height="2" x="7" y="7"/>
 <rect style="fill:#df8e1d" width="2" height="2" x="9" y="7"/>
 <rect style="fill:#df8e1d" width="2" height="2" x="7" y="9"/>
 <rect style="fill:#df8e1d" width="2" height="2" x="15" y="13"/>
 <rect style="opacity:0.2" width="20" height=".5" x="2" y="19"/>
 <path style="fill:#eff1f5;opacity:0.2" d="M 7 5 L 7 5.5 L 9 5.5 L 15 5.5 L 17 5.5 L 17 5 L 15 5 L 9 5 L 7 5 z M 5 7 L 5 7.5 L 7 7.5 L 7 7 L 5 7 z M 17 7 L 17 7.5 L 19 7.5 L 19 7 L 17 7 z M 9 15 L 9 15.5 L 15 15.5 L 15 15 L 9 15 z"/>
</svg>
