<svg xmlns="http://www.w3.org/2000/svg" width="24" height="24" version="1.1">
 <rect style="opacity:0.2" width="22" height="8" x="1" y="14.5" rx="1.5" ry="1.5"/>
 <rect style="fill:#40a02b" width="2" height="19" x="13" y="2"/>
 <rect style="fill:#40a02b" width="2" height="19" x="11" y="2"/>
 <rect style="fill:#8839ef" width="2" height="19" x="17" y="2"/>
 <rect style="fill:#1e66f5" width="2" height="19" x="15" y="2"/>
 <rect style="fill:#df8e1d" width="2" height="19" x="5" y="2"/>
 <rect style="fill:#4c4f69" width="2" height="19" x="3" y="2"/>
 <rect style="fill:#df8e1d" width="2" height="19" x="9" y="2"/>
 <rect style="fill:#e64553" width="2" height="19" x="7" y="2"/>
 <rect style="fill:#5c5f77" width="2" height="19" x="19" y="2"/>
 <rect style="fill:#40a02b" width="22" height="8" x="1" y="14" rx="1.5" ry="1.5"/>
 <path style="opacity:0.2;fill:none;stroke:#eff1f5" d="m 4,21 h 1.5 v -5 h 7 v 5 h 3 v -5 h 3.000102 v 5 H 20"/>
 <path style="fill:none;stroke:#40a02b" d="m 4,20.5 h 1.5 v -5 h 7 v 5 h 3 v -5 h 3.000102 v 5 H 20"/>
 <path style="opacity:0.2;fill:#eff1f5" d="M 2.5,14 C 1.669,14 1,14.669 1,15.5 V 16 c 0,-0.831 0.669,-1.5 1.5,-1.5 h 19 c 0.831,0 1.5,0.669 1.5,1.5 V 15.5 C 23,14.669 22.331,14 21.5,14 Z"/>
 <rect style="opacity:0.1;fill:#eff1f5" width="18" height=".5" x="3" y="2"/>
</svg>
