<svg xmlns="http://www.w3.org/2000/svg" width="24" height="24" version="1.1">
 <rect style="opacity:0.2" width="5" height="7" x="18" y="13.5" rx="1" ry="1"/>
 <rect style="opacity:0.2" width="5" height="7" x="12" y="13.5" rx="1" ry="1"/>
 <rect style="opacity:0.2" width="11" height="8" x="12" y="4.5" rx="1" ry="1"/>
 <rect style="opacity:0.2" width="10" height="16" x="1" y="4.5" rx="1" ry="1"/>
 <rect style="fill:#04a5e5" width="10" height="16" x="1" y="4" rx="1" ry="1"/>
 <rect style="fill:#e64553" width="11" height="8" x="12" y="4" rx="1" ry="1"/>
 <rect style="fill:#40a02b" width="5" height="7" x="12" y="13" rx="1" ry="1"/>
 <rect style="fill:#40a02b" width="5" height="7" x="18" y="13" rx="1" ry="1"/>
 <rect style="opacity:0.3" width="6" height="1" x="3" y="7"/>
 <rect style="opacity:0.3" width="6" height="1" x="3" y="10"/>
 <rect style="opacity:0.3" width="6" height="1" x="3" y="13"/>
 <rect style="opacity:0.3" width="4" height="1" x="3" y="16"/>
 <path style="opacity:0.3;fill:none;stroke:#eff1f5;stroke-width:0.5px;stroke-linecap:round;stroke-linejoin:round" d="m 14.252525,5.747475 1.5,1.5 -1.5,1.5"/>
 <path style="opacity:0.3;fill:none;stroke:#eff1f5;stroke-width:0.5px;stroke-linecap:round;stroke-linejoin:round" d="m 16.752525,5.747475 1.5,1.5 -1.5,1.5"/>
 <path style="opacity:0.3;fill:none;stroke:#eff1f5;stroke-width:0.5px;stroke-linecap:round;stroke-linejoin:round" d="m 19.252525,5.747475 1.5,1.5 -1.5,1.5"/>
 <path style="opacity:0.2;fill:#eff1f5" d="M 2,4 C 1.446,4 1,4.446 1,5 v 0.5 c 0,-0.554 0.446,-1 1,-1 h 8 c 0.554,0 1,0.446 1,1 V 5 C 11,4.446 10.554,4 10,4 Z"/>
 <path style="opacity:0.2;fill:#eff1f5" d="m 13,4 c -0.554,0 -1,0.446 -1,1 v 0.5 c 0,-0.554 0.446,-1 1,-1 h 9 c 0.554,0 1,0.446 1,1 V 5 C 23,4.446 22.554,4 22,4 Z"/>
 <path style="opacity:0.2;fill:#eff1f5" d="m 13,13 c -0.554,0 -1,0.446 -1,1 v 0.5 c 0,-0.554 0.446,-1 1,-1 h 3 c 0.554,0 1,0.446 1,1 V 14 c 0,-0.554 -0.446,-1 -1,-1 z"/>
 <path style="opacity:0.2;fill:#eff1f5" d="m 19,13 c -0.554,0 -1,0.446 -1,1 v 0.5 c 0,-0.554 0.446,-1 1,-1 h 3 c 0.554,0 1,0.446 1,1 V 14 c 0,-0.554 -0.446,-1 -1,-1 z"/>
</svg>
