<svg xmlns="http://www.w3.org/2000/svg" width="24" height="24" version="1.1">
 <rect style="opacity:0.2" width="20" height="20" x="2" y="2.5" rx="4" ry="4"/>
 <rect style="fill:#eff1f5" width="20" height="20" x="2" y="2" rx="4" ry="4"/>
 <path style="opacity:0.1" d="m 12,10.5 -4,2 4,2 -4,2 v 4 l 4,-2 4,-2 v -4 z"/>
 <path style="fill:#dc8a78" d="m 12.000645,10.000321 v 3.999405 h -0.0013 l -3.9993448,-1.99971 z"/>
 <path style="opacity:0.1" d="m 16,4.5 -4,2 -4,2 v 4 l 4,-2 4,-2 z"/>
 <path style="fill:#df8e1d" d="M 16,4 V 8.0006112 L 12.000627,5.9997099 Z"/>
 <path style="fill:#dc8a78" d="M 16,8.0006267 12.000627,10.000321 V 5.9997099 Z"/>
 <path style="fill:#8839ef" d="M 12.000645,5.9997099 V 10.000321 L 8.0000002,8.0006267 Z"/>
 <path style="fill:#8839ef" d="M 12.000645,18.000321 8.0000002,20 v -4.000581 z"/>
 <path fill="#d20f39" d="m 16,12.000031 v 3.999403 l -3.999373,-1.999708 z"/>
 <path fill="#d20f39" d="m 16,15.999434 -3.999373,2.000902 v -4.00061 z"/>
 <path fill="#ea76cb" d="m 12.000645,13.999726 v 4.00061 L 8.0000002,15.999434 11.999361,13.999726 Z"/>
 <path fill="#d20f39" d="m 16,12.000016 -3.999373,1.99971 v -3.999405 z"/>
 <path style="fill:#e64553" d="m 12.000645,10.000306 -4.0006448,1.99971 V 8.0006112 Z"/>
 <path style="opacity:0.2;fill:#eff1f5" d="M 6,2 C 3.784,2 2,3.784 2,6 v 0.5 c 0,-2.216 1.784,-4 4,-4 h 12 c 2.216,0 4,1.784 4,4 V 6 C 22,3.784 20.216,2 18,2 Z"/>
</svg>
