<svg xmlns="http://www.w3.org/2000/svg" width="24" height="24" version="1">
 <rect style="fill:#8839ef" width="20" height="20" x="2" y="2" rx="1" ry="1"/>
 <path style="opacity:0.1;fill:#eff1f5" d="M 2,3.5 2,3 C 2,2.446 2.446,2 3,2 l 18,0 c 0.554,0 1,0.446 1,1 l 0,0.5 c 0,-0.554 -0.446,-1 -1,-1 l -18,0 c -0.554,0 -1,0.446 -1,1 z"/>
 <path style="opacity:0.2" d="m 2,21 0,0.5 c 0,0.554 0.446,1 1,1 l 18,0 c 0.554,0 1,-0.446 1,-1 L 22,21 c 0,0.554 -0.446,1 -1,1 L 3,22 C 2.446,22 2,21.554 2,21 Z"/>
 <rect style="fill:#40a02b" width="2" height="2" x="6" y="12"/>
 <rect style="fill:#e64553" width="2" height="2" x="8" y="12"/>
 <rect style="fill:#7287fd" width="2" height="2" x="10" y="12"/>
 <rect style="fill:#eff1f5" width="2" height="2" x="12" y="12"/>
 <rect style="fill:#df8e1d" width="2" height="2" x="14" y="12"/>
 <rect style="fill:#eff1f5" width="2" height="2" x="16" y="12"/>
 <rect style="fill:#7287fd" width="2" height="2" x="6" y="10"/>
 <rect style="fill:#eff1f5" width="2" height="2" x="8" y="10"/>
 <rect style="fill:#40a02b" width="2" height="2" x="10" y="10"/>
 <rect style="fill:#eff1f5" width="2" height="2" x="12" y="10"/>
 <rect style="fill:#eff1f5" width="2" height="2" x="14" y="10"/>
 <rect style="fill:#7287fd" width="2" height="2" x="16" y="10"/>
 <rect style="fill:#eff1f5" width="2" height="2" x="6" y="8"/>
 <rect style="fill:#40a02b" width="2" height="2" x="8" y="8"/>
 <rect style="fill:#df8e1d" width="2" height="2" x="10" y="8"/>
 <rect style="fill:#ea76cb" width="2" height="2" x="12" y="8"/>
 <rect style="fill:#40a02b" width="2" height="2" x="14" y="8"/>
 <rect style="fill:#df8e1d" width="2" height="2" x="8" y="14"/>
 <rect style="fill:#ea76cb" width="2" height="2" x="10" y="14"/>
 <rect style="fill:#e64553" width="2" height="2" x="12" y="14"/>
 <rect style="fill:#40a02b" width="2" height="2" x="14" y="14"/>
 <rect style="fill:#e64553" width="2" height="2" x="16" y="14"/>
 <rect style="fill:#7287fd" width="2" height="2" x="10" y="16"/>
 <rect style="fill:#eff1f5" width="2" height="2" x="12" y="16"/>
 <rect style="fill:#40a02b" width="2" height="2" x="14" y="16"/>
 <rect style="fill:#ea76cb" width="2" height="2" x="16" y="16"/>
 <rect style="fill:#df8e1d" width="2" height="2" x="6" y="6"/>
 <rect style="fill:#e64553" width="2" height="2" x="8" y="6"/>
 <rect style="fill:#40a02b" width="2" height="2" x="10" y="6"/>
 <rect style="fill:#7287fd" width="2" height="2" x="12" y="6"/>
 <path style="opacity:0.2" d="m 6,8 0,0.5 10,0 0,-0.5 z m 0,2 0,0.5 12,0 0,-0.5 z m 0,2 0,0.5 12,0 0,-0.5 z m 0,2 0,0.5 12,0 0,-0.5 z m 2,2 0,0.5 10,0 0,-0.5 z m 2,2 0,0.5 8,0 0,-0.5 z"/>
</svg>
