<svg xmlns="http://www.w3.org/2000/svg" width="24" height="24" version="1">
 <rect style="opacity:0.2" width="16" height="20" x="4" y="2.5" rx="1" ry="1"/>
 <rect style="fill:#8839ef" width="16" height="20" x="4" y="2" rx="1" ry="1"/>
 <path style="fill:#8839ef" d="M 4 17 L 4 21 C 4 21.554 4.446 22 5 22 L 19 22 C 19.554 22 20 21.554 20 21 L 20 17 L 4 17 z"/>
 <rect style="fill:#eff1f5" width="10" height="1" x="6" y="5"/>
 <rect style="fill:#1e66f5" width="8" height="1" x="8" y="7"/>
 <rect style="fill:#eff1f5" width="10" height="1" x="6" y="10"/>
 <rect style="fill:#1e66f5" width="8" height="1" x="8" y="12"/>
 <circle style="fill:#df8e1d" cx="17" cy="17" r="6"/>
 <path style="fill:#eff1f5" d="m14 15v1h6v-1zm0 3v1h6v-1z"/>
 <path style="opacity:0.1;fill:#eff1f5" d="M 5 2 C 4.446 2 4 2.446 4 3 L 4 3.5 C 4 2.946 4.446 2.5 5 2.5 L 19 2.5 C 19.554 2.5 20 2.946 20 3.5 L 20 3 C 20 2.446 19.554 2 19 2 L 5 2 z"/>
</svg>
