<svg xmlns="http://www.w3.org/2000/svg" width="24" height="24" version="1.1">
 <rect style="opacity:0.2" width="20" height="14" x="2" y="7.5" rx="2"/>
 <rect style="fill:#e64553" width="12" height="9.5" x="6" y="3" rx="1.5"/>
 <rect style="fill:#8839ef" width="14" height="11" x="5" y="4" rx="1.5"/>
 <rect style="fill:#40a02b" width="16" height="11" x="4" y="5.5" rx="1.412"/>
 <rect style="fill:#04a5e5" width="20" height="14" x="2" y="7" rx="2"/>
 <path style="fill:#04a5e5" d="M 22,9.863281 2.1582031,19.784179 C 2.4619698,20.500332 3.1705593,21 4,21 h 16 c 1.108,0 2,-0.892 2,-2 z"/>
 <path style="opacity:0.2" d="m 10,12.09104 v 4.27246 l 4.272461,-2.135742 z"/>
 <path style="fill:#eff1f5" d="m 10,11.590821 v 4.27246 l 4.272461,-2.135742 z"/>
 <path style="opacity:0.2;fill:#eff1f5" d="M 4,7 C 2.892,7 2,7.892 2,9 v 0.5 c 0,-1.108 0.892,-2 2,-2 h 16 c 1.108,0 2,0.892 2,2 V 9 C 22,7.892 21.108,7 20,7 Z"/>
</svg>
