<svg xmlns="http://www.w3.org/2000/svg" width="24" height="24" version="1.1">
 <g transform="translate(-6,3)">
  <path style="opacity:0.2" d="M 9.5,2.5 C 8.669,2.5 8,3.169 8,4 V 18 C 8,18.831 8.669,19.5 9.5,19.5 H 22 V 2.5 Z"/>
  <rect style="fill:#40a02b" width="5" height="17" x="8" y="2" rx="1.5" ry="1.5"/>
  <rect style="fill:#40a02b" width="11" height="17" x="11" y="2"/>
  <path style="fill:#40a02b" d="M 10,16 C 9.446,16 9,16.446 9,17 9,17.554 9.446,18 10,18 H 22 V 16 Z"/>
  <path style="opacity:0.2" d="M 10,16 C 9.446,16 9,16.446 9,17 9,17.086 9.0108,17.17 9.0312,17.25 9.1418,16.818 9.5325,16.5 10,16.5 H 22 V 16 Z"/>
  <path style="opacity:0.1;fill:#eff1f5" d="M 9.5,2 C 8.669,2 8,2.669 8,3.5 V 4 C 8,3.169 8.669,2.5 9.5,2.5 H 22 V 2 Z"/>
 </g>
 <path style="opacity:0.2" d="M 9.5,2.5 C 8.669,2.5 8,3.169 8,4 V 18 C 8,18.831 8.669,19.5 9.5,19.5 H 22 V 2.5 Z"/>
 <rect style="fill:#d20f39" width="5" height="17" x="8" y="2" rx="1.5" ry="1.5"/>
 <rect style="fill:#dd7878" width="11" height="17" x="11" y="2"/>
 <path style="fill:#40a02b" d="M 10 16 C 9.446 16 9 16.446 9 17 C 9 17.554 9.446 18 10 18 L 22 18 L 22 16 L 10 16 z"/>
 <path style="opacity:0.2" d="M 10 16 C 9.446 16 9 16.446 9 17 C 9 17.086 9.0108 17.17 9.0312 17.25 C 9.1418 16.818 9.5325 16.5 10 16.5 L 22 16.5 L 22 16 L 10 16 z"/>
 <path style="fill:#eff1f5;opacity:0.1" d="M 9.5 2 C 8.669 2 8 2.669 8 3.5 L 8 4 C 8 3.169 8.669 2.5 9.5 2.5 L 22 2.5 L 22 2 L 9.5 2 z"/>
</svg>
