<svg xmlns="http://www.w3.org/2000/svg" width="24" height="24" version="1">
 <circle style="opacity:0.2" cx="6.5" cy="10" r="5.5"/>
 <circle style="fill:#eff1f5" cx="6.5" cy="9.5" r="5.5"/>
 <path style="opacity:0.2;fill:#eff1f5" d="M 6.5,4 A 5.5,5.5 0 0 0 1,9.5 5.5,5.5 0 0 0 1.010742,9.7929686 5.5,5.5 0 0 1 6.5,4.5 5.5,5.5 0 0 1 11.989258,9.7070306 5.5,5.5 0 0 0 12,9.5 5.5,5.5 0 0 0 6.5,4 Z"/>
 <circle style="fill:#04a5e5" cx="7" cy="9" r="2"/>
 <circle style="fill:#4c4f69" cx="7" cy="9" r="1"/>
 <circle style="opacity:0.2" cx="15" cy="13.5" r="7"/>
 <circle style="fill:#eff1f5" cx="15" cy="13" r="7"/>
 <circle style="fill:#04a5e5" cx="16" cy="12" r="3"/>
 <circle style="fill:#4c4f69" cx="16" cy="12" r="1"/>
 <path style="opacity:0.2;fill:#eff1f5" d="M 15,6 A 7,7 0 0 0 8,13 7,7 0 0 0 8.010742,13.292969 7,7 0 0 1 15,6.5 7,7 0 0 1 21.989258,13.207031 7,7 0 0 0 22,13 7,7 0 0 0 15,6 Z"/>
</svg>
