<svg xmlns="http://www.w3.org/2000/svg" width="24" height="24" version="1.1">
 <path fill="#04a5e5" d="m3 3c-0.554 0-1 0.446-1 1v16c0 0.554 0.446 1 1 1h18c0.554 0 1-0.446 1-1v-16c0-0.554-0.446-1-1-1h-18z"/>
 <path fill="#4c4f69" d="m3 21c-0.554 0-1-0.446-1-1v-4h20v4c0 0.554-0.446 1-1 1z"/>
 <path fill="#eff1f5" opacity=".1" d="m3 3c-0.554 0-1 0.446-1 1v0.5c0-0.554 0.446-1 1-1h18c0.554 0 1 0.446 1 1v-0.5c0-0.554-0.446-1-1-1z"/>
 <rect fill="#eff1f5" opacity=".2" width="8" height="3" x="3" y="17" rx=".638" ry=".772"/>
 <rect fill="#eff1f5" opacity=".2" width="8" height="3" x="12" y="17" rx=".638" ry=".772"/>
 <path opacity=".2" d="m2 20v0.5c0 0.554 0.446 1 1 1h18c0.554 0 1-0.446 1-1v-0.5c0 0.554-0.446 1-1 1h-18c-0.554 0-1-0.446-1-1z"/>
 <rect fill="#eff1f5" width="3" height="3" x="4" y="17"/>
 <rect fill="#eff1f5" width="3" height="3" x="13" y="17"/>
</svg>
